<svg xmlns="http://www.w3.org/2000/svg" xmlns:v="https://svgstorm.com"
viewBox = "0 0 1600 1600"
width="1600"
height="1600">
<g fill="None" fill-opacity="0.0" stroke="#FEFEFE" stroke-opacity="1.00" stroke-width="0.3"><path d="
M 0.00 1600.00 
L 1600.00 1600.00
L 1600.00 0.00
L 0.00 0.00
L 0.00 1600.00
M 742.00 358.00 
C 739.20 356.19 735.74 354.95 734.00 352.00
C 736.73 352.93 739.63 354.74 742.00 356.00
C 807.20 389.69 875.13 418.15 941.00 450.00
C 958.80 430.52 976.04 410.37 995.00 392.00
C 979.21 420.32 961.98 448.20 945.00 476.00
C 1019.01 416.10 1091.97 353.78 1165.00 292.00
C 1115.38 352.09 1063.23 411.10 1013.00 471.00
C 1032.17 457.16 1050.15 440.66 1069.00 426.00
C 1027.04 482.18 982.34 537.45 941.00 594.00
C 965.45 575.95 988.26 555.48 1013.00 538.00
C 1002.20 557.12 989.72 575.66 979.00 595.00
C 1019.16 577.13 1059.65 559.65 1100.00 542.00
C 1061.31 568.94 1018.81 594.99 980.00 623.00
C 991.95 618.28 1003.92 613.43 1016.00 609.00
C 1019.92 631.65 1022.58 654.18 1025.98 677.02 C 1029.37 699.87 1031.15 723.16 1035.00 746.00 C 1038.85 768.84 1040.26 791.99 1044.00 815.00 C 1047.74 838.01 1049.43 859.91 1053.93 883.07 C 1058.43 906.23 1045.82 925.67 1022.00 927.00 C 998.17 928.33 975.45 933.97 952.00 936.00 C 928.55 938.03 906.16 942.56 882.99 944.99 C 859.82 947.42 836.89 951.15 814.00 954.00 C 791.11 956.85 767.58 959.96 745.00 963.00 C 722.42 966.04 697.78 968.00 675.98 971.98 C 654.17 975.95 627.99 973.80 608.92 982.92 C 589.85 992.04 578.36 1003.95 560.00 1013.00
C 588.72 982.24 618.31 950.89 647.00 921.00
C 592.44 962.28 537.88 1003.30 483.00 1044.00
C 506.26 1013.68 533.68 985.45 557.00 955.00
C 476.02 1013.94 395.78 1075.37 314.00 1133.00
C 362.16 1076.28 410.32 1019.72 460.00 964.00
C 430.30 977.86 401.58 994.81 372.00 1009.00
C 403.61 980.86 435.60 952.29 468.00 925.00
C 449.19 921.87 427.75 928.13 409.00 925.00
C 442.28 908.20 474.98 888.75 507.00 870.00
C 449.78 885.98 392.73 902.73 335.00 917.00
C 395.31 879.92 455.13 841.20 515.00 803.00
C 514.85 803.01 514.33 801.99 514.00 802.00
C 483.07 817.30 451.50 832.07 420.00 846.00
C 406.84 727.55 393.28 609.19 379.00 491.00
C 378.90 491.83 378.08 493.58 378.00 495.00
C 376.28 524.72 385.66 553.55 386.93 583.07 C 388.19 612.60 393.76 642.48 395.98 672.02 C 398.19 701.57 402.06 731.56 405.00 761.00 C 407.94 790.44 411.63 819.68 415.00 849.00
C 410.31 851.36 405.69 853.65 401.00 856.00
C 399.76 828.05 395.11 800.73 393.00 773.00 C 390.89 745.27 387.65 717.54 385.00 690.00 C 382.35 662.46 378.92 634.59 377.00 607.00 C 375.08 579.41 369.51 550.80 368.67 523.33 C 367.83 495.86 358.59 467.54 361.33 440.33 C 364.07 413.12 393.79 404.30 418.00 408.00 C 442.21 411.69 472.54 415.20 498.02 418.98 C 523.51 422.75 553.08 426.40 579.00 430.00
C 580.37 431.14 573.94 421.94 572.00 420.00
C 537.35 390.39 506.04 356.81 472.00 327.00
C 531.38 362.96 589.54 402.16 649.00 438.00
C 625.61 370.38 581.60 312.41 531.00 260.00
C 545.53 266.70 560.48 273.80 574.69 281.31 C 588.91 288.81 603.15 297.15 617.23 304.77 C 631.31 312.39 645.32 320.76 658.70 329.30 C 672.08 337.85 684.59 346.22 697.23 355.77 C 709.87 365.32 720.25 375.72 731.75 387.25 C 743.25 398.78 750.77 411.55 760.30 424.70 C 769.83 437.84 772.09 458.21 791.02 458.98 C 809.96 459.74 830.09 465.52 849.07 466.93 C 868.06 468.33 887.97 473.74 906.00 474.00
C 851.39 435.13 796.80 396.47 742.00 358.00
M 989.00 1062.00 
C 986.75 1072.09 987.20 1082.87 985.00 1093.00
C 999.16 1088.33 1013.13 1085.60 1028.02 1090.98 C 1042.92 1096.35 1040.16 1116.07 1039.00 1129.00 C 1037.84 1141.93 1033.08 1156.32 1018.93 1159.93 C 1004.77 1163.53 989.02 1162.25 977.00 1154.00
C 978.90 1164.90 963.48 1158.13 957.00 1160.00
C 957.43 1149.81 958.99 1141.19 959.99 1130.99 C 960.99 1120.79 962.68 1111.73 963.00 1101.00 C 963.32 1090.27 967.25 1084.01 966.00 1072.00 C 964.75 1059.99 979.00 1060.96 989.00 1062.00
M 612.00 1125.00 
C 617.22 1115.89 622.65 1109.42 627.77 1099.77 C 632.89 1090.12 638.71 1085.35 643.31 1074.31 C 647.90 1063.26 663.15 1063.74 675.00 1065.00
C 672.10 1096.76 667.93 1128.22 665.00 1160.00
C 658.00 1160.00 651.00 1160.00 644.00 1160.00
C 644.96 1138.99 649.60 1116.97 650.00 1097.00
C 645.94 1104.47 641.55 1109.76 637.23 1117.23 C 632.91 1124.70 628.29 1128.87 624.23 1137.23 C 620.17 1145.59 611.48 1149.87 601.00 1147.00
C 594.99 1130.12 587.56 1113.73 581.00 1097.00
C 580.76 1106.42 576.44 1112.75 577.01 1123.01 C 577.58 1133.27 573.15 1138.73 574.02 1150.02 C 574.90 1161.31 563.99 1161.56 553.00 1160.00
C 555.04 1128.01 560.04 1096.77 563.00 1065.00
C 573.24 1065.28 588.79 1061.67 591.78 1072.22 C 594.76 1082.78 598.63 1088.51 601.78 1098.22 C 604.93 1107.94 608.65 1115.52 612.00 1125.00
M 862.00 1083.00 
C 858.69 1086.41 850.92 1083.04 846.00 1084.00 C 841.08 1084.96 833.19 1083.28 828.00 1084.00
C 824.43 1087.94 828.17 1097.78 826.00 1103.00 C 823.83 1108.22 825.34 1116.17 824.00 1122.00 C 822.66 1127.83 823.09 1134.94 822.00 1141.00 C 820.91 1147.06 820.02 1153.61 820.00 1160.00
C 812.67 1160.00 805.33 1160.00 798.00 1160.00
C 799.98 1134.51 804.55 1109.65 806.00 1084.00
C 801.32 1083.20 793.35 1085.07 789.00 1084.00 C 784.65 1082.93 775.46 1086.51 773.00 1083.00
C 769.84 1078.49 776.57 1069.93 774.00 1065.00
C 804.00 1065.00 834.00 1065.00 864.00 1065.00
C 864.07 1071.18 863.16 1077.11 862.00 1083.00
M 1102.00 1089.00 
C 1126.81 1089.95 1130.36 1110.24 1126.00 1132.00
C 1118.17 1133.09 1103.11 1130.54 1096.00 1132.00 C 1088.89 1133.46 1070.29 1127.43 1070.01 1136.01 C 1069.73 1144.59 1084.86 1144.11 1092.00 1144.00 C 1099.14 1143.89 1113.62 1144.16 1121.00 1142.00
C 1119.72 1147.17 1119.66 1152.66 1119.00 1158.00
C 1099.53 1160.77 1055.64 1169.21 1049.22 1143.78 C 1042.81 1118.34 1055.96 1086.62 1084.00 1089.00
C 1089.71 1088.45 1096.32 1088.19 1102.00 1089.00
M 706.00 1090.00 
C 709.33 1093.26 708.46 1102.53 710.93 1107.07 C 713.40 1111.62 713.22 1119.33 715.78 1124.22 C 718.33 1129.11 716.94 1136.91 721.00 1141.00
C 727.43 1123.45 737.94 1107.33 745.00 1090.00
C 747.09 1088.25 764.47 1087.51 766.00 1090.00
C 768.07 1093.37 759.91 1100.34 758.70 1104.70 C 757.48 1109.05 753.56 1114.72 750.75 1119.75 C 747.93 1124.77 746.61 1128.88 743.08 1135.08 C 739.54 1141.27 739.51 1141.63 735.08 1150.08 C 730.64 1158.52 724.91 1171.30 718.75 1178.75 C 712.59 1186.20 711.28 1185.26 704.33 1187.33 C 697.37 1189.39 689.23 1188.55 683.00 1187.00 C 676.77 1185.45 687.06 1173.62 685.00 1170.00
C 697.75 1176.20 710.14 1165.60 705.02 1153.98 C 699.91 1142.35 698.42 1133.98 694.22 1122.78 C 690.03 1111.57 688.42 1100.97 684.00 1090.00
C 685.54 1087.54 704.11 1088.15 706.00 1090.00
M 899.00 1161.00 
C 894.71 1161.61 890.24 1161.69 886.00 1161.00
C 877.82 1160.56 871.21 1158.22 868.03 1149.97 C 864.84 1141.72 867.30 1133.08 867.78 1123.78 C 868.26 1114.48 870.80 1108.23 870.93 1097.93 C 871.05 1087.62 883.53 1089.52 893.00 1090.00
C 891.47 1105.04 888.73 1117.53 888.01 1133.01 C 887.28 1148.49 911.90 1144.55 921.00 1140.00
C 921.70 1123.10 925.07 1106.87 926.00 1090.00
C 933.00 1090.00 940.00 1090.00 947.00 1090.00
C 946.00 1097.14 946.22 1106.04 945.00 1113.00 C 943.78 1119.96 944.20 1129.25 942.67 1135.67 C 941.14 1142.09 942.38 1153.12 940.22 1158.22 C 938.06 1163.32 918.41 1161.42 921.00 1155.00
C 913.94 1157.73 907.03 1161.38 899.00 1161.00 Z"/>
</g>
<g fill="None" fill-opacity="0.0" stroke="#000000" stroke-opacity="1.00" stroke-width="0.3"><path d="
M 572.00 420.00 
C 575.88 423.31 579.97 426.94 583.00 431.00
C 581.72 430.72 579.50 431.76 579.00 430.00
C 553.08 426.40 523.51 422.75 498.02 418.98 C 472.54 415.20 442.21 411.69 418.00 408.00 C 393.79 404.30 364.07 413.12 361.33 440.33 C 358.59 467.54 367.83 495.86 368.67 523.33 C 369.51 550.80 375.08 579.41 377.00 607.00 C 378.92 634.59 382.35 662.46 385.00 690.00 C 387.65 717.54 390.89 745.27 393.00 773.00 C 395.11 800.73 399.76 828.05 401.00 856.00
C 405.69 853.65 410.31 851.36 415.00 849.00
C 411.63 819.68 407.94 790.44 405.00 761.00 C 402.06 731.56 398.19 701.57 395.98 672.02 C 393.76 642.48 388.19 612.60 386.93 583.07 C 385.66 553.55 376.28 524.72 378.00 495.00
C 377.21 486.85 373.72 476.92 375.00 468.00
C 374.79 465.85 373.65 462.88 374.00 460.00
C 373.77 457.59 371.31 452.31 374.00 450.00
C 373.33 452.94 375.09 455.18 375.00 458.00
C 375.39 461.15 375.56 463.93 376.00 467.00
C 377.14 475.01 377.83 482.99 379.00 491.00
C 393.28 609.19 406.84 727.55 420.00 846.00
C 451.50 832.07 483.07 817.30 514.00 802.00
C 517.52 800.26 521.06 797.41 525.00 796.00
C 523.63 799.58 518.10 800.53 515.00 803.00
C 455.13 841.20 395.31 879.92 335.00 917.00
C 392.73 902.73 449.78 885.98 507.00 870.00
C 474.98 888.75 442.28 908.20 409.00 925.00
C 427.75 928.13 449.19 921.87 468.00 925.00
C 435.60 952.29 403.61 980.86 372.00 1009.00
C 401.58 994.81 430.30 977.86 460.00 964.00
C 410.32 1019.72 362.16 1076.28 314.00 1133.00
C 395.78 1075.37 476.02 1013.94 557.00 955.00
C 533.68 985.45 506.26 1013.68 483.00 1044.00
C 537.88 1003.30 592.44 962.28 647.00 921.00
C 618.31 950.89 588.72 982.24 560.00 1013.00
C 578.36 1003.95 589.85 992.04 608.92 982.92 C 627.99 973.80 654.17 975.95 675.98 971.98 C 697.78 968.00 722.42 966.04 745.00 963.00 C 767.58 959.96 791.11 956.85 814.00 954.00 C 836.89 951.15 859.82 947.42 882.99 944.99 C 906.16 942.56 928.55 938.03 952.00 936.00 C 975.45 933.97 998.17 928.33 1022.00 927.00 C 1045.82 925.67 1058.43 906.23 1053.93 883.07 C 1049.43 859.91 1047.74 838.01 1044.00 815.00 C 1040.26 791.99 1038.85 768.84 1035.00 746.00 C 1031.15 723.16 1029.37 699.87 1025.98 677.02 C 1022.58 654.18 1019.92 631.65 1016.00 609.00
C 1003.92 613.43 991.95 618.28 980.00 623.00
C 1018.81 594.99 1061.31 568.94 1100.00 542.00
C 1059.65 559.65 1019.16 577.13 979.00 595.00
C 989.72 575.66 1002.20 557.12 1013.00 538.00
C 988.26 555.48 965.45 575.95 941.00 594.00
C 982.34 537.45 1027.04 482.18 1069.00 426.00
C 1050.15 440.66 1032.17 457.16 1013.00 471.00
C 1063.23 411.10 1115.38 352.09 1165.00 292.00
C 1091.97 353.78 1019.01 416.10 945.00 476.00
C 961.98 448.20 979.21 420.32 995.00 392.00
C 976.04 410.37 958.80 430.52 941.00 450.00
C 875.13 418.15 807.20 389.69 742.00 356.00
C 741.73 355.55 741.60 357.45 742.00 358.00
C 796.80 396.47 851.39 435.13 906.00 474.00
C 887.97 473.74 868.06 468.33 849.07 466.93 C 830.09 465.52 809.96 459.74 791.02 458.98 C 772.09 458.21 769.83 437.84 760.30 424.70 C 750.77 411.55 743.25 398.78 731.75 387.25 C 720.25 375.72 709.87 365.32 697.23 355.77 C 684.59 346.22 672.08 337.85 658.70 329.30 C 645.32 320.76 631.31 312.39 617.23 304.77 C 603.15 297.15 588.91 288.81 574.69 281.31 C 560.48 273.80 545.53 266.70 531.00 260.00
C 581.60 312.41 625.61 370.38 649.00 438.00
C 589.54 402.16 531.38 362.96 472.00 327.00
C 506.04 356.81 537.35 390.39 572.00 420.00
M 663.00 342.00 
C 680.19 354.28 697.41 365.82 714.00 380.00
C 718.63 383.96 723.09 388.42 727.00 393.00
C 773.00 446.84 793.47 511.76 805.00 580.00
C 805.79 584.68 807.86 590.09 809.00 595.00
C 810.14 599.88 810.11 605.04 811.00 610.00
C 812.11 616.17 812.82 623.41 814.00 630.00
C 816.52 633.00 825.52 622.23 828.75 618.75 C 831.98 615.28 839.96 609.11 844.23 605.23 C 848.50 601.35 854.16 596.10 858.75 591.75 C 863.35 587.41 868.97 582.21 873.75 577.75 C 878.53 573.29 883.77 569.39 888.25 564.25 C 892.73 559.10 898.47 555.00 903.25 550.25 C 908.02 545.49 912.71 541.12 917.75 536.75 C 922.79 532.38 927.76 527.20 932.75 522.75 C 937.74 518.30 941.53 512.83 946.75 508.75 C 951.98 504.67 956.81 499.33 961.75 494.75 C 966.69 490.17 971.78 486.32 976.75 481.75 C 981.71 477.17 986.41 471.74 991.75 467.75 C 997.09 463.76 1001.65 459.17 1006.75 454.75 C 1011.84 450.32 1016.50 444.99 1021.75 440.75 C 1027.01 436.52 1031.58 430.99 1037.00 427.00
C 968.21 506.06 893.46 582.37 821.00 659.00
C 818.20 662.41 814.10 667.43 810.75 670.75 C 807.40 674.07 801.90 678.20 800.25 682.25 C 798.60 686.30 791.33 691.09 791.00 695.00
C 792.22 699.08 796.13 702.11 798.00 706.00
C 793.43 705.10 792.43 698.78 788.00 697.00
C 782.94 697.00 780.28 706.53 776.25 709.25 C 772.21 711.96 767.75 718.46 764.23 722.23 C 760.71 726.00 755.44 731.32 752.00 735.00
C 742.97 744.67 734.47 755.00 726.00 765.00
C 721.57 760.50 729.94 750.89 727.00 749.00
C 726.97 751.30 722.17 753.56 721.00 755.00
C 720.66 751.89 725.38 751.12 725.00 748.00
C 723.34 748.54 722.67 750.56 721.00 751.00
C 719.69 752.53 718.48 753.74 717.00 755.00
C 699.50 772.50 682.79 791.94 664.00 808.00
C 653.23 817.21 643.02 828.08 633.00 838.00
C 629.86 842.17 631.46 846.23 632.00 851.00
C 633.33 851.00 634.67 851.00 636.00 851.00
C 649.10 853.71 664.43 848.24 678.00 849.00 C 691.57 849.76 706.32 847.51 720.00 847.00 C 733.68 846.49 748.05 845.17 762.00 845.00 C 775.95 844.83 789.84 842.65 804.00 843.00 C 818.16 843.35 831.02 840.35 845.07 840.07 C 859.13 839.79 873.08 839.27 887.00 838.00 C 900.93 836.73 916.10 837.67 930.00 836.00
C 927.25 814.20 923.54 792.63 920.00 771.00
C 922.33 771.00 924.67 771.00 927.00 771.00
C 931.33 770.48 936.97 769.39 942.00 770.00
C 943.64 770.20 945.35 769.85 947.00 770.00
C 951.39 801.81 957.14 833.29 962.00 865.00
C 895.48 868.57 829.78 875.43 763.00 878.00
C 710.34 883.10 656.02 884.97 603.00 890.00
C 602.56 883.61 601.98 876.62 600.00 871.00
C 591.55 879.45 582.48 888.58 573.75 896.75 C 565.02 904.92 556.37 914.73 547.25 922.25 C 538.12 929.77 531.42 942.91 521.00 948.00
C 518.41 950.59 516.26 954.18 513.00 956.00
C 513.68 952.60 517.44 950.10 520.00 948.00
C 547.21 920.79 572.80 891.20 600.00 864.00
C 601.42 857.30 596.23 848.92 596.22 841.78 C 596.21 834.64 593.92 826.18 593.07 818.93 C 592.22 811.67 591.23 803.27 590.00 796.00
C 589.05 790.36 588.05 784.88 588.00 779.00
C 599.33 779.00 610.67 779.00 622.00 779.00
C 623.48 797.20 627.51 814.78 629.00 833.00
C 633.57 830.53 638.19 825.81 642.00 822.00
C 659.43 801.61 680.25 783.39 697.00 763.00
C 696.79 763.16 693.59 765.52 692.00 766.00
C 695.37 760.77 699.13 754.73 705.00 752.00
C 705.19 749.71 701.88 748.39 705.00 747.00
C 708.76 739.62 716.75 734.43 718.00 726.00
C 691.94 731.83 664.92 741.69 640.00 747.00
C 667.54 737.18 695.17 725.97 722.00 715.00
C 697.85 692.27 680.71 662.23 657.00 639.00
C 677.97 641.68 697.94 648.49 719.00 651.00
C 705.51 538.01 684.95 421.12 610.00 331.00
C 597.53 315.04 580.51 301.52 567.00 286.00
C 599.67 303.03 633.47 319.82 663.00 342.00
M 663.00 475.00 
C 638.24 471.29 616.47 468.24 591.00 466.00 C 565.53 463.76 544.18 459.63 517.78 457.22 C 491.38 454.81 471.60 451.80 443.00 450.00 C 414.40 448.20 415.00 480.94 418.98 504.02 C 422.96 527.11 423.18 554.84 426.00 579.00 C 428.82 603.16 430.49 629.48 432.98 654.02 C 435.46 678.57 437.30 704.49 440.00 729.00 C 442.70 753.52 445.51 778.82 446.00 803.00
C 439.63 793.40 442.17 778.42 440.00 766.00 C 437.83 753.58 437.63 740.00 435.67 727.33 C 433.71 714.66 433.48 700.87 432.00 688.00 C 430.52 675.13 429.35 661.89 428.00 649.00 C 426.65 636.11 423.82 624.02 423.01 610.99 C 422.19 597.96 420.30 584.89 419.02 571.98 C 417.75 559.06 416.39 545.83 415.00 533.00 C 413.61 520.17 411.78 506.82 411.00 494.00 C 410.22 481.18 405.62 467.97 409.32 455.32 C 413.02 442.68 425.81 439.60 438.00 441.00 C 450.19 442.40 463.51 444.58 476.01 445.99 C 488.51 447.41 501.46 449.49 514.07 450.93 C 526.68 452.37 539.74 453.97 552.22 455.78 C 564.71 457.59 577.91 458.36 590.07 460.93 C 602.24 463.49 617.22 462.16 629.00 465.00 C 640.78 467.84 659.27 463.05 663.00 475.00
M 672.00 466.00 
C 691.25 522.32 704.64 580.60 709.00 641.00
C 694.20 638.96 698.99 622.79 697.00 611.00 C 695.01 599.21 693.86 585.06 692.01 572.99 C 690.15 560.92 688.08 547.95 686.02 535.98 C 683.97 524.00 682.03 510.99 679.67 499.33 C 677.31 487.67 672.54 476.71 672.00 466.00
M 898.00 499.00 
C 889.94 502.86 880.62 499.01 871.78 498.22 C 862.94 497.43 852.85 496.07 844.00 495.00 C 835.15 493.94 824.59 493.52 816.00 492.00 C 807.41 490.48 795.01 491.63 791.00 485.00
C 826.45 490.16 863.25 492.56 898.00 499.00
M 704.00 707.00 
C 688.75 710.39 681.16 693.95 672.25 684.75 C 663.34 675.55 655.93 665.14 647.25 655.75 C 638.56 646.37 630.03 636.81 622.00 627.00
C 642.56 628.65 654.44 648.20 667.25 662.75 C 680.06 677.31 691.02 692.58 704.00 707.00
M 668.00 939.00 
C 676.71 930.11 689.71 932.58 702.00 931.00 C 714.29 929.42 727.72 928.09 740.22 926.22 C 752.73 924.35 767.03 924.31 779.67 922.67 C 792.31 921.03 804.95 918.97 817.67 917.67 C 830.40 916.38 842.40 914.94 855.02 913.02 C 867.65 911.11 881.46 911.40 894.00 909.00 C 906.54 906.60 919.31 905.83 932.00 904.00 C 944.69 902.17 958.36 901.89 971.00 900.00 C 983.65 898.11 995.54 898.71 1007.68 894.68 C 1019.81 890.65 1021.46 875.79 1020.00 864.00 C 1018.54 852.21 1017.83 837.18 1016.00 825.00 C 1014.18 812.82 1012.08 799.77 1010.67 787.33 C 1009.26 774.89 1006.94 762.62 1006.01 749.99 C 1005.07 737.36 1002.13 724.57 1001.00 712.00 C 999.87 699.42 997.27 686.14 996.22 673.78 C 995.17 661.42 991.58 647.65 994.00 637.00
C 998.55 656.53 1000.13 676.61 1002.98 697.02 C 1005.83 717.44 1007.86 737.34 1011.00 758.00 C 1014.14 778.66 1016.72 798.35 1019.33 819.67 C 1021.94 840.99 1026.75 857.97 1027.00 881.00 C 1027.25 904.03 1001.04 904.33 981.93 905.93 C 962.81 907.52 939.03 909.89 918.99 911.99 C 898.95 914.10 877.43 916.55 856.93 918.93 C 836.43 921.30 813.58 922.09 793.00 925.00 C 772.42 927.91 751.84 929.80 731.00 932.00 C 710.16 934.20 688.72 936.06 668.00 939.00
M 755.00 757.00 
C 762.19 747.89 770.32 740.64 777.75 731.75 C 785.18 722.86 792.23 714.49 800.23 706.23 C 808.23 697.97 814.70 689.52 822.75 680.75 C 830.80 671.99 836.96 659.00 850.00 659.00
C 856.02 658.42 863.29 658.00 870.00 658.00
C 870.50 658.00 871.50 658.03 872.00 658.00
C 873.33 657.91 874.67 658.07 876.00 658.00
C 847.89 708.25 818.26 758.56 789.00 808.00
C 777.81 791.29 762.66 776.80 752.00 760.00
C 753.20 759.33 754.58 758.36 755.00 757.00
M 748.00 768.00 
C 760.53 783.37 773.76 798.46 784.00 815.00
C 769.23 802.23 755.61 787.90 741.00 775.00
C 742.89 772.38 745.35 769.76 748.00 768.00 Z"/>
</g>
<g fill="None" fill-opacity="0.0" stroke="#ACACAB" stroke-opacity="1.00" stroke-width="0.3"><path d="
M 610.00 331.00 
C 634.37 348.20 650.70 375.45 669.30 399.70 C 687.91 423.95 703.43 456.66 715.00 485.00
C 711.11 465.59 700.96 443.73 692.23 424.77 C 683.50 405.82 673.02 387.63 661.25 370.75 C 649.47 353.87 636.26 339.23 622.00 324.00
C 637.52 330.30 651.47 341.03 667.00 347.00
C 666.89 344.42 661.11 343.93 663.00 342.00
C 633.47 319.82 599.67 303.03 567.00 286.00
C 580.51 301.52 597.53 315.04 610.00 331.00 Z"/>
</g>
<g fill="None" fill-opacity="0.0" stroke="#FCFCFC" stroke-opacity="1.00" stroke-width="0.3"><path d="
M 610.00 331.00 
C 684.95 421.12 705.51 538.01 719.00 651.00
C 697.94 648.49 677.97 641.68 657.00 639.00
C 680.71 662.23 697.85 692.27 722.00 715.00
C 722.39 714.79 723.00 715.00 723.00 715.00
C 724.64 715.77 724.00 715.07 725.00 715.00
C 726.44 710.03 716.14 704.55 714.25 699.75 C 712.36 694.95 706.05 688.77 703.23 683.77 C 700.41 678.77 694.79 674.49 691.75 669.25 C 688.72 664.00 683.90 658.47 681.00 653.00
C 693.87 657.83 707.56 657.59 720.08 663.92 C 732.60 670.26 742.02 659.15 752.23 652.23 C 762.44 645.31 771.43 638.40 781.25 631.25 C 791.07 624.10 803.05 618.43 811.00 610.00
C 810.11 605.04 810.14 599.88 809.00 595.00
C 805.61 591.00 798.30 600.58 794.25 602.25 C 790.20 603.93 783.54 609.19 779.25 612.25 C 774.96 615.31 768.34 618.38 763.77 621.77 C 759.20 625.16 753.01 628.40 748.00 631.00
C 765.86 613.02 788.64 598.94 805.00 580.00
C 793.47 511.76 773.00 446.84 727.00 393.00
C 722.75 388.75 718.20 384.20 714.00 380.00
C 697.41 365.82 680.19 354.28 663.00 342.00
C 661.11 343.93 666.89 344.42 667.00 347.00
C 651.47 341.03 637.52 330.30 622.00 324.00
C 636.26 339.23 649.47 353.87 661.25 370.75 C 673.02 387.63 683.50 405.82 692.23 424.77 C 700.96 443.73 711.11 465.59 715.00 485.00
C 703.43 456.66 687.91 423.95 669.30 399.70 C 650.70 375.45 634.37 348.20 610.00 331.00 Z"/>
</g>
<g fill="None" fill-opacity="0.0" stroke="#6A6A6A" stroke-opacity="1.00" stroke-width="0.3"><path d="
M 742.00 358.00 
C 741.60 357.45 741.73 355.55 742.00 356.00
C 739.63 354.74 736.73 352.93 734.00 352.00
C 735.74 354.95 739.20 356.19 742.00 358.00 Z"/>
</g>
<g fill="None" fill-opacity="0.0" stroke="#707070" stroke-opacity="1.00" stroke-width="0.3"><path d="
M 727.00 393.00 
C 723.09 388.42 718.63 383.96 714.00 380.00
C 718.20 384.20 722.75 388.75 727.00 393.00 Z"/>
</g>
<g fill="None" fill-opacity="0.0" stroke="#777776" stroke-opacity="1.00" stroke-width="0.3"><path d="
M 579.00 430.00 
C 579.50 431.76 581.72 430.72 583.00 431.00
C 579.97 426.94 575.88 423.31 572.00 420.00
C 573.94 421.94 580.37 431.14 579.00 430.00 Z"/>
</g>
<g fill="None" fill-opacity="0.0" stroke="#545454" stroke-opacity="1.00" stroke-width="0.3"><path d="
M 814.00 630.00 
C 814.22 631.21 814.65 631.84 815.00 633.00
C 815.78 635.58 815.74 638.23 816.00 641.00
C 824.00 635.03 831.20 626.67 839.00 620.00
C 863.46 599.10 885.11 574.53 908.75 552.75 C 932.39 530.98 955.55 507.45 978.00 485.00
C 983.03 479.97 987.71 473.05 994.00 470.00
C 986.65 479.29 977.91 488.07 969.00 496.00
C 945.78 523.17 918.93 547.18 894.25 573.25 C 869.57 599.32 844.48 625.53 819.00 651.00
C 818.20 654.20 821.09 656.89 821.00 659.00
C 893.46 582.37 968.21 506.06 1037.00 427.00
C 1031.58 430.99 1027.01 436.52 1021.75 440.75 C 1016.50 444.99 1011.84 450.32 1006.75 454.75 C 1001.65 459.17 997.09 463.76 991.75 467.75 C 986.41 471.74 981.71 477.17 976.75 481.75 C 971.78 486.32 966.69 490.17 961.75 494.75 C 956.81 499.33 951.98 504.67 946.75 508.75 C 941.53 512.83 937.74 518.30 932.75 522.75 C 927.76 527.20 922.79 532.38 917.75 536.75 C 912.71 541.12 908.02 545.49 903.25 550.25 C 898.47 555.00 892.73 559.10 888.25 564.25 C 883.77 569.39 878.53 573.29 873.75 577.75 C 868.97 582.21 863.35 587.41 858.75 591.75 C 854.16 596.10 848.50 601.35 844.23 605.23 C 839.96 609.11 831.98 615.28 828.75 618.75 C 825.52 622.23 816.52 633.00 814.00 630.00 Z"/>
</g>
<g fill="None" fill-opacity="0.0" stroke="#404040" stroke-opacity="1.00" stroke-width="0.3"><path d="
M 663.00 475.00 
C 659.27 463.05 640.78 467.84 629.00 465.00 C 617.22 462.16 602.24 463.49 590.07 460.93 C 577.91 458.36 564.71 457.59 552.22 455.78 C 539.74 453.97 526.68 452.37 514.07 450.93 C 501.46 449.49 488.51 447.41 476.01 445.99 C 463.51 444.58 450.19 442.40 438.00 441.00 C 425.81 439.60 413.02 442.68 409.32 455.32 C 405.62 467.97 410.22 481.18 411.00 494.00 C 411.78 506.82 413.61 520.17 415.00 533.00 C 416.39 545.83 417.75 559.06 419.02 571.98 C 420.30 584.89 422.19 597.96 423.01 610.99 C 423.82 624.02 426.65 636.11 428.00 649.00 C 429.35 661.89 430.52 675.13 432.00 688.00 C 433.48 700.87 433.71 714.66 435.67 727.33 C 437.63 740.00 437.83 753.58 440.00 766.00 C 442.17 778.42 439.63 793.40 446.00 803.00
C 445.51 778.82 442.70 753.52 440.00 729.00 C 437.30 704.49 435.46 678.57 432.98 654.02 C 430.49 629.48 428.82 603.16 426.00 579.00 C 423.18 554.84 422.96 527.11 418.98 504.02 C 415.00 480.94 414.40 448.20 443.00 450.00 C 471.60 451.80 491.38 454.81 517.78 457.22 C 544.18 459.63 565.53 463.76 591.00 466.00 C 616.47 468.24 638.24 471.29 663.00 475.00 Z"/>
</g>
<g fill="None" fill-opacity="0.0" stroke="#353334" stroke-opacity="1.00" stroke-width="0.3"><path d="
M 374.00 460.00 
C 374.11 459.11 374.93 458.40 375.00 458.00
C 375.09 455.18 373.33 452.94 374.00 450.00
C 371.31 452.31 373.77 457.59 374.00 460.00 Z"/>
</g>
<g fill="None" fill-opacity="0.0" stroke="#7C7978" stroke-opacity="1.00" stroke-width="0.3"><path d="
M 374.00 460.00 
C 373.65 462.88 374.79 465.85 375.00 468.00
C 375.05 467.65 375.98 467.20 376.00 467.00
C 375.56 463.93 375.39 461.15 375.00 458.00
C 374.93 458.40 374.11 459.11 374.00 460.00 Z"/>
</g>
<g fill="None" fill-opacity="0.0" stroke="#6D6C6C" stroke-opacity="1.00" stroke-width="0.3"><path d="
M 672.00 466.00 
C 672.54 476.71 677.31 487.67 679.67 499.33 C 682.03 510.99 683.97 524.00 686.02 535.98 C 688.08 547.95 690.15 560.92 692.01 572.99 C 693.86 585.06 695.01 599.21 697.00 611.00 C 698.99 622.79 694.20 638.96 709.00 641.00
C 704.64 580.60 691.25 522.32 672.00 466.00 Z"/>
</g>
<g fill="None" fill-opacity="0.0" stroke="#A8A6A4" stroke-opacity="1.00" stroke-width="0.3"><path d="
M 375.00 468.00 
C 373.72 476.92 377.21 486.85 378.00 495.00
C 378.08 493.58 378.90 491.83 379.00 491.00
C 377.83 482.99 377.14 475.01 376.00 467.00
C 375.98 467.20 375.05 467.65 375.00 468.00 Z"/>
</g>
<g fill="None" fill-opacity="0.0" stroke="#848484" stroke-opacity="1.00" stroke-width="0.3"><path d="
M 978.00 485.00 
C 976.31 487.62 971.95 492.55 969.00 496.00
C 977.91 488.07 986.65 479.29 994.00 470.00
C 987.71 473.05 983.03 479.97 978.00 485.00 Z"/>
</g>
<g fill="None" fill-opacity="0.0" stroke="#3C3C3C" stroke-opacity="1.00" stroke-width="0.3"><path d="
M 898.00 499.00 
C 863.25 492.56 826.45 490.16 791.00 485.00
C 795.01 491.63 807.41 490.48 816.00 492.00 C 824.59 493.52 835.15 493.94 844.00 495.00 C 852.85 496.07 862.94 497.43 871.78 498.22 C 880.62 499.01 889.94 502.86 898.00 499.00 Z"/>
</g>
<g fill="None" fill-opacity="0.0" stroke="#F4F4F4" stroke-opacity="1.00" stroke-width="0.3"><path d="
M 839.00 620.00 
C 831.72 627.28 824.67 635.18 817.00 642.00
C 811.56 646.84 803.86 655.71 798.25 660.25 C 792.64 664.78 782.56 678.03 780.00 669.00
C 777.51 669.68 778.01 673.00 776.00 674.00
C 772.36 672.84 769.80 669.55 766.00 669.00
C 767.56 672.77 774.24 674.53 772.00 679.00
C 766.76 679.62 760.60 679.37 756.00 681.00
C 756.50 680.96 757.00 681.00 757.00 681.00
C 762.62 680.39 771.09 682.02 774.00 684.00
C 763.37 697.71 749.45 709.78 737.00 722.00
C 733.59 725.41 730.10 729.38 727.00 733.00
C 723.02 737.66 718.21 741.71 714.00 746.00
C 713.04 747.16 712.00 748.02 711.00 749.00
C 706.59 753.32 700.84 758.33 697.00 763.00
C 680.25 783.39 659.43 801.61 642.00 822.00
C 640.13 824.18 631.03 835.50 629.00 833.00
C 627.51 814.78 623.48 797.20 622.00 779.00
C 610.67 779.00 599.33 779.00 588.00 779.00
C 588.05 784.88 589.05 790.36 590.00 796.00
C 593.74 803.48 603.50 808.40 608.25 815.75 C 613.00 823.11 620.23 830.48 626.00 837.00
C 619.22 846.90 608.74 855.46 600.00 864.00
C 572.80 891.20 547.21 920.79 520.00 948.00
C 520.40 947.80 521.00 948.00 521.00 948.00
C 531.42 942.91 538.12 929.77 547.25 922.25 C 556.37 914.73 565.02 904.92 573.75 896.75 C 582.48 888.58 591.55 879.45 600.00 871.00
C 611.01 859.99 622.54 848.36 633.00 838.00
C 643.02 828.08 653.23 817.21 664.00 808.00
C 681.50 790.50 698.21 771.05 717.00 755.00
C 718.48 753.74 719.69 752.53 721.00 751.00
C 722.56 749.18 724.38 747.62 726.00 746.00
C 729.92 742.08 734.13 737.87 738.00 734.00
C 746.25 725.75 754.21 717.51 763.00 710.00
C 769.14 703.86 775.10 696.31 783.00 693.00
C 783.47 694.88 781.94 697.93 784.00 699.00
C 785.58 697.54 786.72 696.65 788.00 697.00
C 792.43 698.78 793.43 705.10 798.00 706.00
C 796.13 702.11 792.22 699.08 791.00 695.00
C 789.63 690.42 787.64 681.88 795.00 680.00
C 787.10 679.20 798.53 671.43 802.75 666.75 C 806.98 662.07 814.14 655.28 819.00 651.00
C 844.48 625.53 869.57 599.32 894.25 573.25 C 918.93 547.18 945.78 523.17 969.00 496.00
C 971.95 492.55 976.31 487.62 978.00 485.00
C 955.55 507.45 932.39 530.98 908.75 552.75 C 885.11 574.53 863.46 599.10 839.00 620.00 Z"/>
</g>
<g fill="None" fill-opacity="0.0" stroke="#A7A7A7" stroke-opacity="1.00" stroke-width="0.3"><path d="
M 809.00 595.00 
C 807.86 590.09 805.79 584.68 805.00 580.00
C 788.64 598.94 765.86 613.02 748.00 631.00
C 753.01 628.40 759.20 625.16 763.77 621.77 C 768.34 618.38 774.96 615.31 779.25 612.25 C 783.54 609.19 790.20 603.93 794.25 602.25 C 798.30 600.58 805.61 591.00 809.00 595.00 Z"/>
</g>
<g fill="None" fill-opacity="0.0" stroke="#A6A6A6" stroke-opacity="1.00" stroke-width="0.3"><path d="
M 725.00 715.00 
C 742.24 713.75 755.01 695.82 769.00 688.00
C 765.71 684.75 760.51 683.62 757.00 681.00
C 757.00 681.00 756.50 680.96 756.00 681.00
C 754.17 681.14 751.54 681.25 751.00 679.00
C 755.00 679.00 759.00 679.00 763.00 679.00
C 760.92 676.62 765.38 677.07 766.00 675.00
C 765.17 671.17 764.05 667.78 761.00 665.00
C 766.85 667.01 774.39 668.21 773.00 660.00
C 779.99 672.86 786.51 660.06 793.75 653.75 C 801.00 647.45 807.47 638.06 815.00 633.00
C 814.65 631.84 814.22 631.21 814.00 630.00
C 812.82 623.41 812.11 616.17 811.00 610.00
C 803.05 618.43 791.07 624.10 781.25 631.25 C 771.43 638.40 762.44 645.31 752.23 652.23 C 742.02 659.15 732.60 670.26 720.08 663.92 C 707.56 657.59 693.87 657.83 681.00 653.00
C 683.90 658.47 688.72 664.00 691.75 669.25 C 694.79 674.49 700.41 678.77 703.23 683.77 C 706.05 688.77 712.36 694.95 714.25 699.75 C 716.14 704.55 726.44 710.03 725.00 715.00 Z"/>
</g>
<g fill="None" fill-opacity="0.0" stroke="#848483" stroke-opacity="1.00" stroke-width="0.3"><path d="
M 816.00 641.00 
C 816.03 641.35 816.71 642.06 817.00 642.00
C 824.67 635.18 831.72 627.28 839.00 620.00
C 831.20 626.67 824.00 635.03 816.00 641.00 Z"/>
</g>
<g fill="None" fill-opacity="0.0" stroke="#646464" stroke-opacity="1.00" stroke-width="0.3"><path d="
M 704.00 707.00 
C 691.02 692.58 680.06 677.31 667.25 662.75 C 654.44 648.20 642.56 628.65 622.00 627.00
C 630.03 636.81 638.56 646.37 647.25 655.75 C 655.93 665.14 663.34 675.55 672.25 684.75 C 681.16 693.95 688.75 710.39 704.00 707.00 Z"/>
</g>
<g fill="None" fill-opacity="0.0" stroke="#C7C7C7" stroke-opacity="1.00" stroke-width="0.3"><path d="
M 756.00 681.00 
C 760.60 679.37 766.76 679.62 772.00 679.00
C 774.24 674.53 767.56 672.77 766.00 669.00
C 769.80 669.55 772.36 672.84 776.00 674.00
C 778.01 673.00 777.51 669.68 780.00 669.00
C 782.56 678.03 792.64 664.78 798.25 660.25 C 803.86 655.71 811.56 646.84 817.00 642.00
C 816.71 642.06 816.03 641.35 816.00 641.00
C 815.74 638.23 815.78 635.58 815.00 633.00
C 807.47 638.06 801.00 647.45 793.75 653.75 C 786.51 660.06 779.99 672.86 773.00 660.00
C 774.39 668.21 766.85 667.01 761.00 665.00
C 764.05 667.78 765.17 671.17 766.00 675.00
C 765.38 677.07 760.92 676.62 763.00 679.00
C 759.00 679.00 755.00 679.00 751.00 679.00
C 751.54 681.25 754.17 681.14 756.00 681.00 Z"/>
</g>
<g fill="None" fill-opacity="0.0" stroke="#3F3E3E" stroke-opacity="1.00" stroke-width="0.3"><path d="
M 668.00 939.00 
C 688.72 936.06 710.16 934.20 731.00 932.00 C 751.84 929.80 772.42 927.91 793.00 925.00 C 813.58 922.09 836.43 921.30 856.93 918.93 C 877.43 916.55 898.95 914.10 918.99 911.99 C 939.03 909.89 962.81 907.52 981.93 905.93 C 1001.04 904.33 1027.25 904.03 1027.00 881.00 C 1026.75 857.97 1021.94 840.99 1019.33 819.67 C 1016.72 798.35 1014.14 778.66 1011.00 758.00 C 1007.86 737.34 1005.83 717.44 1002.98 697.02 C 1000.13 676.61 998.55 656.53 994.00 637.00
C 991.58 647.65 995.17 661.42 996.22 673.78 C 997.27 686.14 999.87 699.42 1001.00 712.00 C 1002.13 724.57 1005.07 737.36 1006.01 749.99 C 1006.94 762.62 1009.26 774.89 1010.67 787.33 C 1012.08 799.77 1014.18 812.82 1016.00 825.00 C 1017.83 837.18 1018.54 852.21 1020.00 864.00 C 1021.46 875.79 1019.81 890.65 1007.68 894.68 C 995.54 898.71 983.65 898.11 971.00 900.00 C 958.36 901.89 944.69 902.17 932.00 904.00 C 919.31 905.83 906.54 906.60 894.00 909.00 C 881.46 911.40 867.65 911.11 855.02 913.02 C 842.40 914.94 830.40 916.38 817.67 917.67 C 804.95 918.97 792.31 921.03 779.67 922.67 C 767.03 924.31 752.73 924.35 740.22 926.22 C 727.72 928.09 714.29 929.42 702.00 931.00 C 689.71 932.58 676.71 930.11 668.00 939.00 Z"/>
</g>
<g fill="None" fill-opacity="0.0" stroke="#CBCBCB" stroke-opacity="1.00" stroke-width="0.3"><path d="
M 791.00 695.00 
C 791.33 691.09 798.60 686.30 800.25 682.25 C 801.90 678.20 807.40 674.07 810.75 670.75 C 814.10 667.43 818.20 662.41 821.00 659.00
C 821.09 656.89 818.20 654.20 819.00 651.00
C 814.14 655.28 806.98 662.07 802.75 666.75 C 798.53 671.43 787.10 679.20 795.00 680.00
C 787.64 681.88 789.63 690.42 791.00 695.00 Z"/>
</g>
<g fill="None" fill-opacity="0.0" stroke="#5B5C5C" stroke-opacity="1.00" stroke-width="0.3"><path d="
M 850.00 659.00 
C 856.20 659.00 864.73 660.24 870.00 658.00
C 863.29 658.00 856.02 658.42 850.00 659.00 Z"/>
</g>
<g fill="None" fill-opacity="0.0" stroke="#A4A4A3" stroke-opacity="1.00" stroke-width="0.3"><path d="
M 850.00 659.00 
C 836.96 659.00 830.80 671.99 822.75 680.75 C 814.70 689.52 808.23 697.97 800.23 706.23 C 792.23 714.49 785.18 722.86 777.75 731.75 C 770.32 740.64 762.19 747.89 755.00 757.00
C 760.72 750.81 768.36 746.34 774.25 740.25 C 780.14 734.15 787.63 729.54 793.75 723.75 C 799.86 717.95 807.26 713.07 813.25 707.25 C 819.24 701.42 826.83 696.20 832.75 690.75 C 838.67 685.30 847.36 680.21 852.25 674.25 C 857.14 668.29 869.81 665.42 872.00 658.00
C 871.50 658.03 870.50 658.00 870.00 658.00
C 864.73 660.24 856.20 659.00 850.00 659.00 Z"/>
</g>
<g fill="None" fill-opacity="0.0" stroke="#FBFBFB" stroke-opacity="1.00" stroke-width="0.3"><path d="
M 755.00 757.00 
C 754.58 758.36 753.20 759.33 752.00 760.00
C 762.66 776.80 777.81 791.29 789.00 808.00
C 818.26 758.56 847.89 708.25 876.00 658.00
C 874.67 658.07 873.33 657.91 872.00 658.00
C 869.81 665.42 857.14 668.29 852.25 674.25 C 847.36 680.21 838.67 685.30 832.75 690.75 C 826.83 696.20 819.24 701.42 813.25 707.25 C 807.26 713.07 799.86 717.95 793.75 723.75 C 787.63 729.54 780.14 734.15 774.25 740.25 C 768.36 746.34 760.72 750.81 755.00 757.00 Z"/>
</g>
<g fill="None" fill-opacity="0.0" stroke="#C6C6C6" stroke-opacity="1.00" stroke-width="0.3"><path d="
M 725.00 715.00 
C 724.00 715.07 724.64 715.77 723.00 715.00
C 725.67 718.73 736.79 717.01 737.00 722.00
C 749.45 709.78 763.37 697.71 774.00 684.00
C 771.09 682.02 762.62 680.39 757.00 681.00
C 760.51 683.62 765.71 684.75 769.00 688.00
C 755.01 695.82 742.24 713.75 725.00 715.00 Z"/>
</g>
<g fill="None" fill-opacity="0.0" stroke="#BCBDBD" stroke-opacity="1.00" stroke-width="0.3"><path d="
M 763.00 710.00 
C 765.81 707.60 769.02 705.12 771.00 702.00
C 775.26 703.49 781.86 704.27 784.00 699.00
C 781.94 697.93 783.47 694.88 783.00 693.00
C 775.10 696.31 769.14 703.86 763.00 710.00 Z"/>
</g>
<g fill="None" fill-opacity="0.0" stroke="#9C9C9C" stroke-opacity="1.00" stroke-width="0.3"><path d="
M 784.00 699.00 
C 781.86 704.27 775.26 703.49 771.00 702.00
C 769.02 705.12 765.81 707.60 763.00 710.00
C 754.21 717.51 746.25 725.75 738.00 734.00
C 740.97 733.75 743.30 738.23 745.00 740.00
C 747.91 739.25 749.51 736.39 752.00 735.00
C 755.44 731.32 760.71 726.00 764.23 722.23 C 767.75 718.46 772.21 711.96 776.25 709.25 C 780.28 706.53 782.94 697.00 788.00 697.00
C 786.72 696.65 785.58 697.54 784.00 699.00 Z"/>
</g>
<g fill="None" fill-opacity="0.0" stroke="#6D6D6C" stroke-opacity="1.00" stroke-width="0.3"><path d="
M 705.00 747.00 
C 705.57 746.67 711.21 746.61 713.00 746.00
C 712.70 747.25 711.17 747.71 711.00 749.00
C 712.00 748.02 713.04 747.16 714.00 746.00
C 717.92 741.28 722.74 737.26 727.00 733.00
C 730.10 729.38 733.59 725.41 737.00 722.00
C 736.79 717.01 725.67 718.73 723.00 715.00
C 723.00 715.00 722.39 714.79 722.00 715.00
C 695.17 725.97 667.54 737.18 640.00 747.00
C 664.92 741.69 691.94 731.83 718.00 726.00
C 716.75 734.43 708.76 739.62 705.00 747.00 Z"/>
</g>
<g fill="None" fill-opacity="0.0" stroke="#ABABAB" stroke-opacity="1.00" stroke-width="0.3"><path d="
M 714.00 746.00 
C 718.21 741.71 723.02 737.66 727.00 733.00
C 722.74 737.26 717.92 741.28 714.00 746.00 Z"/>
</g>
<g fill="None" fill-opacity="0.0" stroke="#808080" stroke-opacity="1.00" stroke-width="0.3"><path d="
M 726.00 746.00 
C 725.74 747.75 726.32 747.89 727.00 749.00
C 729.94 750.89 721.57 760.50 726.00 765.00
C 734.47 755.00 742.97 744.67 752.00 735.00
C 749.51 736.39 747.91 739.25 745.00 740.00
C 743.30 738.23 740.97 733.75 738.00 734.00
C 734.13 737.87 729.92 742.08 726.00 746.00 Z"/>
</g>
<g fill="None" fill-opacity="0.0" stroke="#2C2C2C" stroke-opacity="1.00" stroke-width="0.3"><path d="
M 705.00 747.00 
C 701.88 748.39 705.19 749.71 705.00 752.00
C 699.13 754.73 695.37 760.77 692.00 766.00
C 693.59 765.52 696.79 763.16 697.00 763.00
C 700.84 758.33 706.59 753.32 711.00 749.00
C 711.17 747.71 712.70 747.25 713.00 746.00
C 711.21 746.61 705.57 746.67 705.00 747.00 Z"/>
</g>
<g fill="None" fill-opacity="0.0" stroke="#434343" stroke-opacity="1.00" stroke-width="0.3"><path d="
M 721.00 751.00 
C 722.67 750.56 723.34 748.54 725.00 748.00
C 725.38 751.12 720.66 751.89 721.00 755.00
C 722.17 753.56 726.97 751.30 727.00 749.00
C 726.32 747.89 725.74 747.75 726.00 746.00
C 724.38 747.62 722.56 749.18 721.00 751.00 Z"/>
</g>
<g fill="None" fill-opacity="0.0" stroke="#838383" stroke-opacity="1.00" stroke-width="0.3"><path d="
M 664.00 808.00 
C 682.79 791.94 699.50 772.50 717.00 755.00
C 698.21 771.05 681.50 790.50 664.00 808.00 Z"/>
</g>
<g fill="None" fill-opacity="0.0" stroke="#616161" stroke-opacity="1.00" stroke-width="0.3"><path d="
M 748.00 768.00 
C 745.35 769.76 742.89 772.38 741.00 775.00
C 755.61 787.90 769.23 802.23 784.00 815.00
C 773.76 798.46 760.53 783.37 748.00 768.00 Z"/>
</g>
<g fill="None" fill-opacity="0.0" stroke="#6B6C6C" stroke-opacity="1.00" stroke-width="0.3"><path d="
M 927.00 771.00 
C 931.69 770.91 938.15 769.91 942.00 770.00
C 936.97 769.39 931.33 770.48 927.00 771.00 Z"/>
</g>
<g fill="None" fill-opacity="0.0" stroke="#FAFAF9" stroke-opacity="1.00" stroke-width="0.3"><path d="
M 927.00 771.00 
C 924.67 771.00 922.33 771.00 920.00 771.00
C 923.54 792.63 927.25 814.20 930.00 836.00
C 916.10 837.67 900.93 836.73 887.00 838.00 C 873.08 839.27 859.13 839.79 845.07 840.07 C 831.02 840.35 818.16 843.35 804.00 843.00 C 789.84 842.65 775.95 844.83 762.00 845.00 C 748.05 845.17 733.68 846.49 720.00 847.00 C 706.32 847.51 691.57 849.76 678.00 849.00 C 664.43 848.24 649.10 853.71 636.00 851.00
C 654.16 860.08 679.09 859.98 699.22 864.78 C 719.35 869.58 742.41 875.70 763.00 878.00
C 829.78 875.43 895.48 868.57 962.00 865.00
C 957.14 833.29 951.39 801.81 947.00 770.00
C 945.35 769.85 943.64 770.20 942.00 770.00
C 938.15 769.91 931.69 770.91 927.00 771.00 Z"/>
</g>
<g fill="None" fill-opacity="0.0" stroke="#9C9C9C" stroke-opacity="1.00" stroke-width="0.3"><path d="
M 514.00 802.00 
C 514.33 801.99 514.85 803.01 515.00 803.00
C 518.10 800.53 523.63 799.58 525.00 796.00
C 521.06 797.41 517.52 800.26 514.00 802.00 Z"/>
</g>
<g fill="None" fill-opacity="0.0" stroke="#9F9F9F" stroke-opacity="1.00" stroke-width="0.3"><path d="
M 600.00 864.00 
C 608.74 855.46 619.22 846.90 626.00 837.00
C 620.23 830.48 613.00 823.11 608.25 815.75 C 603.50 808.40 593.74 803.48 590.00 796.00
C 591.23 803.27 592.22 811.67 593.07 818.93 C 593.92 826.18 596.21 834.64 596.22 841.78 C 596.23 848.92 601.42 857.30 600.00 864.00 Z"/>
</g>
<g fill="None" fill-opacity="0.0" stroke="#7F7F7F" stroke-opacity="1.00" stroke-width="0.3"><path d="
M 629.00 833.00 
C 631.03 835.50 640.13 824.18 642.00 822.00
C 638.19 825.81 633.57 830.53 629.00 833.00 Z"/>
</g>
<g fill="None" fill-opacity="0.0" stroke="#9D9D9D" stroke-opacity="1.00" stroke-width="0.3"><path d="
M 600.00 871.00 
C 601.98 876.62 602.56 883.61 603.00 890.00
C 656.02 884.97 710.34 883.10 763.00 878.00
C 742.41 875.70 719.35 869.58 699.22 864.78 C 679.09 859.98 654.16 860.08 636.00 851.00
C 634.67 851.00 633.33 851.00 632.00 851.00
C 631.46 846.23 629.86 842.17 633.00 838.00
C 622.54 848.36 611.01 859.99 600.00 871.00 Z"/>
</g>
<g fill="None" fill-opacity="0.0" stroke="#727272" stroke-opacity="1.00" stroke-width="0.3"><path d="
M 521.00 948.00 
C 521.00 948.00 520.40 947.80 520.00 948.00
C 517.44 950.10 513.68 952.60 513.00 956.00
C 516.26 954.18 518.41 950.59 521.00 948.00 Z"/>
</g>
<g fill="None" fill-opacity="0.0" stroke="#000101" stroke-opacity="1.00" stroke-width="0.3"><path d="
M 989.00 1062.00 
C 979.00 1060.96 964.75 1059.99 966.00 1072.00 C 967.25 1084.01 963.32 1090.27 963.00 1101.00 C 962.68 1111.73 960.99 1120.79 959.99 1130.99 C 958.99 1141.19 957.43 1149.81 957.00 1160.00
C 963.48 1158.13 978.90 1164.90 977.00 1154.00
C 989.02 1162.25 1004.77 1163.53 1018.93 1159.93 C 1033.08 1156.32 1037.84 1141.93 1039.00 1129.00 C 1040.16 1116.07 1042.92 1096.35 1028.02 1090.98 C 1013.13 1085.60 999.16 1088.33 985.00 1093.00
C 987.20 1082.87 986.75 1072.09 989.00 1062.00
M 1010.00 1107.00 
C 1020.20 1109.11 1019.60 1124.83 1016.02 1134.02 C 1012.45 1143.22 1001.79 1145.91 990.00 1143.00 C 978.21 1140.09 982.49 1128.22 983.00 1117.00 C 983.50 1105.77 999.22 1104.77 1010.00 1107.00 Z"/>
</g>
<g fill="None" fill-opacity="0.0" stroke="#000000" stroke-opacity="1.00" stroke-width="0.3"><path d="
M 612.00 1125.00 
C 608.65 1115.52 604.93 1107.94 601.78 1098.22 C 598.63 1088.51 594.76 1082.78 591.78 1072.22 C 588.79 1061.67 573.24 1065.28 563.00 1065.00
C 560.04 1096.77 555.04 1128.01 553.00 1160.00
C 563.99 1161.56 574.90 1161.31 574.02 1150.02 C 573.15 1138.73 577.58 1133.27 577.01 1123.01 C 576.44 1112.75 580.76 1106.42 581.00 1097.00
C 587.56 1113.73 594.99 1130.12 601.00 1147.00
C 611.48 1149.87 620.17 1145.59 624.23 1137.23 C 628.29 1128.87 632.91 1124.70 637.23 1117.23 C 641.55 1109.76 645.94 1104.47 650.00 1097.00
C 649.60 1116.97 644.96 1138.99 644.00 1160.00
C 651.00 1160.00 658.00 1160.00 665.00 1160.00
C 667.93 1128.22 672.10 1096.76 675.00 1065.00
C 663.15 1063.74 647.90 1063.26 643.31 1074.31 C 638.71 1085.35 632.89 1090.12 627.77 1099.77 C 622.65 1109.42 617.22 1115.89 612.00 1125.00 Z"/>
</g>
<g fill="None" fill-opacity="0.0" stroke="#000101" stroke-opacity="1.00" stroke-width="0.3"><path d="
M 773.00 1083.00 
C 777.68 1083.80 785.65 1081.93 790.00 1083.00 C 794.35 1084.07 803.54 1080.49 806.00 1084.00
C 804.55 1109.65 799.98 1134.51 798.00 1160.00
C 805.33 1160.00 812.67 1160.00 820.00 1160.00
C 820.02 1153.61 820.91 1147.06 822.00 1141.00 C 823.09 1134.94 822.66 1127.83 824.00 1122.00 C 825.34 1116.17 823.83 1108.22 826.00 1103.00 C 828.17 1097.78 824.43 1087.94 828.00 1084.00
C 831.30 1080.36 839.66 1084.87 844.00 1083.00 C 848.34 1081.13 858.21 1085.74 862.00 1083.00
C 863.16 1077.11 864.07 1071.18 864.00 1065.00
C 834.00 1065.00 804.00 1065.00 774.00 1065.00
C 776.57 1069.93 769.84 1078.49 773.00 1083.00 Z"/>
</g>
<g fill="None" fill-opacity="0.0" stroke="#6F7070" stroke-opacity="1.00" stroke-width="0.3"><path d="
M 806.00 1084.00 
C 803.54 1080.49 794.35 1084.07 790.00 1083.00 C 785.65 1081.93 777.68 1083.80 773.00 1083.00
C 775.46 1086.51 784.65 1082.93 789.00 1084.00 C 793.35 1085.07 801.32 1083.20 806.00 1084.00 Z"/>
</g>
<g fill="None" fill-opacity="0.0" stroke="#5C5D5C" stroke-opacity="1.00" stroke-width="0.3"><path d="
M 828.00 1084.00 
C 833.19 1083.28 841.08 1084.96 846.00 1084.00 C 850.92 1083.04 858.69 1086.41 862.00 1083.00
C 858.21 1085.74 848.34 1081.13 844.00 1083.00 C 839.66 1084.87 831.30 1080.36 828.00 1084.00 Z"/>
</g>
<g fill="None" fill-opacity="0.0" stroke="#7D7D7D" stroke-opacity="1.00" stroke-width="0.3"><path d="
M 1084.00 1089.00 
C 1089.99 1089.00 1096.02 1088.77 1102.00 1089.00
C 1096.32 1088.19 1089.71 1088.45 1084.00 1089.00 Z"/>
</g>
<g fill="None" fill-opacity="0.0" stroke="#878787" stroke-opacity="1.00" stroke-width="0.3"><path d="
M 684.00 1090.00 
C 691.33 1090.00 698.67 1090.00 706.00 1090.00
C 704.11 1088.15 685.54 1087.54 684.00 1090.00 Z"/>
</g>
<g fill="None" fill-opacity="0.0" stroke="#8E8E8E" stroke-opacity="1.00" stroke-width="0.3"><path d="
M 745.00 1090.00 
C 752.00 1090.00 759.00 1090.00 766.00 1090.00
C 764.47 1087.51 747.09 1088.25 745.00 1090.00 Z"/>
</g>
<g fill="None" fill-opacity="0.0" stroke="#000100" stroke-opacity="1.00" stroke-width="0.3"><path d="
M 1102.00 1089.00 
C 1096.02 1088.77 1089.99 1089.00 1084.00 1089.00
C 1055.96 1086.62 1042.81 1118.34 1049.22 1143.78 C 1055.64 1169.21 1099.53 1160.77 1119.00 1158.00
C 1119.66 1152.66 1119.72 1147.17 1121.00 1142.00
C 1113.62 1144.16 1099.14 1143.89 1092.00 1144.00 C 1084.86 1144.11 1069.73 1144.59 1070.01 1136.01 C 1070.29 1127.43 1088.89 1133.46 1096.00 1132.00 C 1103.11 1130.54 1118.17 1133.09 1126.00 1132.00
C 1130.36 1110.24 1126.81 1089.95 1102.00 1089.00
M 1106.00 1118.00 
C 1104.13 1120.68 1092.31 1119.00 1089.00 1119.00 C 1085.69 1119.00 1073.71 1120.68 1072.00 1118.00
C 1069.73 1114.45 1076.04 1107.32 1080.23 1106.23 C 1084.41 1105.14 1093.45 1105.51 1098.07 1105.93 C 1102.70 1106.34 1110.21 1111.98 1106.00 1118.00 Z"/>
</g>
<g fill="None" fill-opacity="0.0" stroke="#010101" stroke-opacity="1.00" stroke-width="0.3"><path d="
M 766.00 1090.00 
C 759.00 1090.00 752.00 1090.00 745.00 1090.00
C 737.94 1107.33 727.43 1123.45 721.00 1141.00
C 716.94 1136.91 718.33 1129.11 715.78 1124.22 C 713.22 1119.33 713.40 1111.62 710.93 1107.07 C 708.46 1102.53 709.33 1093.26 706.00 1090.00
C 698.67 1090.00 691.33 1090.00 684.00 1090.00
C 688.42 1100.97 690.03 1111.57 694.22 1122.78 C 698.42 1133.98 699.91 1142.35 705.02 1153.98 C 710.14 1165.60 697.75 1176.20 685.00 1170.00
C 687.06 1173.62 676.77 1185.45 683.00 1187.00 C 689.23 1188.55 697.37 1189.39 704.33 1187.33 C 711.28 1185.26 712.59 1186.20 718.75 1178.75 C 724.91 1171.30 730.64 1158.52 735.08 1150.08 C 739.51 1141.63 739.54 1141.27 743.08 1135.08 C 746.61 1128.88 747.93 1124.77 750.75 1119.75 C 753.56 1114.72 757.48 1109.05 758.70 1104.70 C 759.91 1100.34 768.07 1093.37 766.00 1090.00 Z"/>
</g>
<g fill="None" fill-opacity="0.0" stroke="#000000" stroke-opacity="1.00" stroke-width="0.3"><path d="
M 886.00 1161.00 
C 890.27 1161.23 894.73 1161.16 899.00 1161.00
C 907.03 1161.38 913.94 1157.73 921.00 1155.00
C 918.41 1161.42 938.06 1163.32 940.22 1158.22 C 942.38 1153.12 941.14 1142.09 942.67 1135.67 C 944.20 1129.25 943.78 1119.96 945.00 1113.00 C 946.22 1106.04 946.00 1097.14 947.00 1090.00
C 940.00 1090.00 933.00 1090.00 926.00 1090.00
C 925.07 1106.87 921.70 1123.10 921.00 1140.00
C 911.90 1144.55 887.28 1148.49 888.01 1133.01 C 888.73 1117.53 891.47 1105.04 893.00 1090.00
C 883.53 1089.52 871.05 1087.62 870.93 1097.93 C 870.80 1108.23 868.26 1114.48 867.78 1123.78 C 867.30 1133.08 864.84 1141.72 868.03 1149.97 C 871.21 1158.22 877.82 1160.56 886.00 1161.00 Z"/>
</g>
<g fill="None" fill-opacity="0.0" stroke="#F7F7F7" stroke-opacity="1.00" stroke-width="0.3"><path d="
M 1072.00 1118.00 
C 1083.33 1118.00 1094.67 1118.00 1106.00 1118.00
C 1110.21 1111.98 1102.70 1106.34 1098.07 1105.93 C 1093.45 1105.51 1084.41 1105.14 1080.23 1106.23 C 1076.04 1107.32 1069.73 1114.45 1072.00 1118.00 Z"/>
</g>
<g fill="None" fill-opacity="0.0" stroke="#F9F9F9" stroke-opacity="1.00" stroke-width="0.3"><path d="
M 1010.00 1107.00 
C 999.22 1104.77 983.50 1105.77 983.00 1117.00 C 982.49 1128.22 978.21 1140.09 990.00 1143.00 C 1001.79 1145.91 1012.45 1143.22 1016.02 1134.02 C 1019.60 1124.83 1020.20 1109.11 1010.00 1107.00 Z"/>
</g>
<g fill="None" fill-opacity="0.0" stroke="#7D7E7E" stroke-opacity="1.00" stroke-width="0.3"><path d="
M 1106.00 1118.00 
C 1094.67 1118.00 1083.33 1118.00 1072.00 1118.00
C 1073.71 1120.68 1085.69 1119.00 1089.00 1119.00 C 1092.31 1119.00 1104.13 1120.68 1106.00 1118.00 Z"/>
</g>
<g fill="None" fill-opacity="0.0" stroke="#626262" stroke-opacity="1.00" stroke-width="0.3"><path d="
M 899.00 1161.00 
C 894.73 1161.16 890.27 1161.23 886.00 1161.00
C 890.24 1161.69 894.71 1161.61 899.00 1161.00 Z"/>
</g>
<g fill="#FEFEFE" fill-opacity="1.00" stroke="None">
<path d="
M 0.00 1600.00 
L 1600.00 1600.00
L 1600.00 0.00
L 0.00 0.00
L 0.00 1600.00
M 742.00 358.00 
C 739.20 356.19 735.74 354.95 734.00 352.00
C 736.73 352.93 739.63 354.74 742.00 356.00
C 807.20 389.69 875.13 418.15 941.00 450.00
C 958.80 430.52 976.04 410.37 995.00 392.00
C 979.21 420.32 961.98 448.20 945.00 476.00
C 1019.01 416.10 1091.97 353.78 1165.00 292.00
C 1115.38 352.09 1063.23 411.10 1013.00 471.00
C 1032.17 457.16 1050.15 440.66 1069.00 426.00
C 1027.04 482.18 982.34 537.45 941.00 594.00
C 965.45 575.95 988.26 555.48 1013.00 538.00
C 1002.20 557.12 989.72 575.66 979.00 595.00
C 1019.16 577.13 1059.65 559.65 1100.00 542.00
C 1061.31 568.94 1018.81 594.99 980.00 623.00
C 991.95 618.28 1003.92 613.43 1016.00 609.00
C 1019.92 631.65 1022.58 654.18 1025.98 677.02 C 1029.37 699.87 1031.15 723.16 1035.00 746.00 C 1038.85 768.84 1040.26 791.99 1044.00 815.00 C 1047.74 838.01 1049.43 859.91 1053.93 883.07 C 1058.43 906.23 1045.82 925.67 1022.00 927.00 C 998.17 928.33 975.45 933.97 952.00 936.00 C 928.55 938.03 906.16 942.56 882.99 944.99 C 859.82 947.42 836.89 951.15 814.00 954.00 C 791.11 956.85 767.58 959.96 745.00 963.00 C 722.42 966.04 697.78 968.00 675.98 971.98 C 654.17 975.95 627.99 973.80 608.92 982.92 C 589.85 992.04 578.36 1003.95 560.00 1013.00
C 588.72 982.24 618.31 950.89 647.00 921.00
C 592.44 962.28 537.88 1003.30 483.00 1044.00
C 506.26 1013.68 533.68 985.45 557.00 955.00
C 476.02 1013.94 395.78 1075.37 314.00 1133.00
C 362.16 1076.28 410.32 1019.72 460.00 964.00
C 430.30 977.86 401.58 994.81 372.00 1009.00
C 403.61 980.86 435.60 952.29 468.00 925.00
C 449.19 921.87 427.75 928.13 409.00 925.00
C 442.28 908.20 474.98 888.75 507.00 870.00
C 449.78 885.98 392.73 902.73 335.00 917.00
C 395.31 879.92 455.13 841.20 515.00 803.00
C 514.85 803.01 514.33 801.99 514.00 802.00
C 483.07 817.30 451.50 832.07 420.00 846.00
C 406.84 727.55 393.28 609.19 379.00 491.00
C 378.90 491.83 378.08 493.58 378.00 495.00
C 376.28 524.72 385.66 553.55 386.93 583.07 C 388.19 612.60 393.76 642.48 395.98 672.02 C 398.19 701.57 402.06 731.56 405.00 761.00 C 407.94 790.44 411.63 819.68 415.00 849.00
C 410.31 851.36 405.69 853.65 401.00 856.00
C 399.76 828.05 395.11 800.73 393.00 773.00 C 390.89 745.27 387.65 717.54 385.00 690.00 C 382.35 662.46 378.92 634.59 377.00 607.00 C 375.08 579.41 369.51 550.80 368.67 523.33 C 367.83 495.86 358.59 467.54 361.33 440.33 C 364.07 413.12 393.79 404.30 418.00 408.00 C 442.21 411.69 472.54 415.20 498.02 418.98 C 523.51 422.75 553.08 426.40 579.00 430.00
C 580.37 431.14 573.94 421.94 572.00 420.00
C 537.35 390.39 506.04 356.81 472.00 327.00
C 531.38 362.96 589.54 402.16 649.00 438.00
C 625.61 370.38 581.60 312.41 531.00 260.00
C 545.53 266.70 560.48 273.80 574.69 281.31 C 588.91 288.81 603.15 297.15 617.23 304.77 C 631.31 312.39 645.32 320.76 658.70 329.30 C 672.08 337.85 684.59 346.22 697.23 355.77 C 709.87 365.32 720.25 375.72 731.75 387.25 C 743.25 398.78 750.77 411.55 760.30 424.70 C 769.83 437.84 772.09 458.21 791.02 458.98 C 809.96 459.74 830.09 465.52 849.07 466.93 C 868.06 468.33 887.97 473.74 906.00 474.00
C 851.39 435.13 796.80 396.47 742.00 358.00
M 989.00 1062.00 
C 986.75 1072.09 987.20 1082.87 985.00 1093.00
C 999.16 1088.33 1013.13 1085.60 1028.02 1090.98 C 1042.92 1096.35 1040.16 1116.07 1039.00 1129.00 C 1037.84 1141.93 1033.08 1156.32 1018.93 1159.93 C 1004.77 1163.53 989.02 1162.25 977.00 1154.00
C 978.90 1164.90 963.48 1158.13 957.00 1160.00
C 957.43 1149.81 958.99 1141.19 959.99 1130.99 C 960.99 1120.79 962.68 1111.73 963.00 1101.00 C 963.32 1090.27 967.25 1084.01 966.00 1072.00 C 964.75 1059.99 979.00 1060.96 989.00 1062.00
M 612.00 1125.00 
C 617.22 1115.89 622.65 1109.42 627.77 1099.77 C 632.89 1090.12 638.71 1085.35 643.31 1074.31 C 647.90 1063.26 663.15 1063.74 675.00 1065.00
C 672.10 1096.76 667.93 1128.22 665.00 1160.00
C 658.00 1160.00 651.00 1160.00 644.00 1160.00
C 644.96 1138.99 649.60 1116.97 650.00 1097.00
C 645.94 1104.47 641.55 1109.76 637.23 1117.23 C 632.91 1124.70 628.29 1128.87 624.23 1137.23 C 620.17 1145.59 611.48 1149.87 601.00 1147.00
C 594.99 1130.12 587.56 1113.73 581.00 1097.00
C 580.76 1106.42 576.44 1112.75 577.01 1123.01 C 577.58 1133.27 573.15 1138.73 574.02 1150.02 C 574.90 1161.31 563.99 1161.56 553.00 1160.00
C 555.04 1128.01 560.04 1096.77 563.00 1065.00
C 573.24 1065.28 588.79 1061.67 591.78 1072.22 C 594.76 1082.78 598.63 1088.51 601.78 1098.22 C 604.93 1107.94 608.65 1115.52 612.00 1125.00
M 862.00 1083.00 
C 858.69 1086.41 850.92 1083.04 846.00 1084.00 C 841.08 1084.96 833.19 1083.28 828.00 1084.00
C 824.43 1087.94 828.17 1097.78 826.00 1103.00 C 823.83 1108.22 825.34 1116.17 824.00 1122.00 C 822.66 1127.83 823.09 1134.94 822.00 1141.00 C 820.91 1147.06 820.02 1153.61 820.00 1160.00
C 812.67 1160.00 805.33 1160.00 798.00 1160.00
C 799.98 1134.51 804.55 1109.65 806.00 1084.00
C 801.32 1083.20 793.35 1085.07 789.00 1084.00 C 784.65 1082.93 775.46 1086.51 773.00 1083.00
C 769.84 1078.49 776.57 1069.93 774.00 1065.00
C 804.00 1065.00 834.00 1065.00 864.00 1065.00
C 864.07 1071.18 863.16 1077.11 862.00 1083.00
M 1102.00 1089.00 
C 1126.81 1089.95 1130.36 1110.24 1126.00 1132.00
C 1118.17 1133.09 1103.11 1130.54 1096.00 1132.00 C 1088.89 1133.46 1070.29 1127.43 1070.01 1136.01 C 1069.73 1144.59 1084.86 1144.11 1092.00 1144.00 C 1099.14 1143.89 1113.62 1144.16 1121.00 1142.00
C 1119.72 1147.17 1119.66 1152.66 1119.00 1158.00
C 1099.53 1160.77 1055.64 1169.21 1049.22 1143.78 C 1042.81 1118.34 1055.96 1086.62 1084.00 1089.00
C 1089.71 1088.45 1096.32 1088.19 1102.00 1089.00
M 706.00 1090.00 
C 709.33 1093.26 708.46 1102.53 710.93 1107.07 C 713.40 1111.62 713.22 1119.33 715.78 1124.22 C 718.33 1129.11 716.94 1136.91 721.00 1141.00
C 727.43 1123.45 737.94 1107.33 745.00 1090.00
C 747.09 1088.25 764.47 1087.51 766.00 1090.00
C 768.07 1093.37 759.91 1100.34 758.70 1104.70 C 757.48 1109.05 753.56 1114.72 750.75 1119.75 C 747.93 1124.77 746.61 1128.88 743.08 1135.08 C 739.54 1141.27 739.51 1141.63 735.08 1150.08 C 730.64 1158.52 724.91 1171.30 718.75 1178.75 C 712.59 1186.20 711.28 1185.26 704.33 1187.33 C 697.37 1189.39 689.23 1188.55 683.00 1187.00 C 676.77 1185.45 687.06 1173.62 685.00 1170.00
C 697.75 1176.20 710.14 1165.60 705.02 1153.98 C 699.91 1142.35 698.42 1133.98 694.22 1122.78 C 690.03 1111.57 688.42 1100.97 684.00 1090.00
C 685.54 1087.54 704.11 1088.15 706.00 1090.00
M 899.00 1161.00 
C 894.71 1161.61 890.24 1161.69 886.00 1161.00
C 877.82 1160.56 871.21 1158.22 868.03 1149.97 C 864.84 1141.72 867.30 1133.08 867.78 1123.78 C 868.26 1114.48 870.80 1108.23 870.93 1097.93 C 871.05 1087.62 883.53 1089.52 893.00 1090.00
C 891.47 1105.04 888.73 1117.53 888.01 1133.01 C 887.28 1148.49 911.90 1144.55 921.00 1140.00
C 921.70 1123.10 925.07 1106.87 926.00 1090.00
C 933.00 1090.00 940.00 1090.00 947.00 1090.00
C 946.00 1097.14 946.22 1106.04 945.00 1113.00 C 943.78 1119.96 944.20 1129.25 942.67 1135.67 C 941.14 1142.09 942.38 1153.12 940.22 1158.22 C 938.06 1163.32 918.41 1161.42 921.00 1155.00
C 913.94 1157.73 907.03 1161.38 899.00 1161.00 Z"/>
</g>
<g fill="#000000" fill-opacity="1.00" stroke="None">
<path d="
M 572.00 420.00 
C 575.88 423.31 579.97 426.94 583.00 431.00
C 581.72 430.72 579.50 431.76 579.00 430.00
C 553.08 426.40 523.51 422.75 498.02 418.98 C 472.54 415.20 442.21 411.69 418.00 408.00 C 393.79 404.30 364.07 413.12 361.33 440.33 C 358.59 467.54 367.83 495.86 368.67 523.33 C 369.51 550.80 375.08 579.41 377.00 607.00 C 378.92 634.59 382.35 662.46 385.00 690.00 C 387.65 717.54 390.89 745.27 393.00 773.00 C 395.11 800.73 399.76 828.05 401.00 856.00
C 405.69 853.65 410.31 851.36 415.00 849.00
C 411.63 819.68 407.94 790.44 405.00 761.00 C 402.06 731.56 398.19 701.57 395.98 672.02 C 393.76 642.48 388.19 612.60 386.93 583.07 C 385.66 553.55 376.28 524.72 378.00 495.00
C 377.21 486.85 373.72 476.92 375.00 468.00
C 374.79 465.85 373.65 462.88 374.00 460.00
C 373.77 457.59 371.31 452.31 374.00 450.00
C 373.33 452.94 375.09 455.18 375.00 458.00
C 375.39 461.15 375.56 463.93 376.00 467.00
C 377.14 475.01 377.83 482.99 379.00 491.00
C 393.28 609.19 406.84 727.55 420.00 846.00
C 451.50 832.07 483.07 817.30 514.00 802.00
C 517.52 800.26 521.06 797.41 525.00 796.00
C 523.63 799.58 518.10 800.53 515.00 803.00
C 455.13 841.20 395.31 879.92 335.00 917.00
C 392.73 902.73 449.78 885.98 507.00 870.00
C 474.98 888.75 442.28 908.20 409.00 925.00
C 427.75 928.13 449.19 921.87 468.00 925.00
C 435.60 952.29 403.61 980.86 372.00 1009.00
C 401.58 994.81 430.30 977.86 460.00 964.00
C 410.32 1019.72 362.16 1076.28 314.00 1133.00
C 395.78 1075.37 476.02 1013.94 557.00 955.00
C 533.68 985.45 506.26 1013.68 483.00 1044.00
C 537.88 1003.30 592.44 962.28 647.00 921.00
C 618.31 950.89 588.72 982.24 560.00 1013.00
C 578.36 1003.95 589.85 992.04 608.92 982.92 C 627.99 973.80 654.17 975.95 675.98 971.98 C 697.78 968.00 722.42 966.04 745.00 963.00 C 767.58 959.96 791.11 956.85 814.00 954.00 C 836.89 951.15 859.82 947.42 882.99 944.99 C 906.16 942.56 928.55 938.03 952.00 936.00 C 975.45 933.97 998.17 928.33 1022.00 927.00 C 1045.82 925.67 1058.43 906.23 1053.93 883.07 C 1049.43 859.91 1047.74 838.01 1044.00 815.00 C 1040.26 791.99 1038.85 768.84 1035.00 746.00 C 1031.15 723.16 1029.37 699.87 1025.98 677.02 C 1022.58 654.18 1019.92 631.65 1016.00 609.00
C 1003.92 613.43 991.95 618.28 980.00 623.00
C 1018.81 594.99 1061.31 568.94 1100.00 542.00
C 1059.65 559.65 1019.16 577.13 979.00 595.00
C 989.72 575.66 1002.20 557.12 1013.00 538.00
C 988.26 555.48 965.45 575.95 941.00 594.00
C 982.34 537.45 1027.04 482.18 1069.00 426.00
C 1050.15 440.66 1032.17 457.16 1013.00 471.00
C 1063.23 411.10 1115.38 352.09 1165.00 292.00
C 1091.97 353.78 1019.01 416.10 945.00 476.00
C 961.98 448.20 979.21 420.32 995.00 392.00
C 976.04 410.37 958.80 430.52 941.00 450.00
C 875.13 418.15 807.20 389.69 742.00 356.00
C 741.73 355.55 741.60 357.45 742.00 358.00
C 796.80 396.47 851.39 435.13 906.00 474.00
C 887.97 473.74 868.06 468.33 849.07 466.93 C 830.09 465.52 809.96 459.74 791.02 458.98 C 772.09 458.21 769.83 437.84 760.30 424.70 C 750.77 411.55 743.25 398.78 731.75 387.25 C 720.25 375.72 709.87 365.32 697.23 355.77 C 684.59 346.22 672.08 337.85 658.70 329.30 C 645.32 320.76 631.31 312.39 617.23 304.77 C 603.15 297.15 588.91 288.81 574.69 281.31 C 560.48 273.80 545.53 266.70 531.00 260.00
C 581.60 312.41 625.61 370.38 649.00 438.00
C 589.54 402.16 531.38 362.96 472.00 327.00
C 506.04 356.81 537.35 390.39 572.00 420.00
M 663.00 342.00 
C 680.19 354.28 697.41 365.82 714.00 380.00
C 718.63 383.96 723.09 388.42 727.00 393.00
C 773.00 446.84 793.47 511.76 805.00 580.00
C 805.79 584.68 807.86 590.09 809.00 595.00
C 810.14 599.88 810.11 605.04 811.00 610.00
C 812.11 616.17 812.82 623.41 814.00 630.00
C 816.52 633.00 825.52 622.23 828.75 618.75 C 831.98 615.28 839.96 609.11 844.23 605.23 C 848.50 601.35 854.16 596.10 858.75 591.75 C 863.35 587.41 868.97 582.21 873.75 577.75 C 878.53 573.29 883.77 569.39 888.25 564.25 C 892.73 559.10 898.47 555.00 903.25 550.25 C 908.02 545.49 912.71 541.12 917.75 536.75 C 922.79 532.38 927.76 527.20 932.75 522.75 C 937.74 518.30 941.53 512.83 946.75 508.75 C 951.98 504.67 956.81 499.33 961.75 494.75 C 966.69 490.17 971.78 486.32 976.75 481.75 C 981.71 477.17 986.41 471.74 991.75 467.75 C 997.09 463.76 1001.65 459.17 1006.75 454.75 C 1011.84 450.32 1016.50 444.99 1021.75 440.75 C 1027.01 436.52 1031.58 430.99 1037.00 427.00
C 968.21 506.06 893.46 582.37 821.00 659.00
C 818.20 662.41 814.10 667.43 810.75 670.75 C 807.40 674.07 801.90 678.20 800.25 682.25 C 798.60 686.30 791.33 691.09 791.00 695.00
C 792.22 699.08 796.13 702.11 798.00 706.00
C 793.43 705.10 792.43 698.78 788.00 697.00
C 782.94 697.00 780.28 706.53 776.25 709.25 C 772.21 711.96 767.75 718.46 764.23 722.23 C 760.71 726.00 755.44 731.32 752.00 735.00
C 742.97 744.67 734.47 755.00 726.00 765.00
C 721.57 760.50 729.94 750.89 727.00 749.00
C 726.97 751.30 722.17 753.56 721.00 755.00
C 720.66 751.89 725.38 751.12 725.00 748.00
C 723.34 748.54 722.67 750.56 721.00 751.00
C 719.69 752.53 718.48 753.74 717.00 755.00
C 699.50 772.50 682.79 791.94 664.00 808.00
C 653.23 817.21 643.02 828.08 633.00 838.00
C 629.86 842.17 631.46 846.23 632.00 851.00
C 633.33 851.00 634.67 851.00 636.00 851.00
C 649.10 853.71 664.43 848.24 678.00 849.00 C 691.57 849.76 706.32 847.51 720.00 847.00 C 733.68 846.49 748.05 845.17 762.00 845.00 C 775.95 844.83 789.84 842.65 804.00 843.00 C 818.16 843.35 831.02 840.35 845.07 840.07 C 859.13 839.79 873.08 839.27 887.00 838.00 C 900.93 836.73 916.10 837.67 930.00 836.00
C 927.25 814.20 923.54 792.63 920.00 771.00
C 922.33 771.00 924.67 771.00 927.00 771.00
C 931.33 770.48 936.97 769.39 942.00 770.00
C 943.64 770.20 945.35 769.85 947.00 770.00
C 951.39 801.81 957.14 833.29 962.00 865.00
C 895.48 868.57 829.78 875.43 763.00 878.00
C 710.34 883.10 656.02 884.97 603.00 890.00
C 602.56 883.61 601.98 876.62 600.00 871.00
C 591.55 879.45 582.48 888.58 573.75 896.75 C 565.02 904.92 556.37 914.73 547.25 922.25 C 538.12 929.77 531.42 942.91 521.00 948.00
C 518.41 950.59 516.26 954.18 513.00 956.00
C 513.68 952.60 517.44 950.10 520.00 948.00
C 547.21 920.79 572.80 891.20 600.00 864.00
C 601.42 857.30 596.23 848.92 596.22 841.78 C 596.21 834.64 593.92 826.18 593.07 818.93 C 592.22 811.67 591.23 803.27 590.00 796.00
C 589.05 790.36 588.05 784.88 588.00 779.00
C 599.33 779.00 610.67 779.00 622.00 779.00
C 623.48 797.20 627.51 814.78 629.00 833.00
C 633.57 830.53 638.19 825.81 642.00 822.00
C 659.43 801.61 680.25 783.39 697.00 763.00
C 696.79 763.16 693.59 765.52 692.00 766.00
C 695.37 760.77 699.13 754.73 705.00 752.00
C 705.19 749.71 701.88 748.39 705.00 747.00
C 708.76 739.62 716.75 734.43 718.00 726.00
C 691.94 731.83 664.92 741.69 640.00 747.00
C 667.54 737.18 695.17 725.97 722.00 715.00
C 697.85 692.27 680.71 662.23 657.00 639.00
C 677.97 641.68 697.94 648.49 719.00 651.00
C 705.51 538.01 684.95 421.12 610.00 331.00
C 597.53 315.04 580.51 301.52 567.00 286.00
C 599.67 303.03 633.47 319.82 663.00 342.00
M 663.00 475.00 
C 638.24 471.29 616.47 468.24 591.00 466.00 C 565.53 463.76 544.18 459.63 517.78 457.22 C 491.38 454.81 471.60 451.80 443.00 450.00 C 414.40 448.20 415.00 480.94 418.98 504.02 C 422.96 527.11 423.18 554.84 426.00 579.00 C 428.82 603.16 430.49 629.48 432.98 654.02 C 435.46 678.57 437.30 704.49 440.00 729.00 C 442.70 753.52 445.51 778.82 446.00 803.00
C 439.63 793.40 442.17 778.42 440.00 766.00 C 437.83 753.58 437.63 740.00 435.67 727.33 C 433.71 714.66 433.48 700.87 432.00 688.00 C 430.52 675.13 429.35 661.89 428.00 649.00 C 426.65 636.11 423.82 624.02 423.01 610.99 C 422.19 597.96 420.30 584.89 419.02 571.98 C 417.75 559.06 416.39 545.83 415.00 533.00 C 413.61 520.17 411.78 506.82 411.00 494.00 C 410.22 481.18 405.62 467.97 409.32 455.32 C 413.02 442.68 425.81 439.60 438.00 441.00 C 450.19 442.40 463.51 444.58 476.01 445.99 C 488.51 447.41 501.46 449.49 514.07 450.93 C 526.68 452.37 539.74 453.97 552.22 455.78 C 564.71 457.59 577.91 458.36 590.07 460.93 C 602.24 463.49 617.22 462.16 629.00 465.00 C 640.78 467.84 659.27 463.05 663.00 475.00
M 672.00 466.00 
C 691.25 522.32 704.64 580.60 709.00 641.00
C 694.20 638.96 698.99 622.79 697.00 611.00 C 695.01 599.21 693.86 585.06 692.01 572.99 C 690.15 560.92 688.08 547.95 686.02 535.98 C 683.97 524.00 682.03 510.99 679.67 499.33 C 677.31 487.67 672.54 476.71 672.00 466.00
M 898.00 499.00 
C 889.94 502.86 880.62 499.01 871.78 498.22 C 862.94 497.43 852.85 496.07 844.00 495.00 C 835.15 493.94 824.59 493.52 816.00 492.00 C 807.41 490.48 795.01 491.63 791.00 485.00
C 826.45 490.16 863.25 492.56 898.00 499.00
M 704.00 707.00 
C 688.75 710.39 681.16 693.95 672.25 684.75 C 663.34 675.55 655.93 665.14 647.25 655.75 C 638.56 646.37 630.03 636.81 622.00 627.00
C 642.56 628.65 654.44 648.20 667.25 662.75 C 680.06 677.31 691.02 692.58 704.00 707.00
M 668.00 939.00 
C 676.71 930.11 689.71 932.58 702.00 931.00 C 714.29 929.42 727.72 928.09 740.22 926.22 C 752.73 924.35 767.03 924.31 779.67 922.67 C 792.31 921.03 804.95 918.97 817.67 917.67 C 830.40 916.38 842.40 914.94 855.02 913.02 C 867.65 911.11 881.46 911.40 894.00 909.00 C 906.54 906.60 919.31 905.83 932.00 904.00 C 944.69 902.17 958.36 901.89 971.00 900.00 C 983.65 898.11 995.54 898.71 1007.68 894.68 C 1019.81 890.65 1021.46 875.79 1020.00 864.00 C 1018.54 852.21 1017.83 837.18 1016.00 825.00 C 1014.18 812.82 1012.08 799.77 1010.67 787.33 C 1009.26 774.89 1006.94 762.62 1006.01 749.99 C 1005.07 737.36 1002.13 724.57 1001.00 712.00 C 999.87 699.42 997.27 686.14 996.22 673.78 C 995.17 661.42 991.58 647.65 994.00 637.00
C 998.55 656.53 1000.13 676.61 1002.98 697.02 C 1005.83 717.44 1007.86 737.34 1011.00 758.00 C 1014.14 778.66 1016.72 798.35 1019.33 819.67 C 1021.94 840.99 1026.75 857.97 1027.00 881.00 C 1027.25 904.03 1001.04 904.33 981.93 905.93 C 962.81 907.52 939.03 909.89 918.99 911.99 C 898.95 914.10 877.43 916.55 856.93 918.93 C 836.43 921.30 813.58 922.09 793.00 925.00 C 772.42 927.91 751.84 929.80 731.00 932.00 C 710.16 934.20 688.72 936.06 668.00 939.00
M 755.00 757.00 
C 762.19 747.89 770.32 740.64 777.75 731.75 C 785.18 722.86 792.23 714.49 800.23 706.23 C 808.23 697.97 814.70 689.52 822.75 680.75 C 830.80 671.99 836.96 659.00 850.00 659.00
C 856.02 658.42 863.29 658.00 870.00 658.00
C 870.50 658.00 871.50 658.03 872.00 658.00
C 873.33 657.91 874.67 658.07 876.00 658.00
C 847.89 708.25 818.26 758.56 789.00 808.00
C 777.81 791.29 762.66 776.80 752.00 760.00
C 753.20 759.33 754.58 758.36 755.00 757.00
M 748.00 768.00 
C 760.53 783.37 773.76 798.46 784.00 815.00
C 769.23 802.23 755.61 787.90 741.00 775.00
C 742.89 772.38 745.35 769.76 748.00 768.00 Z"/>
</g>
<g fill="#ACACAB" fill-opacity="1.00" stroke="None">
<path d="
M 610.00 331.00 
C 634.37 348.20 650.70 375.45 669.30 399.70 C 687.91 423.95 703.43 456.66 715.00 485.00
C 711.11 465.59 700.96 443.73 692.23 424.77 C 683.50 405.82 673.02 387.63 661.25 370.75 C 649.47 353.87 636.26 339.23 622.00 324.00
C 637.52 330.30 651.47 341.03 667.00 347.00
C 666.89 344.42 661.11 343.93 663.00 342.00
C 633.47 319.82 599.67 303.03 567.00 286.00
C 580.51 301.52 597.53 315.04 610.00 331.00 Z"/>
</g>
<g fill="#FCFCFC" fill-opacity="1.00" stroke="None">
<path d="
M 610.00 331.00 
C 684.95 421.12 705.51 538.01 719.00 651.00
C 697.94 648.49 677.97 641.68 657.00 639.00
C 680.71 662.23 697.85 692.27 722.00 715.00
C 722.39 714.79 723.00 715.00 723.00 715.00
C 724.64 715.77 724.00 715.07 725.00 715.00
C 726.44 710.03 716.14 704.55 714.25 699.75 C 712.36 694.95 706.05 688.77 703.23 683.77 C 700.41 678.77 694.79 674.49 691.75 669.25 C 688.72 664.00 683.90 658.47 681.00 653.00
C 693.87 657.83 707.56 657.59 720.08 663.92 C 732.60 670.26 742.02 659.15 752.23 652.23 C 762.44 645.31 771.43 638.40 781.25 631.25 C 791.07 624.10 803.05 618.43 811.00 610.00
C 810.11 605.04 810.14 599.88 809.00 595.00
C 805.61 591.00 798.30 600.58 794.25 602.25 C 790.20 603.93 783.54 609.19 779.25 612.25 C 774.96 615.31 768.34 618.38 763.77 621.77 C 759.20 625.16 753.01 628.40 748.00 631.00
C 765.86 613.02 788.64 598.94 805.00 580.00
C 793.47 511.76 773.00 446.84 727.00 393.00
C 722.75 388.75 718.20 384.20 714.00 380.00
C 697.41 365.82 680.19 354.28 663.00 342.00
C 661.11 343.93 666.89 344.42 667.00 347.00
C 651.47 341.03 637.52 330.30 622.00 324.00
C 636.26 339.23 649.47 353.87 661.25 370.75 C 673.02 387.63 683.50 405.82 692.23 424.77 C 700.96 443.73 711.11 465.59 715.00 485.00
C 703.43 456.66 687.91 423.95 669.30 399.70 C 650.70 375.45 634.37 348.20 610.00 331.00 Z"/>
</g>
<g fill="#6A6A6A" fill-opacity="1.00" stroke="None">
<path d="
M 742.00 358.00 
C 741.60 357.45 741.73 355.55 742.00 356.00
C 739.63 354.74 736.73 352.93 734.00 352.00
C 735.74 354.95 739.20 356.19 742.00 358.00 Z"/>
</g>
<g fill="#707070" fill-opacity="1.00" stroke="None">
<path d="
M 727.00 393.00 
C 723.09 388.42 718.63 383.96 714.00 380.00
C 718.20 384.20 722.75 388.75 727.00 393.00 Z"/>
</g>
<g fill="#777776" fill-opacity="1.00" stroke="None">
<path d="
M 579.00 430.00 
C 579.50 431.76 581.72 430.72 583.00 431.00
C 579.97 426.94 575.88 423.31 572.00 420.00
C 573.94 421.94 580.37 431.14 579.00 430.00 Z"/>
</g>
<g fill="#545454" fill-opacity="1.00" stroke="None">
<path d="
M 814.00 630.00 
C 814.22 631.21 814.65 631.84 815.00 633.00
C 815.78 635.58 815.74 638.23 816.00 641.00
C 824.00 635.03 831.20 626.67 839.00 620.00
C 863.46 599.10 885.11 574.53 908.75 552.75 C 932.39 530.98 955.55 507.45 978.00 485.00
C 983.03 479.97 987.71 473.05 994.00 470.00
C 986.65 479.29 977.91 488.07 969.00 496.00
C 945.78 523.17 918.93 547.18 894.25 573.25 C 869.57 599.32 844.48 625.53 819.00 651.00
C 818.20 654.20 821.09 656.89 821.00 659.00
C 893.46 582.37 968.21 506.06 1037.00 427.00
C 1031.58 430.99 1027.01 436.52 1021.75 440.75 C 1016.50 444.99 1011.84 450.32 1006.75 454.75 C 1001.65 459.17 997.09 463.76 991.75 467.75 C 986.41 471.74 981.71 477.17 976.75 481.75 C 971.78 486.32 966.69 490.17 961.75 494.75 C 956.81 499.33 951.98 504.67 946.75 508.75 C 941.53 512.83 937.74 518.30 932.75 522.75 C 927.76 527.20 922.79 532.38 917.75 536.75 C 912.71 541.12 908.02 545.49 903.25 550.25 C 898.47 555.00 892.73 559.10 888.25 564.25 C 883.77 569.39 878.53 573.29 873.75 577.75 C 868.97 582.21 863.35 587.41 858.75 591.75 C 854.16 596.10 848.50 601.35 844.23 605.23 C 839.96 609.11 831.98 615.28 828.75 618.75 C 825.52 622.23 816.52 633.00 814.00 630.00 Z"/>
</g>
<g fill="#404040" fill-opacity="1.00" stroke="None">
<path d="
M 663.00 475.00 
C 659.27 463.05 640.78 467.84 629.00 465.00 C 617.22 462.16 602.24 463.49 590.07 460.93 C 577.91 458.36 564.71 457.59 552.22 455.78 C 539.74 453.97 526.68 452.37 514.07 450.93 C 501.46 449.49 488.51 447.41 476.01 445.99 C 463.51 444.58 450.19 442.40 438.00 441.00 C 425.81 439.60 413.02 442.68 409.32 455.32 C 405.62 467.97 410.22 481.18 411.00 494.00 C 411.78 506.82 413.61 520.17 415.00 533.00 C 416.39 545.83 417.75 559.06 419.02 571.98 C 420.30 584.89 422.19 597.96 423.01 610.99 C 423.82 624.02 426.65 636.11 428.00 649.00 C 429.35 661.89 430.52 675.13 432.00 688.00 C 433.48 700.87 433.71 714.66 435.67 727.33 C 437.63 740.00 437.83 753.58 440.00 766.00 C 442.17 778.42 439.63 793.40 446.00 803.00
C 445.51 778.82 442.70 753.52 440.00 729.00 C 437.30 704.49 435.46 678.57 432.98 654.02 C 430.49 629.48 428.82 603.16 426.00 579.00 C 423.18 554.84 422.96 527.11 418.98 504.02 C 415.00 480.94 414.40 448.20 443.00 450.00 C 471.60 451.80 491.38 454.81 517.78 457.22 C 544.18 459.63 565.53 463.76 591.00 466.00 C 616.47 468.24 638.24 471.29 663.00 475.00 Z"/>
</g>
<g fill="#353334" fill-opacity="1.00" stroke="None">
<path d="
M 374.00 460.00 
C 374.11 459.11 374.93 458.40 375.00 458.00
C 375.09 455.18 373.33 452.94 374.00 450.00
C 371.31 452.31 373.77 457.59 374.00 460.00 Z"/>
</g>
<g fill="#7C7978" fill-opacity="1.00" stroke="None">
<path d="
M 374.00 460.00 
C 373.65 462.88 374.79 465.85 375.00 468.00
C 375.05 467.65 375.98 467.20 376.00 467.00
C 375.56 463.93 375.39 461.15 375.00 458.00
C 374.93 458.40 374.11 459.11 374.00 460.00 Z"/>
</g>
<g fill="#6D6C6C" fill-opacity="1.00" stroke="None">
<path d="
M 672.00 466.00 
C 672.54 476.71 677.31 487.67 679.67 499.33 C 682.03 510.99 683.97 524.00 686.02 535.98 C 688.08 547.95 690.15 560.92 692.01 572.99 C 693.86 585.06 695.01 599.21 697.00 611.00 C 698.99 622.79 694.20 638.96 709.00 641.00
C 704.64 580.60 691.25 522.32 672.00 466.00 Z"/>
</g>
<g fill="#A8A6A4" fill-opacity="1.00" stroke="None">
<path d="
M 375.00 468.00 
C 373.72 476.92 377.21 486.85 378.00 495.00
C 378.08 493.58 378.90 491.83 379.00 491.00
C 377.83 482.99 377.14 475.01 376.00 467.00
C 375.98 467.20 375.05 467.65 375.00 468.00 Z"/>
</g>
<g fill="#848484" fill-opacity="1.00" stroke="None">
<path d="
M 978.00 485.00 
C 976.31 487.62 971.95 492.55 969.00 496.00
C 977.91 488.07 986.65 479.29 994.00 470.00
C 987.71 473.05 983.03 479.97 978.00 485.00 Z"/>
</g>
<g fill="#3C3C3C" fill-opacity="1.00" stroke="None">
<path d="
M 898.00 499.00 
C 863.25 492.56 826.45 490.16 791.00 485.00
C 795.01 491.63 807.41 490.48 816.00 492.00 C 824.59 493.52 835.15 493.94 844.00 495.00 C 852.85 496.07 862.94 497.43 871.78 498.22 C 880.62 499.01 889.94 502.86 898.00 499.00 Z"/>
</g>
<g fill="#F4F4F4" fill-opacity="1.00" stroke="None">
<path d="
M 839.00 620.00 
C 831.72 627.28 824.67 635.18 817.00 642.00
C 811.56 646.84 803.86 655.71 798.25 660.25 C 792.64 664.78 782.56 678.03 780.00 669.00
C 777.51 669.68 778.01 673.00 776.00 674.00
C 772.36 672.84 769.80 669.55 766.00 669.00
C 767.56 672.77 774.24 674.53 772.00 679.00
C 766.76 679.62 760.60 679.37 756.00 681.00
C 756.50 680.96 757.00 681.00 757.00 681.00
C 762.62 680.39 771.09 682.02 774.00 684.00
C 763.37 697.71 749.45 709.78 737.00 722.00
C 733.59 725.41 730.10 729.38 727.00 733.00
C 723.02 737.66 718.21 741.71 714.00 746.00
C 713.04 747.16 712.00 748.02 711.00 749.00
C 706.59 753.32 700.84 758.33 697.00 763.00
C 680.25 783.39 659.43 801.61 642.00 822.00
C 640.13 824.18 631.03 835.50 629.00 833.00
C 627.51 814.78 623.48 797.20 622.00 779.00
C 610.67 779.00 599.33 779.00 588.00 779.00
C 588.05 784.88 589.05 790.36 590.00 796.00
C 593.74 803.48 603.50 808.40 608.25 815.75 C 613.00 823.11 620.23 830.48 626.00 837.00
C 619.22 846.90 608.74 855.46 600.00 864.00
C 572.80 891.20 547.21 920.79 520.00 948.00
C 520.40 947.80 521.00 948.00 521.00 948.00
C 531.42 942.91 538.12 929.77 547.25 922.25 C 556.37 914.73 565.02 904.92 573.75 896.75 C 582.48 888.58 591.55 879.45 600.00 871.00
C 611.01 859.99 622.54 848.36 633.00 838.00
C 643.02 828.08 653.23 817.21 664.00 808.00
C 681.50 790.50 698.21 771.05 717.00 755.00
C 718.48 753.74 719.69 752.53 721.00 751.00
C 722.56 749.18 724.38 747.62 726.00 746.00
C 729.92 742.08 734.13 737.87 738.00 734.00
C 746.25 725.75 754.21 717.51 763.00 710.00
C 769.14 703.86 775.10 696.31 783.00 693.00
C 783.47 694.88 781.94 697.93 784.00 699.00
C 785.58 697.54 786.72 696.65 788.00 697.00
C 792.43 698.78 793.43 705.10 798.00 706.00
C 796.13 702.11 792.22 699.08 791.00 695.00
C 789.63 690.42 787.64 681.88 795.00 680.00
C 787.10 679.20 798.53 671.43 802.75 666.75 C 806.98 662.07 814.14 655.28 819.00 651.00
C 844.48 625.53 869.57 599.32 894.25 573.25 C 918.93 547.18 945.78 523.17 969.00 496.00
C 971.95 492.55 976.31 487.62 978.00 485.00
C 955.55 507.45 932.39 530.98 908.75 552.75 C 885.11 574.53 863.46 599.10 839.00 620.00 Z"/>
</g>
<g fill="#A7A7A7" fill-opacity="1.00" stroke="None">
<path d="
M 809.00 595.00 
C 807.86 590.09 805.79 584.68 805.00 580.00
C 788.64 598.94 765.86 613.02 748.00 631.00
C 753.01 628.40 759.20 625.16 763.77 621.77 C 768.34 618.38 774.96 615.31 779.25 612.25 C 783.54 609.19 790.20 603.93 794.25 602.25 C 798.30 600.58 805.61 591.00 809.00 595.00 Z"/>
</g>
<g fill="#A6A6A6" fill-opacity="1.00" stroke="None">
<path d="
M 725.00 715.00 
C 742.24 713.75 755.01 695.82 769.00 688.00
C 765.71 684.75 760.51 683.62 757.00 681.00
C 757.00 681.00 756.50 680.96 756.00 681.00
C 754.17 681.14 751.54 681.25 751.00 679.00
C 755.00 679.00 759.00 679.00 763.00 679.00
C 760.92 676.62 765.38 677.07 766.00 675.00
C 765.17 671.17 764.05 667.78 761.00 665.00
C 766.85 667.01 774.39 668.21 773.00 660.00
C 779.99 672.86 786.51 660.06 793.75 653.75 C 801.00 647.45 807.47 638.06 815.00 633.00
C 814.65 631.84 814.22 631.21 814.00 630.00
C 812.82 623.41 812.11 616.17 811.00 610.00
C 803.05 618.43 791.07 624.10 781.25 631.25 C 771.43 638.40 762.44 645.31 752.23 652.23 C 742.02 659.15 732.60 670.26 720.08 663.92 C 707.56 657.59 693.87 657.83 681.00 653.00
C 683.90 658.47 688.72 664.00 691.75 669.25 C 694.79 674.49 700.41 678.77 703.23 683.77 C 706.05 688.77 712.36 694.95 714.25 699.75 C 716.14 704.55 726.44 710.03 725.00 715.00 Z"/>
</g>
<g fill="#848483" fill-opacity="1.00" stroke="None">
<path d="
M 816.00 641.00 
C 816.03 641.35 816.71 642.06 817.00 642.00
C 824.67 635.18 831.72 627.28 839.00 620.00
C 831.20 626.67 824.00 635.03 816.00 641.00 Z"/>
</g>
<g fill="#646464" fill-opacity="1.00" stroke="None">
<path d="
M 704.00 707.00 
C 691.02 692.58 680.06 677.31 667.25 662.75 C 654.44 648.20 642.56 628.65 622.00 627.00
C 630.03 636.81 638.56 646.37 647.25 655.75 C 655.93 665.14 663.34 675.55 672.25 684.75 C 681.16 693.95 688.75 710.39 704.00 707.00 Z"/>
</g>
<g fill="#C7C7C7" fill-opacity="1.00" stroke="None">
<path d="
M 756.00 681.00 
C 760.60 679.37 766.76 679.62 772.00 679.00
C 774.24 674.53 767.56 672.77 766.00 669.00
C 769.80 669.55 772.36 672.84 776.00 674.00
C 778.01 673.00 777.51 669.68 780.00 669.00
C 782.56 678.03 792.64 664.78 798.25 660.25 C 803.86 655.71 811.56 646.84 817.00 642.00
C 816.71 642.06 816.03 641.35 816.00 641.00
C 815.74 638.23 815.78 635.58 815.00 633.00
C 807.47 638.06 801.00 647.45 793.75 653.75 C 786.51 660.06 779.99 672.86 773.00 660.00
C 774.39 668.21 766.85 667.01 761.00 665.00
C 764.05 667.78 765.17 671.17 766.00 675.00
C 765.38 677.07 760.92 676.62 763.00 679.00
C 759.00 679.00 755.00 679.00 751.00 679.00
C 751.54 681.25 754.17 681.14 756.00 681.00 Z"/>
</g>
<g fill="#3F3E3E" fill-opacity="1.00" stroke="None">
<path d="
M 668.00 939.00 
C 688.72 936.06 710.16 934.20 731.00 932.00 C 751.84 929.80 772.42 927.91 793.00 925.00 C 813.58 922.09 836.43 921.30 856.93 918.93 C 877.43 916.55 898.95 914.10 918.99 911.99 C 939.03 909.89 962.81 907.52 981.93 905.93 C 1001.04 904.33 1027.25 904.03 1027.00 881.00 C 1026.75 857.97 1021.94 840.99 1019.33 819.67 C 1016.72 798.35 1014.14 778.66 1011.00 758.00 C 1007.86 737.34 1005.83 717.44 1002.98 697.02 C 1000.13 676.61 998.55 656.53 994.00 637.00
C 991.58 647.65 995.17 661.42 996.22 673.78 C 997.27 686.14 999.87 699.42 1001.00 712.00 C 1002.13 724.57 1005.07 737.36 1006.01 749.99 C 1006.94 762.62 1009.26 774.89 1010.67 787.33 C 1012.08 799.77 1014.18 812.82 1016.00 825.00 C 1017.83 837.18 1018.54 852.21 1020.00 864.00 C 1021.46 875.79 1019.81 890.65 1007.68 894.68 C 995.54 898.71 983.65 898.11 971.00 900.00 C 958.36 901.89 944.69 902.17 932.00 904.00 C 919.31 905.83 906.54 906.60 894.00 909.00 C 881.46 911.40 867.65 911.11 855.02 913.02 C 842.40 914.94 830.40 916.38 817.67 917.67 C 804.95 918.97 792.31 921.03 779.67 922.67 C 767.03 924.31 752.73 924.35 740.22 926.22 C 727.72 928.09 714.29 929.42 702.00 931.00 C 689.71 932.58 676.71 930.11 668.00 939.00 Z"/>
</g>
<g fill="#CBCBCB" fill-opacity="1.00" stroke="None">
<path d="
M 791.00 695.00 
C 791.33 691.09 798.60 686.30 800.25 682.25 C 801.90 678.20 807.40 674.07 810.75 670.75 C 814.10 667.43 818.20 662.41 821.00 659.00
C 821.09 656.89 818.20 654.20 819.00 651.00
C 814.14 655.28 806.98 662.07 802.75 666.75 C 798.53 671.43 787.10 679.20 795.00 680.00
C 787.64 681.88 789.63 690.42 791.00 695.00 Z"/>
</g>
<g fill="#5B5C5C" fill-opacity="1.00" stroke="None">
<path d="
M 850.00 659.00 
C 856.20 659.00 864.73 660.24 870.00 658.00
C 863.29 658.00 856.02 658.42 850.00 659.00 Z"/>
</g>
<g fill="#A4A4A3" fill-opacity="1.00" stroke="None">
<path d="
M 850.00 659.00 
C 836.96 659.00 830.80 671.99 822.75 680.75 C 814.70 689.52 808.23 697.97 800.23 706.23 C 792.23 714.49 785.18 722.86 777.75 731.75 C 770.32 740.64 762.19 747.89 755.00 757.00
C 760.72 750.81 768.36 746.34 774.25 740.25 C 780.14 734.15 787.63 729.54 793.75 723.75 C 799.86 717.95 807.26 713.07 813.25 707.25 C 819.24 701.42 826.83 696.20 832.75 690.75 C 838.67 685.30 847.36 680.21 852.25 674.25 C 857.14 668.29 869.81 665.42 872.00 658.00
C 871.50 658.03 870.50 658.00 870.00 658.00
C 864.73 660.24 856.20 659.00 850.00 659.00 Z"/>
</g>
<g fill="#FBFBFB" fill-opacity="1.00" stroke="None">
<path d="
M 755.00 757.00 
C 754.58 758.36 753.20 759.33 752.00 760.00
C 762.66 776.80 777.81 791.29 789.00 808.00
C 818.26 758.56 847.89 708.25 876.00 658.00
C 874.67 658.07 873.33 657.91 872.00 658.00
C 869.81 665.42 857.14 668.29 852.25 674.25 C 847.36 680.21 838.67 685.30 832.75 690.75 C 826.83 696.20 819.24 701.42 813.25 707.25 C 807.26 713.07 799.86 717.95 793.75 723.75 C 787.63 729.54 780.14 734.15 774.25 740.25 C 768.36 746.34 760.72 750.81 755.00 757.00 Z"/>
</g>
<g fill="#C6C6C6" fill-opacity="1.00" stroke="None">
<path d="
M 725.00 715.00 
C 724.00 715.07 724.64 715.77 723.00 715.00
C 725.67 718.73 736.79 717.01 737.00 722.00
C 749.45 709.78 763.37 697.71 774.00 684.00
C 771.09 682.02 762.62 680.39 757.00 681.00
C 760.51 683.62 765.71 684.75 769.00 688.00
C 755.01 695.82 742.24 713.75 725.00 715.00 Z"/>
</g>
<g fill="#BCBDBD" fill-opacity="1.00" stroke="None">
<path d="
M 763.00 710.00 
C 765.81 707.60 769.02 705.12 771.00 702.00
C 775.26 703.49 781.86 704.27 784.00 699.00
C 781.94 697.93 783.47 694.88 783.00 693.00
C 775.10 696.31 769.14 703.86 763.00 710.00 Z"/>
</g>
<g fill="#9C9C9C" fill-opacity="1.00" stroke="None">
<path d="
M 784.00 699.00 
C 781.86 704.27 775.26 703.49 771.00 702.00
C 769.02 705.12 765.81 707.60 763.00 710.00
C 754.21 717.51 746.25 725.75 738.00 734.00
C 740.97 733.75 743.30 738.23 745.00 740.00
C 747.91 739.25 749.51 736.39 752.00 735.00
C 755.44 731.32 760.71 726.00 764.23 722.23 C 767.75 718.46 772.21 711.96 776.25 709.25 C 780.28 706.53 782.94 697.00 788.00 697.00
C 786.72 696.65 785.58 697.54 784.00 699.00 Z"/>
</g>
<g fill="#6D6D6C" fill-opacity="1.00" stroke="None">
<path d="
M 705.00 747.00 
C 705.57 746.67 711.21 746.61 713.00 746.00
C 712.70 747.25 711.17 747.71 711.00 749.00
C 712.00 748.02 713.04 747.16 714.00 746.00
C 717.92 741.28 722.74 737.26 727.00 733.00
C 730.10 729.38 733.59 725.41 737.00 722.00
C 736.79 717.01 725.67 718.73 723.00 715.00
C 723.00 715.00 722.39 714.79 722.00 715.00
C 695.17 725.97 667.54 737.18 640.00 747.00
C 664.92 741.69 691.94 731.83 718.00 726.00
C 716.75 734.43 708.76 739.62 705.00 747.00 Z"/>
</g>
<g fill="#ABABAB" fill-opacity="1.00" stroke="None">
<path d="
M 714.00 746.00 
C 718.21 741.71 723.02 737.66 727.00 733.00
C 722.74 737.26 717.92 741.28 714.00 746.00 Z"/>
</g>
<g fill="#808080" fill-opacity="1.00" stroke="None">
<path d="
M 726.00 746.00 
C 725.74 747.75 726.32 747.89 727.00 749.00
C 729.94 750.89 721.57 760.50 726.00 765.00
C 734.47 755.00 742.97 744.67 752.00 735.00
C 749.51 736.39 747.91 739.25 745.00 740.00
C 743.30 738.23 740.97 733.75 738.00 734.00
C 734.13 737.87 729.92 742.08 726.00 746.00 Z"/>
</g>
<g fill="#2C2C2C" fill-opacity="1.00" stroke="None">
<path d="
M 705.00 747.00 
C 701.88 748.39 705.19 749.71 705.00 752.00
C 699.13 754.73 695.37 760.77 692.00 766.00
C 693.59 765.52 696.79 763.16 697.00 763.00
C 700.84 758.33 706.59 753.32 711.00 749.00
C 711.17 747.71 712.70 747.25 713.00 746.00
C 711.21 746.61 705.57 746.67 705.00 747.00 Z"/>
</g>
<g fill="#434343" fill-opacity="1.00" stroke="None">
<path d="
M 721.00 751.00 
C 722.67 750.56 723.34 748.54 725.00 748.00
C 725.38 751.12 720.66 751.89 721.00 755.00
C 722.17 753.56 726.97 751.30 727.00 749.00
C 726.32 747.89 725.74 747.75 726.00 746.00
C 724.38 747.62 722.56 749.18 721.00 751.00 Z"/>
</g>
<g fill="#838383" fill-opacity="1.00" stroke="None">
<path d="
M 664.00 808.00 
C 682.79 791.94 699.50 772.50 717.00 755.00
C 698.21 771.05 681.50 790.50 664.00 808.00 Z"/>
</g>
<g fill="#616161" fill-opacity="1.00" stroke="None">
<path d="
M 748.00 768.00 
C 745.35 769.76 742.89 772.38 741.00 775.00
C 755.61 787.90 769.23 802.23 784.00 815.00
C 773.76 798.46 760.53 783.37 748.00 768.00 Z"/>
</g>
<g fill="#6B6C6C" fill-opacity="1.00" stroke="None">
<path d="
M 927.00 771.00 
C 931.69 770.91 938.15 769.91 942.00 770.00
C 936.97 769.39 931.33 770.48 927.00 771.00 Z"/>
</g>
<g fill="#FAFAF9" fill-opacity="1.00" stroke="None">
<path d="
M 927.00 771.00 
C 924.67 771.00 922.33 771.00 920.00 771.00
C 923.54 792.63 927.25 814.20 930.00 836.00
C 916.10 837.67 900.93 836.73 887.00 838.00 C 873.08 839.27 859.13 839.79 845.07 840.07 C 831.02 840.35 818.16 843.35 804.00 843.00 C 789.84 842.65 775.95 844.83 762.00 845.00 C 748.05 845.17 733.68 846.49 720.00 847.00 C 706.32 847.51 691.57 849.76 678.00 849.00 C 664.43 848.24 649.10 853.71 636.00 851.00
C 654.16 860.08 679.09 859.98 699.22 864.78 C 719.35 869.58 742.41 875.70 763.00 878.00
C 829.78 875.43 895.48 868.57 962.00 865.00
C 957.14 833.29 951.39 801.81 947.00 770.00
C 945.35 769.85 943.64 770.20 942.00 770.00
C 938.15 769.91 931.69 770.91 927.00 771.00 Z"/>
</g>
<g fill="#9C9C9C" fill-opacity="1.00" stroke="None">
<path d="
M 514.00 802.00 
C 514.33 801.99 514.85 803.01 515.00 803.00
C 518.10 800.53 523.63 799.58 525.00 796.00
C 521.06 797.41 517.52 800.26 514.00 802.00 Z"/>
</g>
<g fill="#9F9F9F" fill-opacity="1.00" stroke="None">
<path d="
M 600.00 864.00 
C 608.74 855.46 619.22 846.90 626.00 837.00
C 620.23 830.48 613.00 823.11 608.25 815.75 C 603.50 808.40 593.74 803.48 590.00 796.00
C 591.23 803.27 592.22 811.67 593.07 818.93 C 593.92 826.18 596.21 834.64 596.22 841.78 C 596.23 848.92 601.42 857.30 600.00 864.00 Z"/>
</g>
<g fill="#7F7F7F" fill-opacity="1.00" stroke="None">
<path d="
M 629.00 833.00 
C 631.03 835.50 640.13 824.18 642.00 822.00
C 638.19 825.81 633.57 830.53 629.00 833.00 Z"/>
</g>
<g fill="#9D9D9D" fill-opacity="1.00" stroke="None">
<path d="
M 600.00 871.00 
C 601.98 876.62 602.56 883.61 603.00 890.00
C 656.02 884.97 710.34 883.10 763.00 878.00
C 742.41 875.70 719.35 869.58 699.22 864.78 C 679.09 859.98 654.16 860.08 636.00 851.00
C 634.67 851.00 633.33 851.00 632.00 851.00
C 631.46 846.23 629.86 842.17 633.00 838.00
C 622.54 848.36 611.01 859.99 600.00 871.00 Z"/>
</g>
<g fill="#727272" fill-opacity="1.00" stroke="None">
<path d="
M 521.00 948.00 
C 521.00 948.00 520.40 947.80 520.00 948.00
C 517.44 950.10 513.68 952.60 513.00 956.00
C 516.26 954.18 518.41 950.59 521.00 948.00 Z"/>
</g>
<g fill="#000101" fill-opacity="1.00" stroke="None">
<path d="
M 989.00 1062.00 
C 979.00 1060.96 964.75 1059.99 966.00 1072.00 C 967.25 1084.01 963.32 1090.27 963.00 1101.00 C 962.68 1111.73 960.99 1120.79 959.99 1130.99 C 958.99 1141.19 957.43 1149.81 957.00 1160.00
C 963.48 1158.13 978.90 1164.90 977.00 1154.00
C 989.02 1162.25 1004.77 1163.53 1018.93 1159.93 C 1033.08 1156.32 1037.84 1141.93 1039.00 1129.00 C 1040.16 1116.07 1042.92 1096.35 1028.02 1090.98 C 1013.13 1085.60 999.16 1088.33 985.00 1093.00
C 987.20 1082.87 986.75 1072.09 989.00 1062.00
M 1010.00 1107.00 
C 1020.20 1109.11 1019.60 1124.83 1016.02 1134.02 C 1012.45 1143.22 1001.79 1145.91 990.00 1143.00 C 978.21 1140.09 982.49 1128.22 983.00 1117.00 C 983.50 1105.77 999.22 1104.77 1010.00 1107.00 Z"/>
</g>
<g fill="#000000" fill-opacity="1.00" stroke="None">
<path d="
M 612.00 1125.00 
C 608.65 1115.52 604.93 1107.94 601.78 1098.22 C 598.63 1088.51 594.76 1082.78 591.78 1072.22 C 588.79 1061.67 573.24 1065.28 563.00 1065.00
C 560.04 1096.77 555.04 1128.01 553.00 1160.00
C 563.99 1161.56 574.90 1161.31 574.02 1150.02 C 573.15 1138.73 577.58 1133.27 577.01 1123.01 C 576.44 1112.75 580.76 1106.42 581.00 1097.00
C 587.56 1113.73 594.99 1130.12 601.00 1147.00
C 611.48 1149.87 620.17 1145.59 624.23 1137.23 C 628.29 1128.87 632.91 1124.70 637.23 1117.23 C 641.55 1109.76 645.94 1104.47 650.00 1097.00
C 649.60 1116.97 644.96 1138.99 644.00 1160.00
C 651.00 1160.00 658.00 1160.00 665.00 1160.00
C 667.93 1128.22 672.10 1096.76 675.00 1065.00
C 663.15 1063.74 647.90 1063.26 643.31 1074.31 C 638.71 1085.35 632.89 1090.12 627.77 1099.77 C 622.65 1109.42 617.22 1115.89 612.00 1125.00 Z"/>
</g>
<g fill="#000101" fill-opacity="1.00" stroke="None">
<path d="
M 773.00 1083.00 
C 777.68 1083.80 785.65 1081.93 790.00 1083.00 C 794.35 1084.07 803.54 1080.49 806.00 1084.00
C 804.55 1109.65 799.98 1134.51 798.00 1160.00
C 805.33 1160.00 812.67 1160.00 820.00 1160.00
C 820.02 1153.61 820.91 1147.06 822.00 1141.00 C 823.09 1134.94 822.66 1127.83 824.00 1122.00 C 825.34 1116.17 823.83 1108.22 826.00 1103.00 C 828.17 1097.78 824.43 1087.94 828.00 1084.00
C 831.30 1080.36 839.66 1084.87 844.00 1083.00 C 848.34 1081.13 858.21 1085.74 862.00 1083.00
C 863.16 1077.11 864.07 1071.18 864.00 1065.00
C 834.00 1065.00 804.00 1065.00 774.00 1065.00
C 776.57 1069.93 769.84 1078.49 773.00 1083.00 Z"/>
</g>
<g fill="#6F7070" fill-opacity="1.00" stroke="None">
<path d="
M 806.00 1084.00 
C 803.54 1080.49 794.35 1084.07 790.00 1083.00 C 785.65 1081.93 777.68 1083.80 773.00 1083.00
C 775.46 1086.51 784.65 1082.93 789.00 1084.00 C 793.35 1085.07 801.32 1083.20 806.00 1084.00 Z"/>
</g>
<g fill="#5C5D5C" fill-opacity="1.00" stroke="None">
<path d="
M 828.00 1084.00 
C 833.19 1083.28 841.08 1084.96 846.00 1084.00 C 850.92 1083.04 858.69 1086.41 862.00 1083.00
C 858.21 1085.74 848.34 1081.13 844.00 1083.00 C 839.66 1084.87 831.30 1080.36 828.00 1084.00 Z"/>
</g>
<g fill="#7D7D7D" fill-opacity="1.00" stroke="None">
<path d="
M 1084.00 1089.00 
C 1089.99 1089.00 1096.02 1088.77 1102.00 1089.00
C 1096.32 1088.19 1089.71 1088.45 1084.00 1089.00 Z"/>
</g>
<g fill="#878787" fill-opacity="1.00" stroke="None">
<path d="
M 684.00 1090.00 
C 691.33 1090.00 698.67 1090.00 706.00 1090.00
C 704.11 1088.15 685.54 1087.54 684.00 1090.00 Z"/>
</g>
<g fill="#8E8E8E" fill-opacity="1.00" stroke="None">
<path d="
M 745.00 1090.00 
C 752.00 1090.00 759.00 1090.00 766.00 1090.00
C 764.47 1087.51 747.09 1088.25 745.00 1090.00 Z"/>
</g>
<g fill="#000100" fill-opacity="1.00" stroke="None">
<path d="
M 1102.00 1089.00 
C 1096.02 1088.77 1089.99 1089.00 1084.00 1089.00
C 1055.96 1086.62 1042.81 1118.34 1049.22 1143.78 C 1055.64 1169.21 1099.53 1160.77 1119.00 1158.00
C 1119.66 1152.66 1119.72 1147.17 1121.00 1142.00
C 1113.62 1144.16 1099.14 1143.89 1092.00 1144.00 C 1084.86 1144.11 1069.73 1144.59 1070.01 1136.01 C 1070.29 1127.43 1088.89 1133.46 1096.00 1132.00 C 1103.11 1130.54 1118.17 1133.09 1126.00 1132.00
C 1130.36 1110.24 1126.81 1089.95 1102.00 1089.00
M 1106.00 1118.00 
C 1104.13 1120.68 1092.31 1119.00 1089.00 1119.00 C 1085.69 1119.00 1073.71 1120.68 1072.00 1118.00
C 1069.73 1114.45 1076.04 1107.32 1080.23 1106.23 C 1084.41 1105.14 1093.45 1105.51 1098.07 1105.93 C 1102.70 1106.34 1110.21 1111.98 1106.00 1118.00 Z"/>
</g>
<g fill="#010101" fill-opacity="1.00" stroke="None">
<path d="
M 766.00 1090.00 
C 759.00 1090.00 752.00 1090.00 745.00 1090.00
C 737.94 1107.33 727.43 1123.45 721.00 1141.00
C 716.94 1136.91 718.33 1129.11 715.78 1124.22 C 713.22 1119.33 713.40 1111.62 710.93 1107.07 C 708.46 1102.53 709.33 1093.26 706.00 1090.00
C 698.67 1090.00 691.33 1090.00 684.00 1090.00
C 688.42 1100.97 690.03 1111.57 694.22 1122.78 C 698.42 1133.98 699.91 1142.35 705.02 1153.98 C 710.14 1165.60 697.75 1176.20 685.00 1170.00
C 687.06 1173.62 676.77 1185.45 683.00 1187.00 C 689.23 1188.55 697.37 1189.39 704.33 1187.33 C 711.28 1185.26 712.59 1186.20 718.75 1178.75 C 724.91 1171.30 730.64 1158.52 735.08 1150.08 C 739.51 1141.63 739.54 1141.27 743.08 1135.08 C 746.61 1128.88 747.93 1124.77 750.75 1119.75 C 753.56 1114.72 757.48 1109.05 758.70 1104.70 C 759.91 1100.34 768.07 1093.37 766.00 1090.00 Z"/>
</g>
<g fill="#000000" fill-opacity="1.00" stroke="None">
<path d="
M 886.00 1161.00 
C 890.27 1161.23 894.73 1161.16 899.00 1161.00
C 907.03 1161.38 913.94 1157.73 921.00 1155.00
C 918.41 1161.42 938.06 1163.32 940.22 1158.22 C 942.38 1153.12 941.14 1142.09 942.67 1135.67 C 944.20 1129.25 943.78 1119.96 945.00 1113.00 C 946.22 1106.04 946.00 1097.14 947.00 1090.00
C 940.00 1090.00 933.00 1090.00 926.00 1090.00
C 925.07 1106.87 921.70 1123.10 921.00 1140.00
C 911.90 1144.55 887.28 1148.49 888.01 1133.01 C 888.73 1117.53 891.47 1105.04 893.00 1090.00
C 883.53 1089.52 871.05 1087.62 870.93 1097.93 C 870.80 1108.23 868.26 1114.48 867.78 1123.78 C 867.30 1133.08 864.84 1141.72 868.03 1149.97 C 871.21 1158.22 877.82 1160.56 886.00 1161.00 Z"/>
</g>
<g fill="#F7F7F7" fill-opacity="1.00" stroke="None">
<path d="
M 1072.00 1118.00 
C 1083.33 1118.00 1094.67 1118.00 1106.00 1118.00
C 1110.21 1111.98 1102.70 1106.34 1098.07 1105.93 C 1093.45 1105.51 1084.41 1105.14 1080.23 1106.23 C 1076.04 1107.32 1069.73 1114.45 1072.00 1118.00 Z"/>
</g>
<g fill="#F9F9F9" fill-opacity="1.00" stroke="None">
<path d="
M 1010.00 1107.00 
C 999.22 1104.77 983.50 1105.77 983.00 1117.00 C 982.49 1128.22 978.21 1140.09 990.00 1143.00 C 1001.79 1145.91 1012.45 1143.22 1016.02 1134.02 C 1019.60 1124.83 1020.20 1109.11 1010.00 1107.00 Z"/>
</g>
<g fill="#7D7E7E" fill-opacity="1.00" stroke="None">
<path d="
M 1106.00 1118.00 
C 1094.67 1118.00 1083.33 1118.00 1072.00 1118.00
C 1073.71 1120.68 1085.69 1119.00 1089.00 1119.00 C 1092.31 1119.00 1104.13 1120.68 1106.00 1118.00 Z"/>
</g>
<g fill="#626262" fill-opacity="1.00" stroke="None">
<path d="
M 899.00 1161.00 
C 894.73 1161.16 890.27 1161.23 886.00 1161.00
C 890.24 1161.69 894.71 1161.61 899.00 1161.00 Z"/>
</g>
</svg>