<svg xmlns="http://www.w3.org/2000/svg" xmlns:v="https://svgstorm.com"
viewBox = "0 0 552 599"
width="552"
height="599">
<g fill="None" fill-opacity="0.0" stroke="#FCFCFC" stroke-opacity="1.00" stroke-width="0.3"><path d="
M 0.00 599.00 
L 552.00 599.00
L 552.00 0.00
L 0.00 0.00
L 0.00 599.00
M 145.00 3.00 
C 156.99 8.10 168.70 14.59 180.23 20.77 C 191.76 26.95 204.00 33.14 215.08 39.92 C 226.15 46.71 236.56 53.19 246.75 61.25 C 256.93 69.32 265.70 77.13 274.75 87.25 C 283.80 97.36 289.67 106.26 295.92 119.08 C 302.18 131.89 321.93 130.83 336.02 132.98 C 350.12 135.12 369.17 138.49 383.00 138.00
C 346.64 113.72 310.05 88.23 275.00 62.00
C 318.51 81.79 361.22 103.90 405.00 123.00
C 415.46 111.73 425.46 99.85 436.00 89.00
C 437.26 87.74 438.09 85.52 440.00 85.00
C 439.49 87.22 438.02 89.80 436.00 91.00
C 430.79 108.82 413.84 122.91 407.00 140.00
C 453.27 101.83 500.10 63.38 545.00 24.00
C 546.23 22.83 547.09 21.36 549.00 21.00
C 549.06 23.22 546.71 24.99 545.00 26.00
C 528.75 42.25 515.17 61.53 499.75 78.75 C 484.34 95.98 469.23 114.35 454.00 132.00
C 453.45 132.24 455.62 132.13 456.00 132.00
C 464.35 129.05 475.18 117.94 482.00 112.00
C 483.85 110.38 485.02 106.81 488.00 107.00
C 485.81 109.23 484.87 112.55 482.00 114.00
C 476.20 126.71 463.54 136.28 456.23 148.23 C 448.92 160.18 437.59 170.02 429.75 181.75 C 421.92 193.48 411.44 204.18 404.00 216.00
C 419.36 203.92 434.55 191.85 450.00 180.00
C 444.02 192.58 435.54 204.14 428.00 216.00
C 453.85 205.59 478.81 192.56 505.00 183.00
C 482.48 198.60 458.93 213.60 436.00 229.00
C 435.33 229.93 435.93 231.15 436.00 231.00
C 441.48 228.97 447.07 226.63 453.00 226.00
C 455.64 246.05 458.40 263.68 461.00 284.00 C 463.60 304.32 465.60 322.19 468.93 343.07 C 472.25 363.96 472.63 378.55 476.99 401.01 C 481.36 423.46 459.37 430.96 439.99 430.99 C 420.61 431.02 400.56 437.06 381.00 438.00 C 361.44 438.94 341.55 444.77 322.00 446.00 C 302.44 447.22 283.11 451.89 263.93 453.93 C 244.75 455.96 222.55 458.84 203.98 460.98 C 185.40 463.12 176.38 477.28 160.00 484.00
C 162.71 479.86 167.35 477.09 170.00 473.00
C 173.07 469.40 176.73 466.27 180.00 463.00
C 190.97 450.17 203.49 438.43 215.00 426.00
C 180.12 450.90 146.46 479.04 111.00 503.00
C 126.61 483.72 144.66 465.81 159.00 446.00
C 107.44 484.28 56.06 522.63 4.00 560.00
C 33.44 523.79 65.38 488.66 96.00 453.00
C 77.34 459.90 60.45 472.17 42.00 480.00
C 60.97 461.07 82.44 444.52 102.00 427.00
C 90.35 425.67 76.62 428.47 64.00 428.00
C 83.74 415.80 105.58 405.52 125.00 393.00
C 89.00 401.27 52.47 415.30 17.00 421.00
C 55.06 398.84 91.82 374.65 129.00 351.00
C 128.85 351.01 128.31 349.96 128.00 350.00
C 110.10 360.41 89.65 367.36 71.00 376.00
C 64.50 321.06 59.45 265.70 52.00 211.00
C 51.83 211.96 51.09 213.47 51.00 215.00
C 49.41 242.43 58.08 269.83 58.98 297.02 C 59.88 324.22 66.10 350.96 68.00 378.00
C 64.85 379.50 62.26 381.73 59.00 383.00
C 58.23 375.04 56.79 367.22 57.00 359.00
C 56.33 354.32 55.11 349.48 55.00 344.00
C 54.56 322.09 50.35 298.76 49.00 277.00 C 47.65 255.24 44.03 232.26 42.00 211.00 C 39.98 189.73 38.19 164.56 35.67 144.33 C 33.15 124.10 31.04 97.77 57.00 96.00
C 60.13 95.44 62.99 95.64 66.00 96.00
C 101.43 96.71 136.65 107.39 172.00 110.00
C 174.32 111.94 169.93 104.93 169.00 104.00
C 149.05 86.95 130.84 67.96 111.00 51.00
C 108.55 48.91 105.63 46.81 104.00 44.00
C 105.96 44.11 107.76 45.79 109.00 47.00
C 144.39 70.54 181.50 91.92 217.00 115.00
C 204.71 76.12 179.57 42.62 152.00 12.00
C 148.41 8.41 143.81 5.26 141.00 1.00
C 142.57 0.70 144.61 1.25 145.00 3.00
M 467.00 543.00 
C 468.01 547.08 467.47 551.08 467.00 555.00
C 466.56 577.19 446.24 585.08 428.00 574.00
C 428.39 580.81 419.14 577.02 415.00 578.00
C 415.45 556.62 419.97 536.26 421.00 515.00
C 425.67 515.00 430.33 515.00 435.00 515.00
C 434.79 521.77 432.81 528.11 433.00 535.00
C 443.49 530.78 464.41 527.75 467.00 543.00
M 180.00 518.00 
C 188.15 527.26 185.97 545.26 195.00 554.00
C 203.39 542.17 209.57 528.06 219.00 517.00
C 223.43 514.76 229.82 516.60 235.00 516.00
C 234.61 517.57 235.94 520.22 234.00 521.00
C 233.30 532.42 231.14 543.71 230.01 555.01 C 228.88 566.31 231.12 583.37 214.00 578.00
C 214.96 564.16 217.31 550.67 219.00 537.00
C 214.80 544.97 208.30 549.86 204.75 558.75 C 201.19 567.64 188.86 574.03 184.69 563.31 C 180.53 552.58 177.88 546.98 174.00 537.00
C 171.72 550.02 170.57 564.20 170.00 578.00
C 165.33 578.00 160.67 578.00 156.00 578.00
C 158.24 557.65 160.08 537.20 163.00 517.00
C 165.57 514.17 177.76 515.45 180.00 518.00
M 355.00 522.00 
C 353.51 534.11 341.88 527.26 332.00 529.00
C 332.60 536.58 329.82 541.32 330.02 549.02 C 330.22 556.72 327.42 561.62 328.01 570.01 C 328.59 578.40 321.44 579.54 313.00 578.00
C 314.27 561.58 317.45 545.63 318.00 529.00
C 311.00 529.00 304.00 529.00 297.00 529.00
C 296.95 524.89 296.76 520.14 299.00 517.00
C 305.19 511.96 318.83 517.86 327.00 516.00 C 335.17 514.14 347.46 517.40 356.00 516.00
C 355.53 517.88 357.06 520.93 355.00 522.00
M 506.00 532.00 
C 514.60 532.17 520.83 534.23 523.00 543.00
C 523.88 546.54 523.49 549.60 523.00 553.00
C 522.64 562.34 516.82 559.90 509.00 560.00 C 501.18 560.10 494.70 559.93 487.00 560.00
C 489.77 573.24 510.09 564.97 520.00 566.00
C 520.21 569.46 518.30 572.40 519.00 576.00
C 506.50 578.14 477.74 583.56 474.03 566.98 C 470.31 550.39 478.51 529.88 497.00 532.00
C 499.89 531.72 503.15 531.65 506.00 532.00
M 263.00 564.00 
C 273.76 553.78 272.44 526.87 293.00 532.00
C 288.18 545.93 278.56 557.99 272.69 571.70 C 266.83 585.40 255.86 603.18 238.00 594.00
C 239.03 590.69 239.75 587.26 241.00 584.00
C 258.75 588.16 254.14 572.89 250.02 562.98 C 245.91 553.06 243.80 542.08 240.00 532.00
C 250.21 529.32 255.52 533.41 256.93 542.07 C 258.33 550.74 261.81 555.52 263.00 564.00
M 396.00 533.00 
C 397.73 531.51 406.52 530.89 408.00 533.00
C 411.99 538.70 404.15 548.33 406.00 555.00 C 407.86 561.67 402.59 571.02 404.00 578.00
C 399.77 576.80 389.93 581.19 391.00 574.00
C 383.15 578.72 363.03 583.62 358.08 571.92 C 353.14 560.21 360.63 543.78 361.00 532.00
C 365.00 532.00 369.00 532.00 373.00 532.00
C 373.39 542.35 371.17 549.54 371.00 560.00 C 370.83 570.46 385.04 567.16 392.00 565.00
C 393.26 554.41 392.97 542.75 396.00 533.00 Z"/>
</g>
<g fill="None" fill-opacity="0.0" stroke="#747474" stroke-opacity="1.00" stroke-width="0.3"><path d="
M 152.00 12.00 
C 149.89 9.53 145.99 4.03 145.00 3.00
C 144.61 1.25 142.57 0.70 141.00 1.00
C 143.81 5.26 148.41 8.41 152.00 12.00 Z"/>
</g>
<g fill="None" fill-opacity="0.0" stroke="#000000" stroke-opacity="1.00" stroke-width="0.3"><path d="
M 152.00 12.00 
C 179.57 42.62 204.71 76.12 217.00 115.00
C 181.50 91.92 144.39 70.54 109.00 47.00
C 108.77 46.73 110.22 50.15 111.00 51.00
C 130.84 67.96 149.05 86.95 169.00 104.00
C 171.45 106.09 174.37 108.19 176.00 111.00
C 174.72 110.72 172.50 111.76 172.00 110.00
C 136.65 107.39 101.43 96.71 66.00 96.00
C 63.04 95.94 59.95 95.80 57.00 96.00
C 31.04 97.77 33.15 124.10 35.67 144.33 C 38.19 164.56 39.98 189.73 42.00 211.00 C 44.03 232.26 47.65 255.24 49.00 277.00 C 50.35 298.76 54.56 322.09 55.00 344.00
C 55.54 348.50 56.73 354.00 57.00 359.00
C 56.79 367.22 58.23 375.04 59.00 383.00
C 62.26 381.73 64.85 379.50 68.00 378.00
C 66.10 350.96 59.88 324.22 58.98 297.02 C 58.08 269.83 49.41 242.43 51.00 215.00
C 50.16 206.33 47.40 196.68 47.67 187.33 C 47.94 177.98 43.63 168.54 45.00 159.00
C 44.57 154.59 43.60 148.94 43.00 144.00
C 42.33 138.47 39.34 130.49 42.00 125.00
C 43.26 130.93 43.60 137.08 45.00 143.00
C 45.41 148.17 45.47 152.85 46.00 158.00
C 47.81 175.61 50.33 193.17 52.00 211.00
C 59.45 265.70 64.50 321.06 71.00 376.00
C 89.65 367.36 110.10 360.41 128.00 350.00
C 131.03 348.24 134.27 345.61 138.00 345.00
C 135.86 347.95 132.16 349.31 129.00 351.00
C 91.82 374.65 55.06 398.84 17.00 421.00
C 52.47 415.30 89.00 401.27 125.00 393.00
C 105.58 405.52 83.74 415.80 64.00 428.00
C 76.62 428.47 90.35 425.67 102.00 427.00
C 82.44 444.52 60.97 461.07 42.00 480.00
C 60.45 472.17 77.34 459.90 96.00 453.00
C 65.38 488.66 33.44 523.79 4.00 560.00
C 56.06 522.63 107.44 484.28 159.00 446.00
C 144.66 465.81 126.61 483.72 111.00 503.00
C 146.46 479.04 180.12 450.90 215.00 426.00
C 203.49 438.43 190.97 450.17 180.00 463.00
C 176.93 466.60 173.27 469.73 170.00 473.00
C 167.35 477.09 162.71 479.86 160.00 484.00
C 176.38 477.28 185.40 463.12 203.98 460.98 C 222.55 458.84 244.75 455.96 263.93 453.93 C 283.11 451.89 302.44 447.22 322.00 446.00 C 341.55 444.77 361.44 438.94 381.00 438.00 C 400.56 437.06 420.61 431.02 439.99 430.99 C 459.37 430.96 481.36 423.46 476.99 401.01 C 472.63 378.55 472.25 363.96 468.93 343.07 C 465.60 322.19 463.60 304.32 461.00 284.00 C 458.40 263.68 455.64 246.05 453.00 226.00
C 447.07 226.63 441.48 228.97 436.00 231.00
C 434.61 231.52 433.18 233.97 431.00 233.00
C 431.98 230.99 434.36 230.36 436.00 229.00
C 458.93 213.60 482.48 198.60 505.00 183.00
C 478.81 192.56 453.85 205.59 428.00 216.00
C 435.54 204.14 444.02 192.58 450.00 180.00
C 434.55 191.85 419.36 203.92 404.00 216.00
C 411.44 204.18 421.92 193.48 429.75 181.75 C 437.59 170.02 448.92 160.18 456.23 148.23 C 463.54 136.28 476.20 126.71 482.00 114.00
C 482.49 112.93 481.97 112.12 482.00 112.00
C 475.18 117.94 464.35 129.05 456.00 132.00
C 454.11 133.55 453.01 137.24 450.00 137.00
C 451.31 135.27 452.62 133.39 454.00 132.00
C 469.23 114.35 484.34 95.98 499.75 78.75 C 515.17 61.53 528.75 42.25 545.00 26.00
C 545.46 25.06 545.02 23.94 545.00 24.00
C 500.10 63.38 453.27 101.83 407.00 140.00
C 413.84 122.91 430.79 108.82 436.00 91.00
C 436.21 90.28 436.05 88.83 436.00 89.00
C 425.46 99.85 415.46 111.73 405.00 123.00
C 361.22 103.90 318.51 81.79 275.00 62.00
C 310.05 88.23 346.64 113.72 383.00 138.00
C 369.17 138.49 350.12 135.12 336.02 132.98 C 321.93 130.83 302.18 131.89 295.92 119.08 C 289.67 106.26 283.80 97.36 274.75 87.25 C 265.70 77.13 256.93 69.32 246.75 61.25 C 236.56 53.19 226.15 46.71 215.08 39.92 C 204.00 33.14 191.76 26.95 180.23 20.77 C 168.70 14.59 156.99 8.10 145.00 3.00
C 145.99 4.03 149.89 9.53 152.00 12.00
M 240.00 63.00 
C 264.68 74.28 278.84 99.13 291.92 122.08 C 305.00 145.02 313.51 180.47 318.00 207.00
C 318.64 210.76 319.27 214.26 320.00 218.00
C 320.39 219.99 320.62 221.93 321.00 224.00
C 321.60 227.25 322.84 231.23 323.00 235.00
C 323.34 236.02 324.07 238.21 325.00 239.00
C 334.49 230.99 342.55 220.96 352.00 213.00
C 374.88 193.45 397.02 172.52 419.00 152.00
C 420.75 150.36 422.06 149.38 424.00 148.00
C 438.05 136.23 449.49 121.25 464.00 110.00
C 420.29 160.27 373.67 209.71 327.00 258.00
C 321.07 264.41 315.23 272.03 309.00 278.00
C 308.84 278.44 309.00 279.00 309.00 279.00
C 309.66 282.02 312.48 283.94 313.00 287.00
C 324.18 279.34 331.42 265.84 342.00 257.00
C 343.18 256.73 344.79 257.00 346.00 257.00
C 348.19 256.70 358.70 253.91 361.00 256.00
C 363.76 255.83 357.80 267.70 355.08 271.08 C 352.35 274.46 348.51 282.12 345.70 286.70 C 342.88 291.27 338.91 298.00 336.08 303.08 C 333.25 308.16 329.87 313.77 327.08 319.08 C 324.28 324.38 320.65 329.34 317.75 334.75 C 314.84 340.15 311.21 346.25 309.00 352.00
C 304.20 348.72 299.50 342.28 295.75 337.25 C 292.01 332.22 284.64 326.20 285.00 321.00
C 287.31 314.86 295.11 311.28 298.75 305.75 C 302.39 300.22 307.96 294.44 313.00 290.00
C 308.21 274.96 298.32 288.80 292.25 296.25 C 286.18 303.69 277.32 311.86 272.00 320.00
C 270.45 321.97 268.75 324.92 266.00 325.00
C 266.52 322.81 264.86 319.38 267.00 318.00
C 267.22 317.70 267.87 317.26 268.00 317.00
C 268.40 316.15 268.88 313.26 268.00 313.00
C 267.84 313.23 267.00 313.00 267.00 313.00
C 261.41 321.00 252.34 328.73 245.00 335.00
C 231.12 346.86 218.83 361.17 206.00 374.00
C 205.29 378.09 208.48 378.89 211.00 380.00
C 225.75 381.92 240.70 376.07 256.00 377.00 C 271.30 377.93 287.50 374.91 303.00 375.00 C 318.50 375.09 334.36 373.06 350.00 373.00 C 365.64 372.94 381.18 370.55 397.00 371.00
C 396.33 356.34 393.37 342.25 391.00 328.00
C 401.21 325.94 410.25 327.82 409.99 338.01 C 409.74 348.19 412.95 353.86 413.98 363.02 C 415.00 372.19 416.43 379.15 418.00 388.00
C 375.58 391.95 333.00 395.33 290.00 397.00
C 278.25 398.14 265.27 399.59 253.00 400.00 C 240.73 400.41 226.92 402.46 214.93 402.93 C 202.93 403.40 186.13 408.69 186.00 393.00
C 180.81 398.98 174.97 404.90 169.00 410.00
C 163.84 414.41 159.10 419.64 154.00 424.00
C 146.97 431.03 140.29 439.97 132.00 445.00
C 132.96 443.43 134.32 441.75 136.00 441.00
C 145.81 429.29 157.99 418.71 168.00 407.00
C 173.49 400.58 180.32 395.08 186.00 389.00
C 186.29 388.52 186.67 387.35 187.00 387.00
C 187.21 380.61 183.57 372.84 183.00 366.00 C 182.43 359.16 181.11 350.99 180.00 344.00
C 179.50 340.88 178.31 337.47 179.00 334.00
C 184.33 334.00 189.67 334.00 195.00 334.00
C 199.88 333.71 199.65 332.39 201.00 338.00
C 203.34 347.75 202.94 358.16 205.00 368.00
C 207.22 368.05 208.99 365.71 210.00 364.00
C 213.98 359.34 218.74 355.26 223.00 351.00
C 233.42 338.81 244.82 326.18 256.00 315.00
C 255.33 313.80 254.36 312.42 253.00 312.00
C 253.97 310.15 254.79 307.76 257.00 307.00
C 258.75 304.84 261.29 302.07 258.00 301.00
C 243.53 305.39 226.79 309.61 213.00 312.00
C 230.20 306.63 246.88 299.67 264.00 294.00
C 264.53 292.72 263.03 292.14 263.00 291.00
C 251.24 274.18 235.18 260.47 223.00 244.00
C 236.30 245.08 248.51 250.51 262.00 251.00
C 254.92 179.04 240.18 105.69 194.00 48.00
C 185.70 38.10 175.82 28.79 167.00 19.00
C 191.80 32.39 217.79 45.42 240.00 63.00
M 227.00 139.00 
C 214.40 138.23 202.28 135.20 189.78 134.22 C 177.27 133.24 164.33 131.17 152.00 130.00 C 139.67 128.84 126.26 126.19 114.00 126.00 C 101.73 125.81 88.29 119.02 76.33 124.33 C 64.36 129.63 69.33 146.84 70.00 158.00 C 70.67 169.16 73.70 183.80 73.99 196.01 C 74.28 208.21 77.30 221.67 77.78 234.22 C 78.26 246.77 79.76 261.08 80.33 273.67 C 80.90 286.26 84.56 298.74 84.78 311.22 C 85.00 323.70 90.17 338.78 86.00 349.00
C 85.22 336.95 83.27 325.94 82.07 313.93 C 80.87 301.91 79.63 289.82 78.22 277.78 C 76.81 265.74 76.71 253.00 75.02 240.98 C 73.34 228.96 72.42 218.10 71.22 205.78 C 70.03 193.46 68.58 182.42 67.22 169.78 C 65.86 157.14 65.37 146.41 64.00 133.00 C 62.63 119.59 77.46 115.54 89.00 118.00 C 100.54 120.46 112.14 120.24 123.67 122.33 C 135.20 124.42 147.44 125.35 159.00 127.00 C 170.56 128.65 182.87 129.74 194.07 131.93 C 205.28 134.11 218.88 132.87 227.00 139.00
M 233.00 134.00 
C 244.49 169.59 253.39 206.02 256.00 244.00
C 245.88 241.26 249.55 228.40 247.67 219.33 C 245.79 210.26 245.80 198.28 244.00 189.00 C 242.20 179.72 239.99 169.89 238.22 160.78 C 236.46 151.67 232.75 142.30 233.00 134.00
M 376.00 154.00 
C 354.08 155.94 331.36 149.04 309.00 148.00
C 317.61 144.29 330.78 148.36 341.67 149.33 C 352.56 150.30 364.87 153.20 376.00 154.00
M 252.00 287.00 
C 239.84 287.75 233.18 272.57 224.75 264.25 C 216.32 255.93 208.03 244.82 200.00 236.00
C 223.36 243.31 235.93 270.01 252.00 287.00
M 231.00 434.00 
C 246.61 430.64 262.95 429.64 279.00 428.00 C 295.05 426.36 311.03 423.81 327.02 422.02 C 343.01 420.24 360.04 418.30 376.00 417.00 C 391.96 415.70 409.05 410.48 425.00 411.00 C 440.95 411.52 458.62 405.08 455.00 387.00 C 451.38 368.92 451.32 356.13 449.00 339.00 C 446.69 321.87 444.67 307.77 443.07 290.93 C 441.48 274.09 438.08 258.87 437.00 242.00
C 442.64 252.23 440.35 267.01 443.33 279.67 C 446.31 292.33 446.52 305.29 448.33 318.67 C 450.14 332.05 452.41 344.00 454.00 358.00 C 455.59 372.00 458.41 381.49 459.00 397.00 C 459.59 412.51 444.53 414.35 431.33 414.33 C 418.13 414.31 405.07 418.17 391.78 418.78 C 378.48 419.39 365.29 421.89 351.98 422.98 C 338.66 424.06 324.40 426.05 311.00 427.00 C 297.60 427.95 285.08 430.74 271.78 431.78 C 258.47 432.81 243.48 434.80 231.00 434.00
M 281.00 327.00 
C 287.90 336.64 297.63 344.67 303.00 355.00
C 293.16 348.82 286.19 338.15 277.00 331.00
C 277.96 329.43 279.32 327.75 281.00 327.00 Z"/>
</g>
<g fill="None" fill-opacity="0.0" stroke="#AAAAAA" stroke-opacity="1.00" stroke-width="0.3"><path d="
M 194.00 48.00 
C 207.58 56.78 217.26 74.22 228.26 87.74 C 239.25 101.27 248.63 120.96 257.00 136.00
C 244.59 99.70 224.11 66.09 197.00 38.00
C 210.81 47.29 224.98 56.05 240.00 63.00
C 217.79 45.42 191.80 32.39 167.00 19.00
C 175.82 28.79 185.70 38.10 194.00 48.00 Z"/>
</g>
<g fill="None" fill-opacity="0.0" stroke="#AFAFAF" stroke-opacity="1.00" stroke-width="0.3"><path d="
M 545.00 24.00 
C 545.02 23.94 545.46 25.06 545.00 26.00
C 546.71 24.99 549.06 23.22 549.00 21.00
C 547.09 21.36 546.23 22.83 545.00 24.00 Z"/>
</g>
<g fill="None" fill-opacity="0.0" stroke="#F9F9F9" stroke-opacity="1.00" stroke-width="0.3"><path d="
M 194.00 48.00 
C 240.18 105.69 254.92 179.04 262.00 251.00
C 248.51 250.51 236.30 245.08 223.00 244.00
C 235.18 260.47 251.24 274.18 263.00 291.00
C 263.16 291.23 264.00 291.00 264.00 291.00
C 262.50 281.15 248.52 269.50 243.00 260.00
C 241.73 257.81 240.37 255.31 239.00 253.00
C 250.41 254.46 260.78 259.68 272.00 262.00
C 278.77 254.11 288.54 250.03 296.25 243.25 C 303.95 236.46 317.49 233.00 321.00 224.00
C 320.62 221.93 320.39 219.99 320.00 218.00
C 316.37 212.50 306.13 225.84 300.75 227.75 C 295.38 229.66 286.24 238.53 280.00 240.00
C 291.51 227.64 306.10 219.16 318.00 207.00
C 313.51 180.47 305.00 145.02 291.92 122.08 C 278.84 99.13 264.68 74.28 240.00 63.00
C 224.98 56.05 210.81 47.29 197.00 38.00
C 224.11 66.09 244.59 99.70 257.00 136.00
C 248.63 120.96 239.25 101.27 228.26 87.74 C 217.26 74.22 207.58 56.78 194.00 48.00 Z"/>
</g>
<g fill="None" fill-opacity="0.0" stroke="#676767" stroke-opacity="1.00" stroke-width="0.3"><path d="
M 111.00 51.00 
C 110.22 50.15 108.77 46.73 109.00 47.00
C 107.76 45.79 105.96 44.11 104.00 44.00
C 105.63 46.81 108.55 48.91 111.00 51.00 Z"/>
</g>
<g fill="None" fill-opacity="0.0" stroke="#4C4C4C" stroke-opacity="1.00" stroke-width="0.3"><path d="
M 436.00 89.00 
C 436.05 88.83 436.21 90.28 436.00 91.00
C 438.02 89.80 439.49 87.22 440.00 85.00
C 438.09 85.52 437.26 87.74 436.00 89.00 Z"/>
</g>
<g fill="None" fill-opacity="0.0" stroke="#757575" stroke-opacity="1.00" stroke-width="0.3"><path d="
M 57.00 96.00 
C 59.95 95.80 63.04 95.94 66.00 96.00
C 62.99 95.64 60.13 95.44 57.00 96.00 Z"/>
</g>
<g fill="None" fill-opacity="0.0" stroke="#7E7E7E" stroke-opacity="1.00" stroke-width="0.3"><path d="
M 172.00 110.00 
C 172.50 111.76 174.72 110.72 176.00 111.00
C 174.37 108.19 171.45 106.09 169.00 104.00
C 169.93 104.93 174.32 111.94 172.00 110.00 Z"/>
</g>
<g fill="None" fill-opacity="0.0" stroke="#676767" stroke-opacity="1.00" stroke-width="0.3"><path d="
M 482.00 112.00 
C 481.97 112.12 482.49 112.93 482.00 114.00
C 484.87 112.55 485.81 109.23 488.00 107.00
C 485.02 106.81 483.85 110.38 482.00 112.00 Z"/>
</g>
<g fill="None" fill-opacity="0.0" stroke="#4F4F4F" stroke-opacity="1.00" stroke-width="0.3"><path d="
M 424.00 148.00 
C 428.02 145.13 430.99 140.77 435.00 138.00
C 435.76 143.45 428.82 149.22 424.00 152.00
C 419.61 155.68 415.04 160.96 411.00 165.00
C 385.05 195.37 355.35 223.65 327.00 252.00
C 325.89 254.65 327.57 255.69 327.00 258.00
C 373.67 209.71 420.29 160.27 464.00 110.00
C 449.49 121.25 438.05 136.23 424.00 148.00 Z"/>
</g>
<g fill="None" fill-opacity="0.0" stroke="#494949" stroke-opacity="1.00" stroke-width="0.3"><path d="
M 227.00 139.00 
C 218.88 132.87 205.28 134.11 194.07 131.93 C 182.87 129.74 170.56 128.65 159.00 127.00 C 147.44 125.35 135.20 124.42 123.67 122.33 C 112.14 120.24 100.54 120.46 89.00 118.00 C 77.46 115.54 62.63 119.59 64.00 133.00 C 65.37 146.41 65.86 157.14 67.22 169.78 C 68.58 182.42 70.03 193.46 71.22 205.78 C 72.42 218.10 73.34 228.96 75.02 240.98 C 76.71 253.00 76.81 265.74 78.22 277.78 C 79.63 289.82 80.87 301.91 82.07 313.93 C 83.27 325.94 85.22 336.95 86.00 349.00
C 90.17 338.78 85.00 323.70 84.78 311.22 C 84.56 298.74 80.90 286.26 80.33 273.67 C 79.76 261.08 78.26 246.77 77.78 234.22 C 77.30 221.67 74.28 208.21 73.99 196.01 C 73.70 183.80 70.67 169.16 70.00 158.00 C 69.33 146.84 64.36 129.63 76.33 124.33 C 88.29 119.02 101.73 125.81 114.00 126.00 C 126.26 126.19 139.67 128.84 152.00 130.00 C 164.33 131.17 177.27 133.24 189.78 134.22 C 202.28 135.20 214.40 138.23 227.00 139.00 Z"/>
</g>
<g fill="None" fill-opacity="0.0" stroke="#474747" stroke-opacity="1.00" stroke-width="0.3"><path d="
M 43.00 144.00 
C 43.08 142.67 42.94 141.33 43.00 140.00
C 44.67 140.24 43.17 142.85 45.00 143.00
C 43.60 137.08 43.26 130.93 42.00 125.00
C 39.34 130.49 42.33 138.47 43.00 144.00 Z"/>
</g>
<g fill="None" fill-opacity="0.0" stroke="#B2B2B2" stroke-opacity="1.00" stroke-width="0.3"><path d="
M 456.00 132.00 
C 455.62 132.13 453.45 132.24 454.00 132.00
C 452.62 133.39 451.31 135.27 450.00 137.00
C 453.01 137.24 454.11 133.55 456.00 132.00 Z"/>
</g>
<g fill="None" fill-opacity="0.0" stroke="#6C6C6C" stroke-opacity="1.00" stroke-width="0.3"><path d="
M 233.00 134.00 
C 232.75 142.30 236.46 151.67 238.22 160.78 C 239.99 169.89 242.20 179.72 244.00 189.00 C 245.80 198.28 245.79 210.26 247.67 219.33 C 249.55 228.40 245.88 241.26 256.00 244.00
C 253.39 206.02 244.49 169.59 233.00 134.00 Z"/>
</g>
<g fill="None" fill-opacity="0.0" stroke="#777777" stroke-opacity="1.00" stroke-width="0.3"><path d="
M 424.00 148.00 
C 422.06 149.38 420.75 150.36 419.00 152.00
C 417.08 155.27 413.71 160.29 410.00 164.00
C 411.54 162.68 413.62 161.38 415.00 160.00
C 417.83 156.69 421.52 153.27 424.00 152.00
C 428.82 149.22 435.76 143.45 435.00 138.00
C 430.99 140.77 428.02 145.13 424.00 148.00 Z"/>
</g>
<g fill="None" fill-opacity="0.0" stroke="#868686" stroke-opacity="1.00" stroke-width="0.3"><path d="
M 43.00 144.00 
C 43.60 148.94 44.57 154.59 45.00 159.00
C 45.05 158.65 45.93 158.24 46.00 158.00
C 45.47 152.85 45.41 148.17 45.00 143.00
C 43.17 142.85 44.67 140.24 43.00 140.00
C 42.94 141.33 43.08 142.67 43.00 144.00 Z"/>
</g>
<g fill="None" fill-opacity="0.0" stroke="#4A4A4A" stroke-opacity="1.00" stroke-width="0.3"><path d="
M 376.00 154.00 
C 364.87 153.20 352.56 150.30 341.67 149.33 C 330.78 148.36 317.61 144.29 309.00 148.00
C 331.36 149.04 354.08 155.94 376.00 154.00 Z"/>
</g>
<g fill="None" fill-opacity="0.0" stroke="#B2B2B2" stroke-opacity="1.00" stroke-width="0.3"><path d="
M 415.00 160.00 
C 413.65 161.58 412.31 163.47 411.00 165.00
C 415.04 160.96 419.61 155.68 424.00 152.00
C 421.52 153.27 417.83 156.69 415.00 160.00 Z"/>
</g>
<g fill="None" fill-opacity="0.0" stroke="#5B5B5B" stroke-opacity="1.00" stroke-width="0.3"><path d="
M 352.00 213.00 
C 349.73 215.27 347.54 217.89 345.25 220.25 C 342.96 222.60 340.13 224.49 338.25 227.25 C 336.37 230.00 332.41 230.81 331.25 234.25 C 330.09 237.69 323.63 238.40 323.00 239.00
C 323.16 239.66 323.74 240.36 324.00 241.00
C 324.48 242.19 324.39 244.56 326.00 245.00
C 353.27 217.73 380.76 188.99 410.00 164.00
C 413.71 160.29 417.08 155.27 419.00 152.00
C 397.02 172.52 374.88 193.45 352.00 213.00 Z"/>
</g>
<g fill="None" fill-opacity="0.0" stroke="#ABABAB" stroke-opacity="1.00" stroke-width="0.3"><path d="
M 45.00 159.00 
C 43.63 168.54 47.94 177.98 47.67 187.33 C 47.40 196.68 50.16 206.33 51.00 215.00
C 51.09 213.47 51.83 211.96 52.00 211.00
C 50.33 193.17 47.81 175.61 46.00 158.00
C 45.93 158.24 45.05 158.65 45.00 159.00 Z"/>
</g>
<g fill="None" fill-opacity="0.0" stroke="#EBEBEB" stroke-opacity="1.00" stroke-width="0.3"><path d="
M 410.00 164.00 
C 380.76 188.99 353.27 217.73 326.00 245.00
C 317.43 253.57 305.74 270.11 293.00 262.00
C 292.18 264.94 298.91 266.63 296.00 269.00
C 293.16 270.71 287.19 266.92 285.00 270.00
C 289.10 269.46 292.23 272.30 296.00 273.00
C 291.13 281.18 282.46 287.86 274.00 292.00
C 276.21 295.35 272.78 298.29 270.00 300.00
C 267.20 302.80 264.47 306.23 262.00 309.00
C 260.12 311.12 257.93 313.07 256.00 315.00
C 244.82 326.18 233.42 338.81 223.00 351.00
C 219.02 355.66 214.26 359.74 210.00 364.00
C 208.99 365.71 207.22 368.05 205.00 368.00
C 202.94 358.16 203.34 347.75 201.00 338.00
C 200.64 337.01 199.30 335.61 200.00 334.00
C 198.33 334.00 196.67 334.00 195.00 334.00
C 189.67 334.00 184.33 334.00 179.00 334.00
C 178.31 337.47 179.50 340.88 180.00 344.00
C 184.50 354.55 198.10 361.05 202.00 372.00
C 195.85 375.94 192.82 382.92 187.00 387.00
C 186.67 387.35 186.29 388.52 186.00 389.00
C 181.79 395.92 173.61 401.39 168.00 407.00
C 157.99 418.71 145.81 429.29 136.00 441.00
C 142.23 435.68 147.82 429.28 154.00 424.00
C 159.10 419.64 163.84 414.41 169.00 410.00
C 174.63 404.38 180.00 398.18 186.00 393.00
C 192.67 387.24 199.69 380.31 206.00 374.00
C 218.83 361.17 231.12 346.86 245.00 335.00
C 251.44 328.56 258.77 317.02 267.00 313.00
C 267.00 313.00 267.84 313.23 268.00 313.00
C 276.80 300.42 291.28 291.33 301.00 280.00
C 303.95 280.08 307.26 282.42 309.00 279.00
C 309.00 279.00 308.84 278.44 309.00 278.00
C 312.85 267.33 318.25 260.75 327.00 252.00
C 355.35 223.65 385.05 195.37 411.00 165.00
C 412.31 163.47 413.65 161.58 415.00 160.00
C 413.62 161.38 411.54 162.68 410.00 164.00 Z"/>
</g>
<g fill="None" fill-opacity="0.0" stroke="#A6A6A6" stroke-opacity="1.00" stroke-width="0.3"><path d="
M 320.00 218.00 
C 319.27 214.26 318.64 210.76 318.00 207.00
C 306.10 219.16 291.51 227.64 280.00 240.00
C 286.24 238.53 295.38 229.66 300.75 227.75 C 306.13 225.84 316.37 212.50 320.00 218.00 Z"/>
</g>
<g fill="None" fill-opacity="0.0" stroke="#373737" stroke-opacity="1.00" stroke-width="0.3"><path d="
M 323.00 235.00 
C 323.05 236.24 322.71 237.80 323.00 239.00
C 323.63 238.40 330.09 237.69 331.25 234.25 C 332.41 230.81 336.37 230.00 338.25 227.25 C 340.13 224.49 342.96 222.60 345.25 220.25 C 347.54 217.89 349.73 215.27 352.00 213.00
C 342.55 220.96 334.49 230.99 325.00 239.00
C 324.07 238.21 323.34 236.02 323.00 235.00 Z"/>
</g>
<g fill="None" fill-opacity="0.0" stroke="#A5A5A5" stroke-opacity="1.00" stroke-width="0.3"><path d="
M 243.00 260.00 
C 245.43 263.17 249.07 267.43 251.30 270.70 C 253.53 273.97 257.43 279.55 260.25 281.75 C 263.07 283.96 266.82 293.75 265.00 293.00
C 265.55 293.68 268.29 295.81 269.00 296.00
C 269.65 295.91 271.39 295.77 272.00 296.00
C 273.38 296.52 270.68 299.27 270.00 300.00
C 272.78 298.29 276.21 295.35 274.00 292.00
C 282.46 287.86 291.13 281.18 296.00 273.00
C 292.23 272.30 289.10 269.46 285.00 270.00
C 287.19 266.92 293.16 270.71 296.00 269.00
C 295.73 265.68 291.56 264.31 291.00 261.00
C 305.41 270.33 311.60 242.74 324.00 241.00
C 323.74 240.36 323.16 239.66 323.00 239.00
C 322.71 237.80 323.05 236.24 323.00 235.00
C 322.84 231.23 321.60 227.25 321.00 224.00
C 317.49 233.00 303.95 236.46 296.25 243.25 C 288.54 250.03 278.77 254.11 272.00 262.00
C 260.78 259.68 250.41 254.46 239.00 253.00
C 240.37 255.31 241.73 257.81 243.00 260.00 Z"/>
</g>
<g fill="None" fill-opacity="0.0" stroke="#A2A2A2" stroke-opacity="1.00" stroke-width="0.3"><path d="
M 436.00 231.00 
C 435.93 231.15 435.33 229.93 436.00 229.00
C 434.36 230.36 431.98 230.99 431.00 233.00
C 433.18 233.97 434.61 231.52 436.00 231.00 Z"/>
</g>
<g fill="None" fill-opacity="0.0" stroke="#686868" stroke-opacity="1.00" stroke-width="0.3"><path d="
M 252.00 287.00 
C 235.93 270.01 223.36 243.31 200.00 236.00
C 208.03 244.82 216.32 255.93 224.75 264.25 C 233.18 272.57 239.84 287.75 252.00 287.00 Z"/>
</g>
<g fill="None" fill-opacity="0.0" stroke="#C2C2C2" stroke-opacity="1.00" stroke-width="0.3"><path d="
M 296.00 269.00 
C 298.91 266.63 292.18 264.94 293.00 262.00
C 305.74 270.11 317.43 253.57 326.00 245.00
C 324.39 244.56 324.48 242.19 324.00 241.00
C 311.60 242.74 305.41 270.33 291.00 261.00
C 291.56 264.31 295.73 265.68 296.00 269.00 Z"/>
</g>
<g fill="None" fill-opacity="0.0" stroke="#474747" stroke-opacity="1.00" stroke-width="0.3"><path d="
M 231.00 434.00 
C 243.48 434.80 258.47 432.81 271.78 431.78 C 285.08 430.74 297.60 427.95 311.00 427.00 C 324.40 426.05 338.66 424.06 351.98 422.98 C 365.29 421.89 378.48 419.39 391.78 418.78 C 405.07 418.17 418.13 414.31 431.33 414.33 C 444.53 414.35 459.59 412.51 459.00 397.00 C 458.41 381.49 455.59 372.00 454.00 358.00 C 452.41 344.00 450.14 332.05 448.33 318.67 C 446.52 305.29 446.31 292.33 443.33 279.67 C 440.35 267.01 442.64 252.23 437.00 242.00
C 438.08 258.87 441.48 274.09 443.07 290.93 C 444.67 307.77 446.69 321.87 449.00 339.00 C 451.32 356.13 451.38 368.92 455.00 387.00 C 458.62 405.08 440.95 411.52 425.00 411.00 C 409.05 410.48 391.96 415.70 376.00 417.00 C 360.04 418.30 343.01 420.24 327.02 422.02 C 311.03 423.81 295.05 426.36 279.00 428.00 C 262.95 429.64 246.61 430.64 231.00 434.00 Z"/>
</g>
<g fill="None" fill-opacity="0.0" stroke="#BBBBBB" stroke-opacity="1.00" stroke-width="0.3"><path d="
M 309.00 278.00 
C 315.23 272.03 321.07 264.41 327.00 258.00
C 327.57 255.69 325.89 254.65 327.00 252.00
C 318.25 260.75 312.85 267.33 309.00 278.00 Z"/>
</g>
<g fill="None" fill-opacity="0.0" stroke="#585858" stroke-opacity="1.00" stroke-width="0.3"><path d="
M 346.00 257.00 
C 349.00 257.00 352.00 257.00 355.00 257.00
C 356.29 257.00 357.73 257.18 359.00 257.00
C 358.80 257.03 361.87 256.79 361.00 256.00
C 358.70 253.91 348.19 256.70 346.00 257.00 Z"/>
</g>
<g fill="None" fill-opacity="0.0" stroke="#F7F7F7" stroke-opacity="1.00" stroke-width="0.3"><path d="
M 359.00 257.00 
C 352.69 261.49 347.15 268.12 340.75 272.75 C 334.36 277.38 327.47 283.35 321.75 288.75 C 316.04 294.16 308.61 298.79 303.75 304.75 C 298.89 310.71 288.25 314.16 285.00 321.00
C 284.64 326.20 292.01 332.22 295.75 337.25 C 299.50 342.28 304.20 348.72 309.00 352.00
C 311.21 346.25 314.84 340.15 317.75 334.75 C 320.65 329.34 324.28 324.38 327.08 319.08 C 329.87 313.77 333.25 308.16 336.08 303.08 C 338.91 298.00 342.88 291.27 345.70 286.70 C 348.51 282.12 352.35 274.46 355.08 271.08 C 357.80 267.70 363.76 255.83 361.00 256.00
C 361.87 256.79 358.80 257.03 359.00 257.00 Z"/>
</g>
<g fill="None" fill-opacity="0.0" stroke="#9A9A9A" stroke-opacity="1.00" stroke-width="0.3"><path d="
M 309.00 279.00 
C 307.26 282.42 303.95 280.08 301.00 280.00
C 291.28 291.33 276.80 300.42 268.00 313.00
C 268.88 313.26 268.40 316.15 268.00 317.00
C 268.15 318.65 267.89 320.34 268.00 322.00
C 269.25 321.70 269.71 320.17 271.00 320.00
C 271.25 319.75 272.00 320.00 272.00 320.00
C 277.32 311.86 286.18 303.69 292.25 296.25 C 298.32 288.80 308.21 274.96 313.00 290.00
C 307.96 294.44 302.39 300.22 298.75 305.75 C 295.11 311.28 287.31 314.86 285.00 321.00
C 288.25 314.16 298.89 310.71 303.75 304.75 C 308.61 298.79 316.04 294.16 321.75 288.75 C 327.47 283.35 334.36 277.38 340.75 272.75 C 347.15 268.12 352.69 261.49 359.00 257.00
C 357.73 257.18 356.29 257.00 355.00 257.00
C 350.44 257.62 344.70 258.42 340.00 260.00
C 340.30 258.75 341.83 258.29 342.00 257.00
C 331.42 265.84 324.18 279.34 313.00 287.00
C 312.48 283.94 309.66 282.02 309.00 279.00 Z"/>
</g>
<g fill="None" fill-opacity="0.0" stroke="#D1D1D1" stroke-opacity="1.00" stroke-width="0.3"><path d="
M 355.00 257.00 
C 352.00 257.00 349.00 257.00 346.00 257.00
C 344.79 257.00 343.18 256.73 342.00 257.00
C 341.83 258.29 340.30 258.75 340.00 260.00
C 344.70 258.42 350.44 257.62 355.00 257.00 Z"/>
</g>
<g fill="None" fill-opacity="0.0" stroke="#CCCCCC" stroke-opacity="1.00" stroke-width="0.3"><path d="
M 264.00 291.00 
C 264.50 291.25 264.70 292.64 265.00 293.00
C 266.82 293.75 263.07 283.96 260.25 281.75 C 257.43 279.55 253.53 273.97 251.30 270.70 C 249.07 267.43 245.43 263.17 243.00 260.00
C 248.52 269.50 262.50 281.15 264.00 291.00 Z"/>
</g>
<g fill="None" fill-opacity="0.0" stroke="#646464" stroke-opacity="1.00" stroke-width="0.3"><path d="
M 258.00 301.00 
C 261.51 299.93 265.00 296.53 269.00 296.00
C 268.29 295.81 265.55 293.68 265.00 293.00
C 264.70 292.64 264.50 291.25 264.00 291.00
C 264.00 291.00 263.16 291.23 263.00 291.00
C 263.03 292.14 264.53 292.72 264.00 294.00
C 246.88 299.67 230.20 306.63 213.00 312.00
C 226.79 309.61 243.53 305.39 258.00 301.00 Z"/>
</g>
<g fill="None" fill-opacity="0.0" stroke="#323232" stroke-opacity="1.00" stroke-width="0.3"><path d="
M 258.00 301.00 
C 261.29 302.07 258.75 304.84 257.00 307.00
C 261.69 302.40 265.66 298.31 272.00 296.00
C 271.39 295.77 269.65 295.91 269.00 296.00
C 265.00 296.53 261.51 299.93 258.00 301.00 Z"/>
</g>
<g fill="None" fill-opacity="0.0" stroke="#575757" stroke-opacity="1.00" stroke-width="0.3"><path d="
M 257.00 307.00 
C 254.79 307.76 253.97 310.15 253.00 312.00
C 254.36 312.42 255.33 313.80 256.00 315.00
C 257.93 313.07 260.12 311.12 262.00 309.00
C 262.39 307.14 260.37 306.56 260.00 305.00
C 263.93 305.59 266.91 302.83 270.00 300.00
C 270.68 299.27 273.38 296.52 272.00 296.00
C 265.66 298.31 261.69 302.40 257.00 307.00 Z"/>
</g>
<g fill="None" fill-opacity="0.0" stroke="#818181" stroke-opacity="1.00" stroke-width="0.3"><path d="
M 262.00 309.00 
C 264.47 306.23 267.20 302.80 270.00 300.00
C 266.91 302.83 263.93 305.59 260.00 305.00
C 260.37 306.56 262.39 307.14 262.00 309.00 Z"/>
</g>
<g fill="None" fill-opacity="0.0" stroke="#6F6F6F" stroke-opacity="1.00" stroke-width="0.3"><path d="
M 245.00 335.00 
C 252.34 328.73 261.41 321.00 267.00 313.00
C 258.77 317.02 251.44 328.56 245.00 335.00 Z"/>
</g>
<g fill="None" fill-opacity="0.0" stroke="#707070" stroke-opacity="1.00" stroke-width="0.3"><path d="
M 267.00 318.00 
C 266.64 319.93 267.27 322.05 267.00 324.00
C 268.57 323.04 270.25 321.68 271.00 320.00
C 269.71 320.17 269.25 321.70 268.00 322.00
C 267.89 320.34 268.15 318.65 268.00 317.00
C 267.87 317.26 267.22 317.70 267.00 318.00 Z"/>
</g>
<g fill="None" fill-opacity="0.0" stroke="#313131" stroke-opacity="1.00" stroke-width="0.3"><path d="
M 272.00 320.00 
C 272.00 320.00 271.25 319.75 271.00 320.00
C 270.25 321.68 268.57 323.04 267.00 324.00
C 267.27 322.05 266.64 319.93 267.00 318.00
C 264.86 319.38 266.52 322.81 266.00 325.00
C 268.75 324.92 270.45 321.97 272.00 320.00 Z"/>
</g>
<g fill="None" fill-opacity="0.0" stroke="#737373" stroke-opacity="1.00" stroke-width="0.3"><path d="
M 281.00 327.00 
C 279.32 327.75 277.96 329.43 277.00 331.00
C 286.19 338.15 293.16 348.82 303.00 355.00
C 297.63 344.67 287.90 336.64 281.00 327.00 Z"/>
</g>
<g fill="None" fill-opacity="0.0" stroke="#F8F8F8" stroke-opacity="1.00" stroke-width="0.3"><path d="
M 211.00 380.00 
C 222.59 385.12 237.39 385.83 250.02 388.98 C 262.66 392.12 276.96 395.78 290.00 397.00
C 333.00 395.33 375.58 391.95 418.00 388.00
C 416.43 379.15 415.00 372.19 413.98 363.02 C 412.95 353.86 409.74 348.19 409.99 338.01 C 410.25 327.82 401.21 325.94 391.00 328.00
C 393.37 342.25 396.33 356.34 397.00 371.00
C 381.18 370.55 365.64 372.94 350.00 373.00 C 334.36 373.06 318.50 375.09 303.00 375.00 C 287.50 374.91 271.30 377.93 256.00 377.00 C 240.70 376.07 225.75 381.92 211.00 380.00 Z"/>
</g>
<g fill="None" fill-opacity="0.0" stroke="#8A8A8A" stroke-opacity="1.00" stroke-width="0.3"><path d="
M 195.00 334.00 
C 196.67 334.00 198.33 334.00 200.00 334.00
C 199.30 335.61 200.64 337.01 201.00 338.00
C 199.65 332.39 199.88 333.71 195.00 334.00 Z"/>
</g>
<g fill="None" fill-opacity="0.0" stroke="#8D8D8D" stroke-opacity="1.00" stroke-width="0.3"><path d="
M 57.00 359.00 
C 56.73 354.00 55.54 348.50 55.00 344.00
C 55.11 349.48 56.33 354.32 57.00 359.00 Z"/>
</g>
<g fill="None" fill-opacity="0.0" stroke="#979797" stroke-opacity="1.00" stroke-width="0.3"><path d="
M 187.00 387.00 
C 192.82 382.92 195.85 375.94 202.00 372.00
C 198.10 361.05 184.50 354.55 180.00 344.00
C 181.11 350.99 182.43 359.16 183.00 366.00 C 183.57 372.84 187.21 380.61 187.00 387.00 Z"/>
</g>
<g fill="None" fill-opacity="0.0" stroke="#949494" stroke-opacity="1.00" stroke-width="0.3"><path d="
M 128.00 350.00 
C 128.31 349.96 128.85 351.01 129.00 351.00
C 132.16 349.31 135.86 347.95 138.00 345.00
C 134.27 345.61 131.03 348.24 128.00 350.00 Z"/>
</g>
<g fill="None" fill-opacity="0.0" stroke="#6B6B6B" stroke-opacity="1.00" stroke-width="0.3"><path d="
M 210.00 364.00 
C 214.26 359.74 219.02 355.66 223.00 351.00
C 218.74 355.26 213.98 359.34 210.00 364.00 Z"/>
</g>
<g fill="None" fill-opacity="0.0" stroke="#9D9D9D" stroke-opacity="1.00" stroke-width="0.3"><path d="
M 186.00 393.00 
C 186.13 408.69 202.93 403.40 214.93 402.93 C 226.92 402.46 240.73 400.41 253.00 400.00 C 265.27 399.59 278.25 398.14 290.00 397.00
C 276.96 395.78 262.66 392.12 250.02 388.98 C 237.39 385.83 222.59 385.12 211.00 380.00
C 208.48 378.89 205.29 378.09 206.00 374.00
C 199.69 380.31 192.67 387.24 186.00 393.00 Z"/>
</g>
<g fill="None" fill-opacity="0.0" stroke="#717171" stroke-opacity="1.00" stroke-width="0.3"><path d="
M 168.00 407.00 
C 173.61 401.39 181.79 395.92 186.00 389.00
C 180.32 395.08 173.49 400.58 168.00 407.00 Z"/>
</g>
<g fill="None" fill-opacity="0.0" stroke="#555555" stroke-opacity="1.00" stroke-width="0.3"><path d="
M 169.00 410.00 
C 174.97 404.90 180.81 398.98 186.00 393.00
C 180.00 398.18 174.63 404.38 169.00 410.00 Z"/>
</g>
<g fill="None" fill-opacity="0.0" stroke="#747474" stroke-opacity="1.00" stroke-width="0.3"><path d="
M 136.00 441.00 
C 134.32 441.75 132.96 443.43 132.00 445.00
C 140.29 439.97 146.97 431.03 154.00 424.00
C 147.82 429.28 142.23 435.68 136.00 441.00 Z"/>
</g>
<g fill="None" fill-opacity="0.0" stroke="#818181" stroke-opacity="1.00" stroke-width="0.3"><path d="
M 170.00 473.00 
C 173.27 469.73 176.93 466.60 180.00 463.00
C 176.73 466.27 173.07 469.40 170.00 473.00 Z"/>
</g>
<g fill="None" fill-opacity="0.0" stroke="#010101" stroke-opacity="1.00" stroke-width="0.3"><path d="
M 467.00 555.00 
C 467.08 551.13 467.48 546.83 467.00 543.00
C 464.41 527.75 443.49 530.78 433.00 535.00
C 432.81 528.11 434.79 521.77 435.00 515.00
C 430.33 515.00 425.67 515.00 421.00 515.00
C 419.97 536.26 415.45 556.62 415.00 578.00
C 419.14 577.02 428.39 580.81 428.00 574.00
C 446.24 585.08 466.56 577.19 467.00 555.00
M 448.00 543.00 
C 454.98 544.73 455.56 553.11 453.00 560.00 C 450.45 566.90 444.73 566.90 436.93 566.07 C 429.12 565.25 430.40 557.17 431.00 550.00 C 431.60 542.83 442.01 541.52 448.00 543.00 Z"/>
</g>
<g fill="None" fill-opacity="0.0" stroke="#616161" stroke-opacity="1.00" stroke-width="0.3"><path d="
M 163.00 517.00 
C 167.86 518.47 175.82 514.60 180.00 518.00
C 177.76 515.45 165.57 514.17 163.00 517.00 Z"/>
</g>
<g fill="None" fill-opacity="0.0" stroke="#878787" stroke-opacity="1.00" stroke-width="0.3"><path d="
M 219.00 517.00 
C 223.51 515.52 229.37 518.11 234.00 517.00
C 234.00 518.33 234.00 519.67 234.00 521.00
C 235.94 520.22 234.61 517.57 235.00 516.00
C 229.82 516.60 223.43 514.76 219.00 517.00 Z"/>
</g>
<g fill="None" fill-opacity="0.0" stroke="#848484" stroke-opacity="1.00" stroke-width="0.3"><path d="
M 299.00 517.00 
C 303.67 514.37 311.44 518.15 317.00 517.00 C 322.56 515.85 330.07 517.60 336.00 517.00 C 341.93 516.40 348.97 517.45 355.00 517.00
C 355.00 518.67 355.00 520.33 355.00 522.00
C 357.06 520.93 355.53 517.88 356.00 516.00
C 347.46 517.40 335.17 514.14 327.00 516.00 C 318.83 517.86 305.19 511.96 299.00 517.00 Z"/>
</g>
<g fill="None" fill-opacity="0.0" stroke="#010101" stroke-opacity="1.00" stroke-width="0.3"><path d="
M 234.00 521.00 
C 234.00 519.67 234.00 518.33 234.00 517.00
C 229.37 518.11 223.51 515.52 219.00 517.00
C 209.57 528.06 203.39 542.17 195.00 554.00
C 185.97 545.26 188.15 527.26 180.00 518.00
C 175.82 514.60 167.86 518.47 163.00 517.00
C 160.08 537.20 158.24 557.65 156.00 578.00
C 160.67 578.00 165.33 578.00 170.00 578.00
C 170.57 564.20 171.72 550.02 174.00 537.00
C 177.88 546.98 180.53 552.58 184.69 563.31 C 188.86 574.03 201.19 567.64 204.75 558.75 C 208.30 549.86 214.80 544.97 219.00 537.00
C 217.31 550.67 214.96 564.16 214.00 578.00
C 231.12 583.37 228.88 566.31 230.01 555.01 C 231.14 543.71 233.30 532.42 234.00 521.00 Z"/>
</g>
<g fill="None" fill-opacity="0.0" stroke="#010101" stroke-opacity="1.00" stroke-width="0.3"><path d="
M 355.00 522.00 
C 355.00 520.33 355.00 518.67 355.00 517.00
C 348.97 517.45 341.93 516.40 336.00 517.00 C 330.07 517.60 322.56 515.85 317.00 517.00 C 311.44 518.15 303.67 514.37 299.00 517.00
C 296.76 520.14 296.95 524.89 297.00 529.00
C 304.00 529.00 311.00 529.00 318.00 529.00
C 317.45 545.63 314.27 561.58 313.00 578.00
C 321.44 579.54 328.59 578.40 328.01 570.01 C 327.42 561.62 330.22 556.72 330.02 549.02 C 329.82 541.32 332.60 536.58 332.00 529.00
C 341.88 527.26 353.51 534.11 355.00 522.00 Z"/>
</g>
<g fill="None" fill-opacity="0.0" stroke="#898989" stroke-opacity="1.00" stroke-width="0.3"><path d="
M 497.00 532.00 
C 500.00 532.00 503.00 531.94 506.00 532.00
C 503.15 531.65 499.89 531.72 497.00 532.00 Z"/>
</g>
<g fill="None" fill-opacity="0.0" stroke="#030303" stroke-opacity="1.00" stroke-width="0.3"><path d="
M 263.00 564.00 
C 261.81 555.52 258.33 550.74 256.93 542.07 C 255.52 533.41 250.21 529.32 240.00 532.00
C 243.80 542.08 245.91 553.06 250.02 562.98 C 254.14 572.89 258.75 588.16 241.00 584.00
C 239.75 587.26 239.03 590.69 238.00 594.00
C 255.86 603.18 266.83 585.40 272.69 571.70 C 278.56 557.99 288.18 545.93 293.00 532.00
C 272.44 526.87 273.76 553.78 263.00 564.00 Z"/>
</g>
<g fill="None" fill-opacity="0.0" stroke="#030303" stroke-opacity="1.00" stroke-width="0.3"><path d="
M 408.00 533.00 
C 404.79 534.32 398.94 531.24 396.00 533.00
C 392.97 542.75 393.26 554.41 392.00 565.00
C 385.04 567.16 370.83 570.46 371.00 560.00 C 371.17 549.54 373.39 542.35 373.00 532.00
C 369.00 532.00 365.00 532.00 361.00 532.00
C 360.63 543.78 353.14 560.21 358.08 571.92 C 363.03 583.62 383.15 578.72 391.00 574.00
C 389.93 581.19 399.77 576.80 404.00 578.00
C 402.59 571.02 407.86 561.67 406.00 555.00 C 404.15 548.33 411.99 538.70 408.00 533.00 Z"/>
</g>
<g fill="None" fill-opacity="0.0" stroke="#727272" stroke-opacity="1.00" stroke-width="0.3"><path d="
M 396.00 533.00 
C 398.94 531.24 404.79 534.32 408.00 533.00
C 406.52 530.89 397.73 531.51 396.00 533.00 Z"/>
</g>
<g fill="None" fill-opacity="0.0" stroke="#020202" stroke-opacity="1.00" stroke-width="0.3"><path d="
M 523.00 553.00 
C 523.12 549.81 523.39 546.17 523.00 543.00
C 520.83 534.23 514.60 532.17 506.00 532.00
C 503.00 531.94 500.00 532.00 497.00 532.00
C 478.51 529.88 470.31 550.39 474.03 566.98 C 477.74 583.56 506.50 578.14 519.00 576.00
C 518.30 572.40 520.21 569.46 520.00 566.00
C 510.09 564.97 489.77 573.24 487.00 560.00
C 494.70 559.93 501.18 560.10 509.00 560.00 C 516.82 559.90 522.64 562.34 523.00 553.00
M 511.00 551.00 
C 503.67 551.00 496.33 551.00 489.00 551.00
C 487.43 538.53 512.68 538.62 511.00 551.00 Z"/>
</g>
<g fill="None" fill-opacity="0.0" stroke="#EFEFEF" stroke-opacity="1.00" stroke-width="0.3"><path d="
M 511.00 551.00 
C 512.68 538.62 487.43 538.53 489.00 551.00
C 496.33 551.00 503.67 551.00 511.00 551.00 Z"/>
</g>
<g fill="None" fill-opacity="0.0" stroke="#F1F1F1" stroke-opacity="1.00" stroke-width="0.3"><path d="
M 448.00 543.00 
C 442.01 541.52 431.60 542.83 431.00 550.00 C 430.40 557.17 429.12 565.25 436.93 566.07 C 444.73 566.90 450.45 566.90 453.00 560.00 C 455.56 553.11 454.98 544.73 448.00 543.00 Z"/>
</g>
<g fill="None" fill-opacity="0.0" stroke="#727272" stroke-opacity="1.00" stroke-width="0.3"><path d="
M 467.00 555.00 
C 467.47 551.08 468.01 547.08 467.00 543.00
C 467.48 546.83 467.08 551.13 467.00 555.00 Z"/>
</g>
<g fill="None" fill-opacity="0.0" stroke="#676767" stroke-opacity="1.00" stroke-width="0.3"><path d="
M 523.00 553.00 
C 523.49 549.60 523.88 546.54 523.00 543.00
C 523.39 546.17 523.12 549.81 523.00 553.00 Z"/>
</g>
<g fill="#FCFCFC" fill-opacity="1.00" stroke="None">
<path d="
M 0.00 599.00 
L 552.00 599.00
L 552.00 0.00
L 0.00 0.00
L 0.00 599.00
M 145.00 3.00 
C 156.99 8.10 168.70 14.59 180.23 20.77 C 191.76 26.95 204.00 33.14 215.08 39.92 C 226.15 46.71 236.56 53.19 246.75 61.25 C 256.93 69.32 265.70 77.13 274.75 87.25 C 283.80 97.36 289.67 106.26 295.92 119.08 C 302.18 131.89 321.93 130.83 336.02 132.98 C 350.12 135.12 369.17 138.49 383.00 138.00
C 346.64 113.72 310.05 88.23 275.00 62.00
C 318.51 81.79 361.22 103.90 405.00 123.00
C 415.46 111.73 425.46 99.85 436.00 89.00
C 437.26 87.74 438.09 85.52 440.00 85.00
C 439.49 87.22 438.02 89.80 436.00 91.00
C 430.79 108.82 413.84 122.91 407.00 140.00
C 453.27 101.83 500.10 63.38 545.00 24.00
C 546.23 22.83 547.09 21.36 549.00 21.00
C 549.06 23.22 546.71 24.99 545.00 26.00
C 528.75 42.25 515.17 61.53 499.75 78.75 C 484.34 95.98 469.23 114.35 454.00 132.00
C 453.45 132.24 455.62 132.13 456.00 132.00
C 464.35 129.05 475.18 117.94 482.00 112.00
C 483.85 110.38 485.02 106.81 488.00 107.00
C 485.81 109.23 484.87 112.55 482.00 114.00
C 476.20 126.71 463.54 136.28 456.23 148.23 C 448.92 160.18 437.59 170.02 429.75 181.75 C 421.92 193.48 411.44 204.18 404.00 216.00
C 419.36 203.92 434.55 191.85 450.00 180.00
C 444.02 192.58 435.54 204.14 428.00 216.00
C 453.85 205.59 478.81 192.56 505.00 183.00
C 482.48 198.60 458.93 213.60 436.00 229.00
C 435.33 229.93 435.93 231.15 436.00 231.00
C 441.48 228.97 447.07 226.63 453.00 226.00
C 455.64 246.05 458.40 263.68 461.00 284.00 C 463.60 304.32 465.60 322.19 468.93 343.07 C 472.25 363.96 472.63 378.55 476.99 401.01 C 481.36 423.46 459.37 430.96 439.99 430.99 C 420.61 431.02 400.56 437.06 381.00 438.00 C 361.44 438.94 341.55 444.77 322.00 446.00 C 302.44 447.22 283.11 451.89 263.93 453.93 C 244.75 455.96 222.55 458.84 203.98 460.98 C 185.40 463.12 176.38 477.28 160.00 484.00
C 162.71 479.86 167.35 477.09 170.00 473.00
C 173.07 469.40 176.73 466.27 180.00 463.00
C 190.97 450.17 203.49 438.43 215.00 426.00
C 180.12 450.90 146.46 479.04 111.00 503.00
C 126.61 483.72 144.66 465.81 159.00 446.00
C 107.44 484.28 56.06 522.63 4.00 560.00
C 33.44 523.79 65.38 488.66 96.00 453.00
C 77.34 459.90 60.45 472.17 42.00 480.00
C 60.97 461.07 82.44 444.52 102.00 427.00
C 90.35 425.67 76.62 428.47 64.00 428.00
C 83.74 415.80 105.58 405.52 125.00 393.00
C 89.00 401.27 52.47 415.30 17.00 421.00
C 55.06 398.84 91.82 374.65 129.00 351.00
C 128.85 351.01 128.31 349.96 128.00 350.00
C 110.10 360.41 89.65 367.36 71.00 376.00
C 64.50 321.06 59.45 265.70 52.00 211.00
C 51.83 211.96 51.09 213.47 51.00 215.00
C 49.41 242.43 58.08 269.83 58.98 297.02 C 59.88 324.22 66.10 350.96 68.00 378.00
C 64.85 379.50 62.26 381.73 59.00 383.00
C 58.23 375.04 56.79 367.22 57.00 359.00
C 56.33 354.32 55.11 349.48 55.00 344.00
C 54.56 322.09 50.35 298.76 49.00 277.00 C 47.65 255.24 44.03 232.26 42.00 211.00 C 39.98 189.73 38.19 164.56 35.67 144.33 C 33.15 124.10 31.04 97.77 57.00 96.00
C 60.13 95.44 62.99 95.64 66.00 96.00
C 101.43 96.71 136.65 107.39 172.00 110.00
C 174.32 111.94 169.93 104.93 169.00 104.00
C 149.05 86.95 130.84 67.96 111.00 51.00
C 108.55 48.91 105.63 46.81 104.00 44.00
C 105.96 44.11 107.76 45.79 109.00 47.00
C 144.39 70.54 181.50 91.92 217.00 115.00
C 204.71 76.12 179.57 42.62 152.00 12.00
C 148.41 8.41 143.81 5.26 141.00 1.00
C 142.57 0.70 144.61 1.25 145.00 3.00
M 467.00 543.00 
C 468.01 547.08 467.47 551.08 467.00 555.00
C 466.56 577.19 446.24 585.08 428.00 574.00
C 428.39 580.81 419.14 577.02 415.00 578.00
C 415.45 556.62 419.97 536.26 421.00 515.00
C 425.67 515.00 430.33 515.00 435.00 515.00
C 434.79 521.77 432.81 528.11 433.00 535.00
C 443.49 530.78 464.41 527.75 467.00 543.00
M 180.00 518.00 
C 188.15 527.26 185.97 545.26 195.00 554.00
C 203.39 542.17 209.57 528.06 219.00 517.00
C 223.43 514.76 229.82 516.60 235.00 516.00
C 234.61 517.57 235.94 520.22 234.00 521.00
C 233.30 532.42 231.14 543.71 230.01 555.01 C 228.88 566.31 231.12 583.37 214.00 578.00
C 214.96 564.16 217.31 550.67 219.00 537.00
C 214.80 544.97 208.30 549.86 204.75 558.75 C 201.19 567.64 188.86 574.03 184.69 563.31 C 180.53 552.58 177.88 546.98 174.00 537.00
C 171.72 550.02 170.57 564.20 170.00 578.00
C 165.33 578.00 160.67 578.00 156.00 578.00
C 158.24 557.65 160.08 537.20 163.00 517.00
C 165.57 514.17 177.76 515.45 180.00 518.00
M 355.00 522.00 
C 353.51 534.11 341.88 527.26 332.00 529.00
C 332.60 536.58 329.82 541.32 330.02 549.02 C 330.22 556.72 327.42 561.62 328.01 570.01 C 328.59 578.40 321.44 579.54 313.00 578.00
C 314.27 561.58 317.45 545.63 318.00 529.00
C 311.00 529.00 304.00 529.00 297.00 529.00
C 296.95 524.89 296.76 520.14 299.00 517.00
C 305.19 511.96 318.83 517.86 327.00 516.00 C 335.17 514.14 347.46 517.40 356.00 516.00
C 355.53 517.88 357.06 520.93 355.00 522.00
M 506.00 532.00 
C 514.60 532.17 520.83 534.23 523.00 543.00
C 523.88 546.54 523.49 549.60 523.00 553.00
C 522.64 562.34 516.82 559.90 509.00 560.00 C 501.18 560.10 494.70 559.93 487.00 560.00
C 489.77 573.24 510.09 564.97 520.00 566.00
C 520.21 569.46 518.30 572.40 519.00 576.00
C 506.50 578.14 477.74 583.56 474.03 566.98 C 470.31 550.39 478.51 529.88 497.00 532.00
C 499.89 531.72 503.15 531.65 506.00 532.00
M 263.00 564.00 
C 273.76 553.78 272.44 526.87 293.00 532.00
C 288.18 545.93 278.56 557.99 272.69 571.70 C 266.83 585.40 255.86 603.18 238.00 594.00
C 239.03 590.69 239.75 587.26 241.00 584.00
C 258.75 588.16 254.14 572.89 250.02 562.98 C 245.91 553.06 243.80 542.08 240.00 532.00
C 250.21 529.32 255.52 533.41 256.93 542.07 C 258.33 550.74 261.81 555.52 263.00 564.00
M 396.00 533.00 
C 397.73 531.51 406.52 530.89 408.00 533.00
C 411.99 538.70 404.15 548.33 406.00 555.00 C 407.86 561.67 402.59 571.02 404.00 578.00
C 399.77 576.80 389.93 581.19 391.00 574.00
C 383.15 578.72 363.03 583.62 358.08 571.92 C 353.14 560.21 360.63 543.78 361.00 532.00
C 365.00 532.00 369.00 532.00 373.00 532.00
C 373.39 542.35 371.17 549.54 371.00 560.00 C 370.83 570.46 385.04 567.16 392.00 565.00
C 393.26 554.41 392.97 542.75 396.00 533.00 Z"/>
</g>
<g fill="#747474" fill-opacity="1.00" stroke="None">
<path d="
M 152.00 12.00 
C 149.89 9.53 145.99 4.03 145.00 3.00
C 144.61 1.25 142.57 0.70 141.00 1.00
C 143.81 5.26 148.41 8.41 152.00 12.00 Z"/>
</g>
<g fill="#000000" fill-opacity="1.00" stroke="None">
<path d="
M 152.00 12.00 
C 179.57 42.62 204.71 76.12 217.00 115.00
C 181.50 91.92 144.39 70.54 109.00 47.00
C 108.77 46.73 110.22 50.15 111.00 51.00
C 130.84 67.96 149.05 86.95 169.00 104.00
C 171.45 106.09 174.37 108.19 176.00 111.00
C 174.72 110.72 172.50 111.76 172.00 110.00
C 136.65 107.39 101.43 96.71 66.00 96.00
C 63.04 95.94 59.95 95.80 57.00 96.00
C 31.04 97.77 33.15 124.10 35.67 144.33 C 38.19 164.56 39.98 189.73 42.00 211.00 C 44.03 232.26 47.65 255.24 49.00 277.00 C 50.35 298.76 54.56 322.09 55.00 344.00
C 55.54 348.50 56.73 354.00 57.00 359.00
C 56.79 367.22 58.23 375.04 59.00 383.00
C 62.26 381.73 64.85 379.50 68.00 378.00
C 66.10 350.96 59.88 324.22 58.98 297.02 C 58.08 269.83 49.41 242.43 51.00 215.00
C 50.16 206.33 47.40 196.68 47.67 187.33 C 47.94 177.98 43.63 168.54 45.00 159.00
C 44.57 154.59 43.60 148.94 43.00 144.00
C 42.33 138.47 39.34 130.49 42.00 125.00
C 43.26 130.93 43.60 137.08 45.00 143.00
C 45.41 148.17 45.47 152.85 46.00 158.00
C 47.81 175.61 50.33 193.17 52.00 211.00
C 59.45 265.70 64.50 321.06 71.00 376.00
C 89.65 367.36 110.10 360.41 128.00 350.00
C 131.03 348.24 134.27 345.61 138.00 345.00
C 135.86 347.95 132.16 349.31 129.00 351.00
C 91.82 374.65 55.06 398.84 17.00 421.00
C 52.47 415.30 89.00 401.27 125.00 393.00
C 105.58 405.52 83.74 415.80 64.00 428.00
C 76.62 428.47 90.35 425.67 102.00 427.00
C 82.44 444.52 60.97 461.07 42.00 480.00
C 60.45 472.17 77.34 459.90 96.00 453.00
C 65.38 488.66 33.44 523.79 4.00 560.00
C 56.06 522.63 107.44 484.28 159.00 446.00
C 144.66 465.81 126.61 483.72 111.00 503.00
C 146.46 479.04 180.12 450.90 215.00 426.00
C 203.49 438.43 190.97 450.17 180.00 463.00
C 176.93 466.60 173.27 469.73 170.00 473.00
C 167.35 477.09 162.71 479.86 160.00 484.00
C 176.38 477.28 185.40 463.12 203.98 460.98 C 222.55 458.84 244.75 455.96 263.93 453.93 C 283.11 451.89 302.44 447.22 322.00 446.00 C 341.55 444.77 361.44 438.94 381.00 438.00 C 400.56 437.06 420.61 431.02 439.99 430.99 C 459.37 430.96 481.36 423.46 476.99 401.01 C 472.63 378.55 472.25 363.96 468.93 343.07 C 465.60 322.19 463.60 304.32 461.00 284.00 C 458.40 263.68 455.64 246.05 453.00 226.00
C 447.07 226.63 441.48 228.97 436.00 231.00
C 434.61 231.52 433.18 233.97 431.00 233.00
C 431.98 230.99 434.36 230.36 436.00 229.00
C 458.93 213.60 482.48 198.60 505.00 183.00
C 478.81 192.56 453.85 205.59 428.00 216.00
C 435.54 204.14 444.02 192.58 450.00 180.00
C 434.55 191.85 419.36 203.92 404.00 216.00
C 411.44 204.18 421.92 193.48 429.75 181.75 C 437.59 170.02 448.92 160.18 456.23 148.23 C 463.54 136.28 476.20 126.71 482.00 114.00
C 482.49 112.93 481.97 112.12 482.00 112.00
C 475.18 117.94 464.35 129.05 456.00 132.00
C 454.11 133.55 453.01 137.24 450.00 137.00
C 451.31 135.27 452.62 133.39 454.00 132.00
C 469.23 114.35 484.34 95.98 499.75 78.75 C 515.17 61.53 528.75 42.25 545.00 26.00
C 545.46 25.06 545.02 23.94 545.00 24.00
C 500.10 63.38 453.27 101.83 407.00 140.00
C 413.84 122.91 430.79 108.82 436.00 91.00
C 436.21 90.28 436.05 88.83 436.00 89.00
C 425.46 99.85 415.46 111.73 405.00 123.00
C 361.22 103.90 318.51 81.79 275.00 62.00
C 310.05 88.23 346.64 113.72 383.00 138.00
C 369.17 138.49 350.12 135.12 336.02 132.98 C 321.93 130.83 302.18 131.89 295.92 119.08 C 289.67 106.26 283.80 97.36 274.75 87.25 C 265.70 77.13 256.93 69.32 246.75 61.25 C 236.56 53.19 226.15 46.71 215.08 39.92 C 204.00 33.14 191.76 26.95 180.23 20.77 C 168.70 14.59 156.99 8.10 145.00 3.00
C 145.99 4.03 149.89 9.53 152.00 12.00
M 240.00 63.00 
C 264.68 74.28 278.84 99.13 291.92 122.08 C 305.00 145.02 313.51 180.47 318.00 207.00
C 318.64 210.76 319.27 214.26 320.00 218.00
C 320.39 219.99 320.62 221.93 321.00 224.00
C 321.60 227.25 322.84 231.23 323.00 235.00
C 323.34 236.02 324.07 238.21 325.00 239.00
C 334.49 230.99 342.55 220.96 352.00 213.00
C 374.88 193.45 397.02 172.52 419.00 152.00
C 420.75 150.36 422.06 149.38 424.00 148.00
C 438.05 136.23 449.49 121.25 464.00 110.00
C 420.29 160.27 373.67 209.71 327.00 258.00
C 321.07 264.41 315.23 272.03 309.00 278.00
C 308.84 278.44 309.00 279.00 309.00 279.00
C 309.66 282.02 312.48 283.94 313.00 287.00
C 324.18 279.34 331.42 265.84 342.00 257.00
C 343.18 256.73 344.79 257.00 346.00 257.00
C 348.19 256.70 358.70 253.91 361.00 256.00
C 363.76 255.83 357.80 267.70 355.08 271.08 C 352.35 274.46 348.51 282.12 345.70 286.70 C 342.88 291.27 338.91 298.00 336.08 303.08 C 333.25 308.16 329.87 313.77 327.08 319.08 C 324.28 324.38 320.65 329.34 317.75 334.75 C 314.84 340.15 311.21 346.25 309.00 352.00
C 304.20 348.72 299.50 342.28 295.75 337.25 C 292.01 332.22 284.64 326.20 285.00 321.00
C 287.31 314.86 295.11 311.28 298.75 305.75 C 302.39 300.22 307.96 294.44 313.00 290.00
C 308.21 274.96 298.32 288.80 292.25 296.25 C 286.18 303.69 277.32 311.86 272.00 320.00
C 270.45 321.97 268.75 324.92 266.00 325.00
C 266.52 322.81 264.86 319.38 267.00 318.00
C 267.22 317.70 267.87 317.26 268.00 317.00
C 268.40 316.15 268.88 313.26 268.00 313.00
C 267.84 313.23 267.00 313.00 267.00 313.00
C 261.41 321.00 252.34 328.73 245.00 335.00
C 231.12 346.86 218.83 361.17 206.00 374.00
C 205.29 378.09 208.48 378.89 211.00 380.00
C 225.75 381.92 240.70 376.07 256.00 377.00 C 271.30 377.93 287.50 374.91 303.00 375.00 C 318.50 375.09 334.36 373.06 350.00 373.00 C 365.64 372.94 381.18 370.55 397.00 371.00
C 396.33 356.34 393.37 342.25 391.00 328.00
C 401.21 325.94 410.25 327.82 409.99 338.01 C 409.74 348.19 412.95 353.86 413.98 363.02 C 415.00 372.19 416.43 379.15 418.00 388.00
C 375.58 391.95 333.00 395.33 290.00 397.00
C 278.25 398.14 265.27 399.59 253.00 400.00 C 240.73 400.41 226.92 402.46 214.93 402.93 C 202.93 403.40 186.13 408.69 186.00 393.00
C 180.81 398.98 174.97 404.90 169.00 410.00
C 163.84 414.41 159.10 419.64 154.00 424.00
C 146.97 431.03 140.29 439.97 132.00 445.00
C 132.96 443.43 134.32 441.75 136.00 441.00
C 145.81 429.29 157.99 418.71 168.00 407.00
C 173.49 400.58 180.32 395.08 186.00 389.00
C 186.29 388.52 186.67 387.35 187.00 387.00
C 187.21 380.61 183.57 372.84 183.00 366.00 C 182.43 359.16 181.11 350.99 180.00 344.00
C 179.50 340.88 178.31 337.47 179.00 334.00
C 184.33 334.00 189.67 334.00 195.00 334.00
C 199.88 333.71 199.65 332.39 201.00 338.00
C 203.34 347.75 202.94 358.16 205.00 368.00
C 207.22 368.05 208.99 365.71 210.00 364.00
C 213.98 359.34 218.74 355.26 223.00 351.00
C 233.42 338.81 244.82 326.18 256.00 315.00
C 255.33 313.80 254.36 312.42 253.00 312.00
C 253.97 310.15 254.79 307.76 257.00 307.00
C 258.75 304.84 261.29 302.07 258.00 301.00
C 243.53 305.39 226.79 309.61 213.00 312.00
C 230.20 306.63 246.88 299.67 264.00 294.00
C 264.53 292.72 263.03 292.14 263.00 291.00
C 251.24 274.18 235.18 260.47 223.00 244.00
C 236.30 245.08 248.51 250.51 262.00 251.00
C 254.92 179.04 240.18 105.69 194.00 48.00
C 185.70 38.10 175.82 28.79 167.00 19.00
C 191.80 32.39 217.79 45.42 240.00 63.00
M 227.00 139.00 
C 214.40 138.23 202.28 135.20 189.78 134.22 C 177.27 133.24 164.33 131.17 152.00 130.00 C 139.67 128.84 126.26 126.19 114.00 126.00 C 101.73 125.81 88.29 119.02 76.33 124.33 C 64.36 129.63 69.33 146.84 70.00 158.00 C 70.67 169.16 73.70 183.80 73.99 196.01 C 74.28 208.21 77.30 221.67 77.78 234.22 C 78.26 246.77 79.76 261.08 80.33 273.67 C 80.90 286.26 84.56 298.74 84.78 311.22 C 85.00 323.70 90.17 338.78 86.00 349.00
C 85.22 336.95 83.27 325.94 82.07 313.93 C 80.87 301.91 79.63 289.82 78.22 277.78 C 76.81 265.74 76.71 253.00 75.02 240.98 C 73.34 228.96 72.42 218.10 71.22 205.78 C 70.03 193.46 68.58 182.42 67.22 169.78 C 65.86 157.14 65.37 146.41 64.00 133.00 C 62.63 119.59 77.46 115.54 89.00 118.00 C 100.54 120.46 112.14 120.24 123.67 122.33 C 135.20 124.42 147.44 125.35 159.00 127.00 C 170.56 128.65 182.87 129.74 194.07 131.93 C 205.28 134.11 218.88 132.87 227.00 139.00
M 233.00 134.00 
C 244.49 169.59 253.39 206.02 256.00 244.00
C 245.88 241.26 249.55 228.40 247.67 219.33 C 245.79 210.26 245.80 198.28 244.00 189.00 C 242.20 179.72 239.99 169.89 238.22 160.78 C 236.46 151.67 232.75 142.30 233.00 134.00
M 376.00 154.00 
C 354.08 155.94 331.36 149.04 309.00 148.00
C 317.61 144.29 330.78 148.36 341.67 149.33 C 352.56 150.30 364.87 153.20 376.00 154.00
M 252.00 287.00 
C 239.84 287.75 233.18 272.57 224.75 264.25 C 216.32 255.93 208.03 244.82 200.00 236.00
C 223.36 243.31 235.93 270.01 252.00 287.00
M 231.00 434.00 
C 246.61 430.64 262.95 429.64 279.00 428.00 C 295.05 426.36 311.03 423.81 327.02 422.02 C 343.01 420.24 360.04 418.30 376.00 417.00 C 391.96 415.70 409.05 410.48 425.00 411.00 C 440.95 411.52 458.62 405.08 455.00 387.00 C 451.38 368.92 451.32 356.13 449.00 339.00 C 446.69 321.87 444.67 307.77 443.07 290.93 C 441.48 274.09 438.08 258.87 437.00 242.00
C 442.64 252.23 440.35 267.01 443.33 279.67 C 446.31 292.33 446.52 305.29 448.33 318.67 C 450.14 332.05 452.41 344.00 454.00 358.00 C 455.59 372.00 458.41 381.49 459.00 397.00 C 459.59 412.51 444.53 414.35 431.33 414.33 C 418.13 414.31 405.07 418.17 391.78 418.78 C 378.48 419.39 365.29 421.89 351.98 422.98 C 338.66 424.06 324.40 426.05 311.00 427.00 C 297.60 427.95 285.08 430.74 271.78 431.78 C 258.47 432.81 243.48 434.80 231.00 434.00
M 281.00 327.00 
C 287.90 336.64 297.63 344.67 303.00 355.00
C 293.16 348.82 286.19 338.15 277.00 331.00
C 277.96 329.43 279.32 327.75 281.00 327.00 Z"/>
</g>
<g fill="#AAAAAA" fill-opacity="1.00" stroke="None">
<path d="
M 194.00 48.00 
C 207.58 56.78 217.26 74.22 228.26 87.74 C 239.25 101.27 248.63 120.96 257.00 136.00
C 244.59 99.70 224.11 66.09 197.00 38.00
C 210.81 47.29 224.98 56.05 240.00 63.00
C 217.79 45.42 191.80 32.39 167.00 19.00
C 175.82 28.79 185.70 38.10 194.00 48.00 Z"/>
</g>
<g fill="#AFAFAF" fill-opacity="1.00" stroke="None">
<path d="
M 545.00 24.00 
C 545.02 23.94 545.46 25.06 545.00 26.00
C 546.71 24.99 549.06 23.22 549.00 21.00
C 547.09 21.36 546.23 22.83 545.00 24.00 Z"/>
</g>
<g fill="#F9F9F9" fill-opacity="1.00" stroke="None">
<path d="
M 194.00 48.00 
C 240.18 105.69 254.92 179.04 262.00 251.00
C 248.51 250.51 236.30 245.08 223.00 244.00
C 235.18 260.47 251.24 274.18 263.00 291.00
C 263.16 291.23 264.00 291.00 264.00 291.00
C 262.50 281.15 248.52 269.50 243.00 260.00
C 241.73 257.81 240.37 255.31 239.00 253.00
C 250.41 254.46 260.78 259.68 272.00 262.00
C 278.77 254.11 288.54 250.03 296.25 243.25 C 303.95 236.46 317.49 233.00 321.00 224.00
C 320.62 221.93 320.39 219.99 320.00 218.00
C 316.37 212.50 306.13 225.84 300.75 227.75 C 295.38 229.66 286.24 238.53 280.00 240.00
C 291.51 227.64 306.10 219.16 318.00 207.00
C 313.51 180.47 305.00 145.02 291.92 122.08 C 278.84 99.13 264.68 74.28 240.00 63.00
C 224.98 56.05 210.81 47.29 197.00 38.00
C 224.11 66.09 244.59 99.70 257.00 136.00
C 248.63 120.96 239.25 101.27 228.26 87.74 C 217.26 74.22 207.58 56.78 194.00 48.00 Z"/>
</g>
<g fill="#676767" fill-opacity="1.00" stroke="None">
<path d="
M 111.00 51.00 
C 110.22 50.15 108.77 46.73 109.00 47.00
C 107.76 45.79 105.96 44.11 104.00 44.00
C 105.63 46.81 108.55 48.91 111.00 51.00 Z"/>
</g>
<g fill="#4C4C4C" fill-opacity="1.00" stroke="None">
<path d="
M 436.00 89.00 
C 436.05 88.83 436.21 90.28 436.00 91.00
C 438.02 89.80 439.49 87.22 440.00 85.00
C 438.09 85.52 437.26 87.74 436.00 89.00 Z"/>
</g>
<g fill="#757575" fill-opacity="1.00" stroke="None">
<path d="
M 57.00 96.00 
C 59.95 95.80 63.04 95.94 66.00 96.00
C 62.99 95.64 60.13 95.44 57.00 96.00 Z"/>
</g>
<g fill="#7E7E7E" fill-opacity="1.00" stroke="None">
<path d="
M 172.00 110.00 
C 172.50 111.76 174.72 110.72 176.00 111.00
C 174.37 108.19 171.45 106.09 169.00 104.00
C 169.93 104.93 174.32 111.94 172.00 110.00 Z"/>
</g>
<g fill="#676767" fill-opacity="1.00" stroke="None">
<path d="
M 482.00 112.00 
C 481.97 112.12 482.49 112.93 482.00 114.00
C 484.87 112.55 485.81 109.23 488.00 107.00
C 485.02 106.81 483.85 110.38 482.00 112.00 Z"/>
</g>
<g fill="#4F4F4F" fill-opacity="1.00" stroke="None">
<path d="
M 424.00 148.00 
C 428.02 145.13 430.99 140.77 435.00 138.00
C 435.76 143.45 428.82 149.22 424.00 152.00
C 419.61 155.68 415.04 160.96 411.00 165.00
C 385.05 195.37 355.35 223.65 327.00 252.00
C 325.89 254.65 327.57 255.69 327.00 258.00
C 373.67 209.71 420.29 160.27 464.00 110.00
C 449.49 121.25 438.05 136.23 424.00 148.00 Z"/>
</g>
<g fill="#494949" fill-opacity="1.00" stroke="None">
<path d="
M 227.00 139.00 
C 218.88 132.87 205.28 134.11 194.07 131.93 C 182.87 129.74 170.56 128.65 159.00 127.00 C 147.44 125.35 135.20 124.42 123.67 122.33 C 112.14 120.24 100.54 120.46 89.00 118.00 C 77.46 115.54 62.63 119.59 64.00 133.00 C 65.37 146.41 65.86 157.14 67.22 169.78 C 68.58 182.42 70.03 193.46 71.22 205.78 C 72.42 218.10 73.34 228.96 75.02 240.98 C 76.71 253.00 76.81 265.74 78.22 277.78 C 79.63 289.82 80.87 301.91 82.07 313.93 C 83.27 325.94 85.22 336.95 86.00 349.00
C 90.17 338.78 85.00 323.70 84.78 311.22 C 84.56 298.74 80.90 286.26 80.33 273.67 C 79.76 261.08 78.26 246.77 77.78 234.22 C 77.30 221.67 74.28 208.21 73.99 196.01 C 73.70 183.80 70.67 169.16 70.00 158.00 C 69.33 146.84 64.36 129.63 76.33 124.33 C 88.29 119.02 101.73 125.81 114.00 126.00 C 126.26 126.19 139.67 128.84 152.00 130.00 C 164.33 131.17 177.27 133.24 189.78 134.22 C 202.28 135.20 214.40 138.23 227.00 139.00 Z"/>
</g>
<g fill="#474747" fill-opacity="1.00" stroke="None">
<path d="
M 43.00 144.00 
C 43.08 142.67 42.94 141.33 43.00 140.00
C 44.67 140.24 43.17 142.85 45.00 143.00
C 43.60 137.08 43.26 130.93 42.00 125.00
C 39.34 130.49 42.33 138.47 43.00 144.00 Z"/>
</g>
<g fill="#B2B2B2" fill-opacity="1.00" stroke="None">
<path d="
M 456.00 132.00 
C 455.62 132.13 453.45 132.24 454.00 132.00
C 452.62 133.39 451.31 135.27 450.00 137.00
C 453.01 137.24 454.11 133.55 456.00 132.00 Z"/>
</g>
<g fill="#6C6C6C" fill-opacity="1.00" stroke="None">
<path d="
M 233.00 134.00 
C 232.75 142.30 236.46 151.67 238.22 160.78 C 239.99 169.89 242.20 179.72 244.00 189.00 C 245.80 198.28 245.79 210.26 247.67 219.33 C 249.55 228.40 245.88 241.26 256.00 244.00
C 253.39 206.02 244.49 169.59 233.00 134.00 Z"/>
</g>
<g fill="#777777" fill-opacity="1.00" stroke="None">
<path d="
M 424.00 148.00 
C 422.06 149.38 420.75 150.36 419.00 152.00
C 417.08 155.27 413.71 160.29 410.00 164.00
C 411.54 162.68 413.62 161.38 415.00 160.00
C 417.83 156.69 421.52 153.27 424.00 152.00
C 428.82 149.22 435.76 143.45 435.00 138.00
C 430.99 140.77 428.02 145.13 424.00 148.00 Z"/>
</g>
<g fill="#868686" fill-opacity="1.00" stroke="None">
<path d="
M 43.00 144.00 
C 43.60 148.94 44.57 154.59 45.00 159.00
C 45.05 158.65 45.93 158.24 46.00 158.00
C 45.47 152.85 45.41 148.17 45.00 143.00
C 43.17 142.85 44.67 140.24 43.00 140.00
C 42.94 141.33 43.08 142.67 43.00 144.00 Z"/>
</g>
<g fill="#4A4A4A" fill-opacity="1.00" stroke="None">
<path d="
M 376.00 154.00 
C 364.87 153.20 352.56 150.30 341.67 149.33 C 330.78 148.36 317.61 144.29 309.00 148.00
C 331.36 149.04 354.08 155.94 376.00 154.00 Z"/>
</g>
<g fill="#B2B2B2" fill-opacity="1.00" stroke="None">
<path d="
M 415.00 160.00 
C 413.65 161.58 412.31 163.47 411.00 165.00
C 415.04 160.96 419.61 155.68 424.00 152.00
C 421.52 153.27 417.83 156.69 415.00 160.00 Z"/>
</g>
<g fill="#5B5B5B" fill-opacity="1.00" stroke="None">
<path d="
M 352.00 213.00 
C 349.73 215.27 347.54 217.89 345.25 220.25 C 342.96 222.60 340.13 224.49 338.25 227.25 C 336.37 230.00 332.41 230.81 331.25 234.25 C 330.09 237.69 323.63 238.40 323.00 239.00
C 323.16 239.66 323.74 240.36 324.00 241.00
C 324.48 242.19 324.39 244.56 326.00 245.00
C 353.27 217.73 380.76 188.99 410.00 164.00
C 413.71 160.29 417.08 155.27 419.00 152.00
C 397.02 172.52 374.88 193.45 352.00 213.00 Z"/>
</g>
<g fill="#ABABAB" fill-opacity="1.00" stroke="None">
<path d="
M 45.00 159.00 
C 43.63 168.54 47.94 177.98 47.67 187.33 C 47.40 196.68 50.16 206.33 51.00 215.00
C 51.09 213.47 51.83 211.96 52.00 211.00
C 50.33 193.17 47.81 175.61 46.00 158.00
C 45.93 158.24 45.05 158.65 45.00 159.00 Z"/>
</g>
<g fill="#EBEBEB" fill-opacity="1.00" stroke="None">
<path d="
M 410.00 164.00 
C 380.76 188.99 353.27 217.73 326.00 245.00
C 317.43 253.57 305.74 270.11 293.00 262.00
C 292.18 264.94 298.91 266.63 296.00 269.00
C 293.16 270.71 287.19 266.92 285.00 270.00
C 289.10 269.46 292.23 272.30 296.00 273.00
C 291.13 281.18 282.46 287.86 274.00 292.00
C 276.21 295.35 272.78 298.29 270.00 300.00
C 267.20 302.80 264.47 306.23 262.00 309.00
C 260.12 311.12 257.93 313.07 256.00 315.00
C 244.82 326.18 233.42 338.81 223.00 351.00
C 219.02 355.66 214.26 359.74 210.00 364.00
C 208.99 365.71 207.22 368.05 205.00 368.00
C 202.94 358.16 203.34 347.75 201.00 338.00
C 200.64 337.01 199.30 335.61 200.00 334.00
C 198.33 334.00 196.67 334.00 195.00 334.00
C 189.67 334.00 184.33 334.00 179.00 334.00
C 178.31 337.47 179.50 340.88 180.00 344.00
C 184.50 354.55 198.10 361.05 202.00 372.00
C 195.85 375.94 192.82 382.92 187.00 387.00
C 186.67 387.35 186.29 388.52 186.00 389.00
C 181.79 395.92 173.61 401.39 168.00 407.00
C 157.99 418.71 145.81 429.29 136.00 441.00
C 142.23 435.68 147.82 429.28 154.00 424.00
C 159.10 419.64 163.84 414.41 169.00 410.00
C 174.63 404.38 180.00 398.18 186.00 393.00
C 192.67 387.24 199.69 380.31 206.00 374.00
C 218.83 361.17 231.12 346.86 245.00 335.00
C 251.44 328.56 258.77 317.02 267.00 313.00
C 267.00 313.00 267.84 313.23 268.00 313.00
C 276.80 300.42 291.28 291.33 301.00 280.00
C 303.95 280.08 307.26 282.42 309.00 279.00
C 309.00 279.00 308.84 278.44 309.00 278.00
C 312.85 267.33 318.25 260.75 327.00 252.00
C 355.35 223.65 385.05 195.37 411.00 165.00
C 412.31 163.47 413.65 161.58 415.00 160.00
C 413.62 161.38 411.54 162.68 410.00 164.00 Z"/>
</g>
<g fill="#A6A6A6" fill-opacity="1.00" stroke="None">
<path d="
M 320.00 218.00 
C 319.27 214.26 318.64 210.76 318.00 207.00
C 306.10 219.16 291.51 227.64 280.00 240.00
C 286.24 238.53 295.38 229.66 300.75 227.75 C 306.13 225.84 316.37 212.50 320.00 218.00 Z"/>
</g>
<g fill="#373737" fill-opacity="1.00" stroke="None">
<path d="
M 323.00 235.00 
C 323.05 236.24 322.71 237.80 323.00 239.00
C 323.63 238.40 330.09 237.69 331.25 234.25 C 332.41 230.81 336.37 230.00 338.25 227.25 C 340.13 224.49 342.96 222.60 345.25 220.25 C 347.54 217.89 349.73 215.27 352.00 213.00
C 342.55 220.96 334.49 230.99 325.00 239.00
C 324.07 238.21 323.34 236.02 323.00 235.00 Z"/>
</g>
<g fill="#A5A5A5" fill-opacity="1.00" stroke="None">
<path d="
M 243.00 260.00 
C 245.43 263.17 249.07 267.43 251.30 270.70 C 253.53 273.97 257.43 279.55 260.25 281.75 C 263.07 283.96 266.82 293.75 265.00 293.00
C 265.55 293.68 268.29 295.81 269.00 296.00
C 269.65 295.91 271.39 295.77 272.00 296.00
C 273.38 296.52 270.68 299.27 270.00 300.00
C 272.78 298.29 276.21 295.35 274.00 292.00
C 282.46 287.86 291.13 281.18 296.00 273.00
C 292.23 272.30 289.10 269.46 285.00 270.00
C 287.19 266.92 293.16 270.71 296.00 269.00
C 295.73 265.68 291.56 264.31 291.00 261.00
C 305.41 270.33 311.60 242.74 324.00 241.00
C 323.74 240.36 323.16 239.66 323.00 239.00
C 322.71 237.80 323.05 236.24 323.00 235.00
C 322.84 231.23 321.60 227.25 321.00 224.00
C 317.49 233.00 303.95 236.46 296.25 243.25 C 288.54 250.03 278.77 254.11 272.00 262.00
C 260.78 259.68 250.41 254.46 239.00 253.00
C 240.37 255.31 241.73 257.81 243.00 260.00 Z"/>
</g>
<g fill="#A2A2A2" fill-opacity="1.00" stroke="None">
<path d="
M 436.00 231.00 
C 435.93 231.15 435.33 229.93 436.00 229.00
C 434.36 230.36 431.98 230.99 431.00 233.00
C 433.18 233.97 434.61 231.52 436.00 231.00 Z"/>
</g>
<g fill="#686868" fill-opacity="1.00" stroke="None">
<path d="
M 252.00 287.00 
C 235.93 270.01 223.36 243.31 200.00 236.00
C 208.03 244.82 216.32 255.93 224.75 264.25 C 233.18 272.57 239.84 287.75 252.00 287.00 Z"/>
</g>
<g fill="#C2C2C2" fill-opacity="1.00" stroke="None">
<path d="
M 296.00 269.00 
C 298.91 266.63 292.18 264.94 293.00 262.00
C 305.74 270.11 317.43 253.57 326.00 245.00
C 324.39 244.56 324.48 242.19 324.00 241.00
C 311.60 242.74 305.41 270.33 291.00 261.00
C 291.56 264.31 295.73 265.68 296.00 269.00 Z"/>
</g>
<g fill="#474747" fill-opacity="1.00" stroke="None">
<path d="
M 231.00 434.00 
C 243.48 434.80 258.47 432.81 271.78 431.78 C 285.08 430.74 297.60 427.95 311.00 427.00 C 324.40 426.05 338.66 424.06 351.98 422.98 C 365.29 421.89 378.48 419.39 391.78 418.78 C 405.07 418.17 418.13 414.31 431.33 414.33 C 444.53 414.35 459.59 412.51 459.00 397.00 C 458.41 381.49 455.59 372.00 454.00 358.00 C 452.41 344.00 450.14 332.05 448.33 318.67 C 446.52 305.29 446.31 292.33 443.33 279.67 C 440.35 267.01 442.64 252.23 437.00 242.00
C 438.08 258.87 441.48 274.09 443.07 290.93 C 444.67 307.77 446.69 321.87 449.00 339.00 C 451.32 356.13 451.38 368.92 455.00 387.00 C 458.62 405.08 440.95 411.52 425.00 411.00 C 409.05 410.48 391.96 415.70 376.00 417.00 C 360.04 418.30 343.01 420.24 327.02 422.02 C 311.03 423.81 295.05 426.36 279.00 428.00 C 262.95 429.64 246.61 430.64 231.00 434.00 Z"/>
</g>
<g fill="#BBBBBB" fill-opacity="1.00" stroke="None">
<path d="
M 309.00 278.00 
C 315.23 272.03 321.07 264.41 327.00 258.00
C 327.57 255.69 325.89 254.65 327.00 252.00
C 318.25 260.75 312.85 267.33 309.00 278.00 Z"/>
</g>
<g fill="#585858" fill-opacity="1.00" stroke="None">
<path d="
M 346.00 257.00 
C 349.00 257.00 352.00 257.00 355.00 257.00
C 356.29 257.00 357.73 257.18 359.00 257.00
C 358.80 257.03 361.87 256.79 361.00 256.00
C 358.70 253.91 348.19 256.70 346.00 257.00 Z"/>
</g>
<g fill="#F7F7F7" fill-opacity="1.00" stroke="None">
<path d="
M 359.00 257.00 
C 352.69 261.49 347.15 268.12 340.75 272.75 C 334.36 277.38 327.47 283.35 321.75 288.75 C 316.04 294.16 308.61 298.79 303.75 304.75 C 298.89 310.71 288.25 314.16 285.00 321.00
C 284.64 326.20 292.01 332.22 295.75 337.25 C 299.50 342.28 304.20 348.72 309.00 352.00
C 311.21 346.25 314.84 340.15 317.75 334.75 C 320.65 329.34 324.28 324.38 327.08 319.08 C 329.87 313.77 333.25 308.16 336.08 303.08 C 338.91 298.00 342.88 291.27 345.70 286.70 C 348.51 282.12 352.35 274.46 355.08 271.08 C 357.80 267.70 363.76 255.83 361.00 256.00
C 361.87 256.79 358.80 257.03 359.00 257.00 Z"/>
</g>
<g fill="#9A9A9A" fill-opacity="1.00" stroke="None">
<path d="
M 309.00 279.00 
C 307.26 282.42 303.95 280.08 301.00 280.00
C 291.28 291.33 276.80 300.42 268.00 313.00
C 268.88 313.26 268.40 316.15 268.00 317.00
C 268.15 318.65 267.89 320.34 268.00 322.00
C 269.25 321.70 269.71 320.17 271.00 320.00
C 271.25 319.75 272.00 320.00 272.00 320.00
C 277.32 311.86 286.18 303.69 292.25 296.25 C 298.32 288.80 308.21 274.96 313.00 290.00
C 307.96 294.44 302.39 300.22 298.75 305.75 C 295.11 311.28 287.31 314.86 285.00 321.00
C 288.25 314.16 298.89 310.71 303.75 304.75 C 308.61 298.79 316.04 294.16 321.75 288.75 C 327.47 283.35 334.36 277.38 340.75 272.75 C 347.15 268.12 352.69 261.49 359.00 257.00
C 357.73 257.18 356.29 257.00 355.00 257.00
C 350.44 257.62 344.70 258.42 340.00 260.00
C 340.30 258.75 341.83 258.29 342.00 257.00
C 331.42 265.84 324.18 279.34 313.00 287.00
C 312.48 283.94 309.66 282.02 309.00 279.00 Z"/>
</g>
<g fill="#D1D1D1" fill-opacity="1.00" stroke="None">
<path d="
M 355.00 257.00 
C 352.00 257.00 349.00 257.00 346.00 257.00
C 344.79 257.00 343.18 256.73 342.00 257.00
C 341.83 258.29 340.30 258.75 340.00 260.00
C 344.70 258.42 350.44 257.62 355.00 257.00 Z"/>
</g>
<g fill="#CCCCCC" fill-opacity="1.00" stroke="None">
<path d="
M 264.00 291.00 
C 264.50 291.25 264.70 292.64 265.00 293.00
C 266.82 293.75 263.07 283.96 260.25 281.75 C 257.43 279.55 253.53 273.97 251.30 270.70 C 249.07 267.43 245.43 263.17 243.00 260.00
C 248.52 269.50 262.50 281.15 264.00 291.00 Z"/>
</g>
<g fill="#646464" fill-opacity="1.00" stroke="None">
<path d="
M 258.00 301.00 
C 261.51 299.93 265.00 296.53 269.00 296.00
C 268.29 295.81 265.55 293.68 265.00 293.00
C 264.70 292.64 264.50 291.25 264.00 291.00
C 264.00 291.00 263.16 291.23 263.00 291.00
C 263.03 292.14 264.53 292.72 264.00 294.00
C 246.88 299.67 230.20 306.63 213.00 312.00
C 226.79 309.61 243.53 305.39 258.00 301.00 Z"/>
</g>
<g fill="#323232" fill-opacity="1.00" stroke="None">
<path d="
M 258.00 301.00 
C 261.29 302.07 258.75 304.84 257.00 307.00
C 261.69 302.40 265.66 298.31 272.00 296.00
C 271.39 295.77 269.65 295.91 269.00 296.00
C 265.00 296.53 261.51 299.93 258.00 301.00 Z"/>
</g>
<g fill="#575757" fill-opacity="1.00" stroke="None">
<path d="
M 257.00 307.00 
C 254.79 307.76 253.97 310.15 253.00 312.00
C 254.36 312.42 255.33 313.80 256.00 315.00
C 257.93 313.07 260.12 311.12 262.00 309.00
C 262.39 307.14 260.37 306.56 260.00 305.00
C 263.93 305.59 266.91 302.83 270.00 300.00
C 270.68 299.27 273.38 296.52 272.00 296.00
C 265.66 298.31 261.69 302.40 257.00 307.00 Z"/>
</g>
<g fill="#818181" fill-opacity="1.00" stroke="None">
<path d="
M 262.00 309.00 
C 264.47 306.23 267.20 302.80 270.00 300.00
C 266.91 302.83 263.93 305.59 260.00 305.00
C 260.37 306.56 262.39 307.14 262.00 309.00 Z"/>
</g>
<g fill="#6F6F6F" fill-opacity="1.00" stroke="None">
<path d="
M 245.00 335.00 
C 252.34 328.73 261.41 321.00 267.00 313.00
C 258.77 317.02 251.44 328.56 245.00 335.00 Z"/>
</g>
<g fill="#707070" fill-opacity="1.00" stroke="None">
<path d="
M 267.00 318.00 
C 266.64 319.93 267.27 322.05 267.00 324.00
C 268.57 323.04 270.25 321.68 271.00 320.00
C 269.71 320.17 269.25 321.70 268.00 322.00
C 267.89 320.34 268.15 318.65 268.00 317.00
C 267.87 317.26 267.22 317.70 267.00 318.00 Z"/>
</g>
<g fill="#313131" fill-opacity="1.00" stroke="None">
<path d="
M 272.00 320.00 
C 272.00 320.00 271.25 319.75 271.00 320.00
C 270.25 321.68 268.57 323.04 267.00 324.00
C 267.27 322.05 266.64 319.93 267.00 318.00
C 264.86 319.38 266.52 322.81 266.00 325.00
C 268.75 324.92 270.45 321.97 272.00 320.00 Z"/>
</g>
<g fill="#737373" fill-opacity="1.00" stroke="None">
<path d="
M 281.00 327.00 
C 279.32 327.75 277.96 329.43 277.00 331.00
C 286.19 338.15 293.16 348.82 303.00 355.00
C 297.63 344.67 287.90 336.64 281.00 327.00 Z"/>
</g>
<g fill="#F8F8F8" fill-opacity="1.00" stroke="None">
<path d="
M 211.00 380.00 
C 222.59 385.12 237.39 385.83 250.02 388.98 C 262.66 392.12 276.96 395.78 290.00 397.00
C 333.00 395.33 375.58 391.95 418.00 388.00
C 416.43 379.15 415.00 372.19 413.98 363.02 C 412.95 353.86 409.74 348.19 409.99 338.01 C 410.25 327.82 401.21 325.94 391.00 328.00
C 393.37 342.25 396.33 356.34 397.00 371.00
C 381.18 370.55 365.64 372.94 350.00 373.00 C 334.36 373.06 318.50 375.09 303.00 375.00 C 287.50 374.91 271.30 377.93 256.00 377.00 C 240.70 376.07 225.75 381.92 211.00 380.00 Z"/>
</g>
<g fill="#8A8A8A" fill-opacity="1.00" stroke="None">
<path d="
M 195.00 334.00 
C 196.67 334.00 198.33 334.00 200.00 334.00
C 199.30 335.61 200.64 337.01 201.00 338.00
C 199.65 332.39 199.88 333.71 195.00 334.00 Z"/>
</g>
<g fill="#8D8D8D" fill-opacity="1.00" stroke="None">
<path d="
M 57.00 359.00 
C 56.73 354.00 55.54 348.50 55.00 344.00
C 55.11 349.48 56.33 354.32 57.00 359.00 Z"/>
</g>
<g fill="#979797" fill-opacity="1.00" stroke="None">
<path d="
M 187.00 387.00 
C 192.82 382.92 195.85 375.94 202.00 372.00
C 198.10 361.05 184.50 354.55 180.00 344.00
C 181.11 350.99 182.43 359.16 183.00 366.00 C 183.57 372.84 187.21 380.61 187.00 387.00 Z"/>
</g>
<g fill="#949494" fill-opacity="1.00" stroke="None">
<path d="
M 128.00 350.00 
C 128.31 349.96 128.85 351.01 129.00 351.00
C 132.16 349.31 135.86 347.95 138.00 345.00
C 134.27 345.61 131.03 348.24 128.00 350.00 Z"/>
</g>
<g fill="#6B6B6B" fill-opacity="1.00" stroke="None">
<path d="
M 210.00 364.00 
C 214.26 359.74 219.02 355.66 223.00 351.00
C 218.74 355.26 213.98 359.34 210.00 364.00 Z"/>
</g>
<g fill="#9D9D9D" fill-opacity="1.00" stroke="None">
<path d="
M 186.00 393.00 
C 186.13 408.69 202.93 403.40 214.93 402.93 C 226.92 402.46 240.73 400.41 253.00 400.00 C 265.27 399.59 278.25 398.14 290.00 397.00
C 276.96 395.78 262.66 392.12 250.02 388.98 C 237.39 385.83 222.59 385.12 211.00 380.00
C 208.48 378.89 205.29 378.09 206.00 374.00
C 199.69 380.31 192.67 387.24 186.00 393.00 Z"/>
</g>
<g fill="#717171" fill-opacity="1.00" stroke="None">
<path d="
M 168.00 407.00 
C 173.61 401.39 181.79 395.92 186.00 389.00
C 180.32 395.08 173.49 400.58 168.00 407.00 Z"/>
</g>
<g fill="#555555" fill-opacity="1.00" stroke="None">
<path d="
M 169.00 410.00 
C 174.97 404.90 180.81 398.98 186.00 393.00
C 180.00 398.18 174.63 404.38 169.00 410.00 Z"/>
</g>
<g fill="#747474" fill-opacity="1.00" stroke="None">
<path d="
M 136.00 441.00 
C 134.32 441.75 132.96 443.43 132.00 445.00
C 140.29 439.97 146.97 431.03 154.00 424.00
C 147.82 429.28 142.23 435.68 136.00 441.00 Z"/>
</g>
<g fill="#818181" fill-opacity="1.00" stroke="None">
<path d="
M 170.00 473.00 
C 173.27 469.73 176.93 466.60 180.00 463.00
C 176.73 466.27 173.07 469.40 170.00 473.00 Z"/>
</g>
<g fill="#010101" fill-opacity="1.00" stroke="None">
<path d="
M 467.00 555.00 
C 467.08 551.13 467.48 546.83 467.00 543.00
C 464.41 527.75 443.49 530.78 433.00 535.00
C 432.81 528.11 434.79 521.77 435.00 515.00
C 430.33 515.00 425.67 515.00 421.00 515.00
C 419.97 536.26 415.45 556.62 415.00 578.00
C 419.14 577.02 428.39 580.81 428.00 574.00
C 446.24 585.08 466.56 577.19 467.00 555.00
M 448.00 543.00 
C 454.98 544.73 455.56 553.11 453.00 560.00 C 450.45 566.90 444.73 566.90 436.93 566.07 C 429.12 565.25 430.40 557.17 431.00 550.00 C 431.60 542.83 442.01 541.52 448.00 543.00 Z"/>
</g>
<g fill="#616161" fill-opacity="1.00" stroke="None">
<path d="
M 163.00 517.00 
C 167.86 518.47 175.82 514.60 180.00 518.00
C 177.76 515.45 165.57 514.17 163.00 517.00 Z"/>
</g>
<g fill="#878787" fill-opacity="1.00" stroke="None">
<path d="
M 219.00 517.00 
C 223.51 515.52 229.37 518.11 234.00 517.00
C 234.00 518.33 234.00 519.67 234.00 521.00
C 235.94 520.22 234.61 517.57 235.00 516.00
C 229.82 516.60 223.43 514.76 219.00 517.00 Z"/>
</g>
<g fill="#848484" fill-opacity="1.00" stroke="None">
<path d="
M 299.00 517.00 
C 303.67 514.37 311.44 518.15 317.00 517.00 C 322.56 515.85 330.07 517.60 336.00 517.00 C 341.93 516.40 348.97 517.45 355.00 517.00
C 355.00 518.67 355.00 520.33 355.00 522.00
C 357.06 520.93 355.53 517.88 356.00 516.00
C 347.46 517.40 335.17 514.14 327.00 516.00 C 318.83 517.86 305.19 511.96 299.00 517.00 Z"/>
</g>
<g fill="#010101" fill-opacity="1.00" stroke="None">
<path d="
M 234.00 521.00 
C 234.00 519.67 234.00 518.33 234.00 517.00
C 229.37 518.11 223.51 515.52 219.00 517.00
C 209.57 528.06 203.39 542.17 195.00 554.00
C 185.97 545.26 188.15 527.26 180.00 518.00
C 175.82 514.60 167.86 518.47 163.00 517.00
C 160.08 537.20 158.24 557.65 156.00 578.00
C 160.67 578.00 165.33 578.00 170.00 578.00
C 170.57 564.20 171.72 550.02 174.00 537.00
C 177.88 546.98 180.53 552.58 184.69 563.31 C 188.86 574.03 201.19 567.64 204.75 558.75 C 208.30 549.86 214.80 544.97 219.00 537.00
C 217.31 550.67 214.96 564.16 214.00 578.00
C 231.12 583.37 228.88 566.31 230.01 555.01 C 231.14 543.71 233.30 532.42 234.00 521.00 Z"/>
</g>
<g fill="#010101" fill-opacity="1.00" stroke="None">
<path d="
M 355.00 522.00 
C 355.00 520.33 355.00 518.67 355.00 517.00
C 348.97 517.45 341.93 516.40 336.00 517.00 C 330.07 517.60 322.56 515.85 317.00 517.00 C 311.44 518.15 303.67 514.37 299.00 517.00
C 296.76 520.14 296.95 524.89 297.00 529.00
C 304.00 529.00 311.00 529.00 318.00 529.00
C 317.45 545.63 314.27 561.58 313.00 578.00
C 321.44 579.54 328.59 578.40 328.01 570.01 C 327.42 561.62 330.22 556.72 330.02 549.02 C 329.82 541.32 332.60 536.58 332.00 529.00
C 341.88 527.26 353.51 534.11 355.00 522.00 Z"/>
</g>
<g fill="#898989" fill-opacity="1.00" stroke="None">
<path d="
M 497.00 532.00 
C 500.00 532.00 503.00 531.94 506.00 532.00
C 503.15 531.65 499.89 531.72 497.00 532.00 Z"/>
</g>
<g fill="#030303" fill-opacity="1.00" stroke="None">
<path d="
M 263.00 564.00 
C 261.81 555.52 258.33 550.74 256.93 542.07 C 255.52 533.41 250.21 529.32 240.00 532.00
C 243.80 542.08 245.91 553.06 250.02 562.98 C 254.14 572.89 258.75 588.16 241.00 584.00
C 239.75 587.26 239.03 590.69 238.00 594.00
C 255.86 603.18 266.83 585.40 272.69 571.70 C 278.56 557.99 288.18 545.93 293.00 532.00
C 272.44 526.87 273.76 553.78 263.00 564.00 Z"/>
</g>
<g fill="#030303" fill-opacity="1.00" stroke="None">
<path d="
M 408.00 533.00 
C 404.79 534.32 398.94 531.24 396.00 533.00
C 392.97 542.75 393.26 554.41 392.00 565.00
C 385.04 567.16 370.83 570.46 371.00 560.00 C 371.17 549.54 373.39 542.35 373.00 532.00
C 369.00 532.00 365.00 532.00 361.00 532.00
C 360.63 543.78 353.14 560.21 358.08 571.92 C 363.03 583.62 383.15 578.72 391.00 574.00
C 389.93 581.19 399.77 576.80 404.00 578.00
C 402.59 571.02 407.86 561.67 406.00 555.00 C 404.15 548.33 411.99 538.70 408.00 533.00 Z"/>
</g>
<g fill="#727272" fill-opacity="1.00" stroke="None">
<path d="
M 396.00 533.00 
C 398.94 531.24 404.79 534.32 408.00 533.00
C 406.52 530.89 397.73 531.51 396.00 533.00 Z"/>
</g>
<g fill="#020202" fill-opacity="1.00" stroke="None">
<path d="
M 523.00 553.00 
C 523.12 549.81 523.39 546.17 523.00 543.00
C 520.83 534.23 514.60 532.17 506.00 532.00
C 503.00 531.94 500.00 532.00 497.00 532.00
C 478.51 529.88 470.31 550.39 474.03 566.98 C 477.74 583.56 506.50 578.14 519.00 576.00
C 518.30 572.40 520.21 569.46 520.00 566.00
C 510.09 564.97 489.77 573.24 487.00 560.00
C 494.70 559.93 501.18 560.10 509.00 560.00 C 516.82 559.90 522.64 562.34 523.00 553.00
M 511.00 551.00 
C 503.67 551.00 496.33 551.00 489.00 551.00
C 487.43 538.53 512.68 538.62 511.00 551.00 Z"/>
</g>
<g fill="#EFEFEF" fill-opacity="1.00" stroke="None">
<path d="
M 511.00 551.00 
C 512.68 538.62 487.43 538.53 489.00 551.00
C 496.33 551.00 503.67 551.00 511.00 551.00 Z"/>
</g>
<g fill="#F1F1F1" fill-opacity="1.00" stroke="None">
<path d="
M 448.00 543.00 
C 442.01 541.52 431.60 542.83 431.00 550.00 C 430.40 557.17 429.12 565.25 436.93 566.07 C 444.73 566.90 450.45 566.90 453.00 560.00 C 455.56 553.11 454.98 544.73 448.00 543.00 Z"/>
</g>
<g fill="#727272" fill-opacity="1.00" stroke="None">
<path d="
M 467.00 555.00 
C 467.47 551.08 468.01 547.08 467.00 543.00
C 467.48 546.83 467.08 551.13 467.00 555.00 Z"/>
</g>
<g fill="#676767" fill-opacity="1.00" stroke="None">
<path d="
M 523.00 553.00 
C 523.49 549.60 523.88 546.54 523.00 543.00
C 523.39 546.17 523.12 549.81 523.00 553.00 Z"/>
</g>
</svg>